<svg width="24" height="25" viewBox="0 0 24 25" fill="none" xmlns="http://www.w3.org/2000/svg">
<path d="M5.15039 1.23549C5.79952 0.812417 6.58274 0.596756 7.3568 0.630968C7.72764 0.647158 8.09023 0.731773 8.44672 0.830746C9.08423 0.99631 9.72022 1.16859 10.358 1.33294C9.6747 1.4316 8.999 1.58495 8.34224 1.79878C6.50729 2.3978 4.82873 3.47122 3.52041 4.89074C3.35637 5.06119 3.20669 5.24448 3.05273 5.42379C3.16393 4.96405 3.29772 4.51013 3.41716 4.05223C3.51705 3.7043 3.58792 3.34751 3.71683 3.00844C3.98961 2.28448 4.50035 1.6546 5.15039 1.23549Z" fill="#046D7C"/>
<path d="M18.8809 3.57715C19.5165 3.73783 20.1476 3.915 20.783 4.07568C21.1181 4.16609 21.4593 4.24093 21.7773 4.38389C22.8208 4.82621 23.6272 5.7805 23.8927 6.88233C24.0445 7.48044 24.0329 8.11734 23.871 8.71209C23.6532 9.51089 23.4504 10.3143 23.2213 11.1097C23.0606 9.83897 22.6797 8.59632 22.1002 7.45417C21.543 6.35875 20.8071 5.35345 19.9277 4.49478C19.6012 4.16426 19.2395 3.87162 18.8809 3.57715Z" fill="#046D7C"/>
<path d="M0.134686 16.2931C0.314913 15.633 0.484143 14.9701 0.669563 14.3115C1.05568 16.751 2.29191 19.0402 4.1009 20.7191C4.34833 20.9595 4.61837 21.1745 4.88351 21.3944C4.18674 21.2023 3.48599 21.0251 2.78738 20.8394C2.27694 20.7071 1.79277 20.4701 1.38131 20.1396C0.531796 19.4645 0.00425022 18.3987 0.000584582 17.3118C-0.00613575 16.9679 0.0454886 16.6248 0.134686 16.2931Z" fill="#046D7C"/>
<path d="M20.5094 19.9243C20.6936 19.7227 20.8558 19.5028 21.032 19.2944C20.8252 20.0832 20.6093 20.8694 20.4006 21.6575C20.1984 22.4145 19.7503 23.1046 19.1332 23.589C18.372 24.1948 17.3673 24.4902 16.3999 24.3774C16.0391 24.3411 15.6927 24.2302 15.3424 24.1435C14.8985 24.0271 14.4553 23.9076 14.0111 23.7922C13.8819 23.757 13.749 23.7323 13.625 23.6813C14.0081 23.6055 14.3951 23.5432 14.773 23.4406C16.9812 22.8816 19.0086 21.6374 20.5094 19.9243Z" fill="#046D7C"/>
<path d="M11.1333 3.03447C12.3611 2.93565 13.6079 3.04911 14.7922 3.37766C17.0016 3.97847 18.9733 5.34197 20.2706 7.15876C20.9235 8.06672 21.4059 9.0859 21.693 10.1538C22.1777 11.9689 22.089 13.9239 21.4229 15.6866C20.7847 17.4046 19.6074 18.9297 18.0943 20.0322C17.2653 20.6381 16.3379 21.1206 15.3544 21.452C13.1983 22.1846 10.7837 22.1826 8.62882 21.4464C6.46075 20.7138 4.57217 19.2399 3.39669 17.3446C2.44198 15.8277 1.95229 14.0464 2.00367 12.2755C2.03332 10.8056 2.43699 9.34407 3.16359 8.04955C4.027 6.49488 5.35749 5.18685 6.94428 4.30253C8.21957 3.58826 9.6628 3.15778 11.1333 3.03447ZM9.01458 5.54328C8.33319 5.57312 7.66618 5.84283 7.17092 6.29302C6.71675 6.70125 6.41173 7.25927 6.32042 7.84994C6.22824 8.39134 6.32688 8.95667 6.57789 9.44796C6.87382 10.0192 7.38435 10.4854 7.99557 10.7383C8.59917 10.9905 9.29495 11.0415 9.92761 10.8619C10.8304 10.6254 11.589 9.93165 11.864 9.07211C12.056 8.50565 12.0396 7.87753 11.8226 7.32008C11.5951 6.72603 11.141 6.21644 10.5673 5.90449C10.0988 5.64801 9.5533 5.52075 9.01458 5.54328ZM16.0023 6.86849C15.3262 6.93972 14.6756 7.24547 14.2153 7.72775C13.7884 8.15879 13.5233 8.73313 13.4699 9.32493C13.373 10.2292 13.8061 11.1583 14.5585 11.707C15.0282 12.0547 15.6113 12.253 16.2031 12.2791C16.6831 12.2929 17.1696 12.1972 17.5985 11.9869C18.0262 11.7828 18.3973 11.472 18.67 11.0961C19.0135 10.6211 19.19 10.0372 19.1679 9.46007C19.1424 8.91444 18.9434 8.37867 18.6002 7.94285C18.0101 7.17987 16.9846 6.76066 16.0023 6.86849ZM11.7451 11.3782C11.1671 11.4559 10.683 11.9635 10.6821 12.5275C10.6592 12.9168 10.8612 13.3054 11.1879 13.534C11.4202 13.6992 11.7123 13.78 12.0006 13.773C12.305 13.7547 12.6065 13.6404 12.8258 13.4335C13.147 13.1446 13.2914 12.6831 13.1749 12.2741C13.1182 12.0584 12.9987 11.858 12.829 11.7054C12.5495 11.4399 12.1327 11.3151 11.7451 11.3782ZM7.31506 12.7448C6.43022 12.8504 5.6129 13.3802 5.18399 14.1305C4.95647 14.5171 4.84226 14.9586 4.82729 15.4006C4.82788 15.8834 4.955 16.3677 5.21129 16.7846C5.51309 17.2897 5.99162 17.694 6.54971 17.9226C7.03382 18.1189 7.57371 18.1954 8.09451 18.12C9.02691 17.9989 9.87447 17.4051 10.2726 16.587C10.5374 16.0492 10.6134 15.4265 10.4737 14.8462C10.3689 14.3901 10.1343 13.9627 9.80665 13.6179C9.19043 12.9613 8.2275 12.624 7.31506 12.7448ZM14.5353 14.0497C13.8257 14.1275 13.1473 14.4636 12.6849 14.9876C12.2771 15.4338 12.0364 16.0169 12.0061 16.6089C11.9756 17.1346 12.1139 17.667 12.3948 18.1191C12.6511 18.5361 13.0275 18.883 13.4693 19.1166C13.8974 19.3467 14.3882 19.4562 14.877 19.4638C15.3197 19.4505 15.7622 19.3557 16.157 19.16C16.6781 18.9089 17.1164 18.5006 17.3859 18.0043C17.6267 17.5707 17.7371 17.0724 17.7083 16.5825C17.6713 16.0281 17.4546 15.4848 17.0877 15.054C16.4879 14.3319 15.4909 13.9397 14.5353 14.0497Z" fill="#046E7D"/>
</svg>
