<svg width="20" height="20" viewBox="0 0 20 20" fill="none" xmlns="http://www.w3.org/2000/svg">
<path d="M6.10428 0.827637C3.13164 0.827637 0.712891 3.24781 0.712891 6.22119V13.9244C0.712891 16.8974 3.13306 19.3165 6.10645 19.3165H13.8097C16.7827 19.3165 19.2018 16.8964 19.2018 13.923V6.21903C19.2018 3.24638 16.7816 0.827637 13.8082 0.827637H6.10428ZM15.504 3.78586C15.9122 3.78586 16.2436 4.11718 16.2436 4.52541C16.2436 4.93365 15.9122 5.26497 15.504 5.26497C15.0958 5.26497 14.7644 4.93365 14.7644 4.52541C14.7644 4.11718 15.0958 3.78586 15.504 3.78586ZM9.95734 5.26497C12.6086 5.26497 14.7644 7.42078 14.7644 10.0721C14.7644 12.7234 12.6083 14.8792 9.95734 14.8792C7.30603 14.8792 5.15022 12.723 5.15022 10.0721C5.15022 7.42115 7.30603 5.26497 9.95734 5.26497ZM9.95734 6.74408C8.11917 6.74408 6.62934 8.23392 6.62934 10.0721C6.62934 11.9102 8.11917 13.4001 9.95734 13.4001C11.7955 13.4001 13.2853 11.9102 13.2853 10.0721C13.2853 8.23392 11.7955 6.74408 9.95734 6.74408Z" fill="#038193"/>
</svg>
