<svg width="22" height="22" viewBox="0 0 22 22" fill="none" xmlns="http://www.w3.org/2000/svg">
<g filter="url(#filter0_i_1091_24392)">
<path d="M21.9421 10.9847C21.9421 17.0354 17.0363 21.9411 10.9857 21.9411C4.93502 21.9411 0.0292969 17.0354 0.0292969 10.9847C0.0292969 4.93404 4.93502 0.0283203 10.9857 0.0283203C17.0363 0.0283203 21.9421 4.93404 21.9421 10.9847Z" fill="#038193"/>
</g>
<path d="M4.16659 10.8295C7.99584 9.14495 12.9509 7.09117 13.6351 6.80685C15.4292 6.06292 15.9798 6.20535 15.7053 7.85319C15.5081 9.03757 14.9394 12.9583 14.4859 15.3988C14.2169 16.8462 13.6132 17.0177 12.6644 16.3915C12.208 16.0902 9.90445 14.5667 9.40429 14.209C8.94795 13.883 8.31851 13.4908 9.10792 12.7184C9.38895 12.4434 11.2302 10.6849 12.6649 9.31641C12.8528 9.13673 12.6167 8.84145 12.3998 8.98553C10.466 10.268 7.78493 12.0478 7.44364 12.2796C6.92814 12.6296 6.43292 12.7901 5.54435 12.5349C4.87273 12.342 4.21699 12.1119 3.9617 12.0243C2.97837 11.6868 3.21174 11.2497 4.16659 10.8295Z" fill="#EBE9E9"/>
<defs>
<filter id="filter0_i_1091_24392" x="0.0292969" y="0.0283203" width="21.9121" height="25.9127" filterUnits="userSpaceOnUse" color-interpolation-filters="sRGB">
<feFlood flood-opacity="0" result="BackgroundImageFix"/>
<feBlend mode="normal" in="SourceGraphic" in2="BackgroundImageFix" result="shape"/>
<feColorMatrix in="SourceAlpha" type="matrix" values="0 0 0 0 0 0 0 0 0 0 0 0 0 0 0 0 0 0 127 0" result="hardAlpha"/>
<feOffset dy="4"/>
<feGaussianBlur stdDeviation="7.5"/>
<feComposite in2="hardAlpha" operator="arithmetic" k2="-1" k3="1"/>
<feColorMatrix type="matrix" values="0 0 0 0 0 0 0 0 0 0 0 0 0 0 0 0 0 0 0.2 0"/>
<feBlend mode="normal" in2="shape" result="effect1_innerShadow_1091_24392"/>
</filter>
</defs>
</svg>
