<svg width="20" height="20" viewBox="0 0 20 20" fill="none" xmlns="http://www.w3.org/2000/svg">
<path d="M10.0718 0.605957C4.84401 0.605957 0.605469 4.8445 0.605469 10.0723C0.605469 11.8482 1.1043 13.5039 1.95516 14.9241L0.69021 19.5386L5.40334 18.3014C6.78173 19.085 8.37296 19.5386 10.0718 19.5386C15.2996 19.5386 19.5381 15.3 19.5381 10.0723C19.5381 4.8445 15.2996 0.605957 10.0718 0.605957ZM6.8316 5.65651C6.98543 5.65651 7.14349 5.65557 7.27996 5.66267C7.44878 5.66661 7.63252 5.67898 7.80843 6.06788C8.01748 6.53016 8.47266 7.68984 8.53104 7.80738C8.58942 7.92492 8.63078 8.06339 8.54953 8.21722C8.47222 8.37499 8.43201 8.47048 8.31842 8.61011C8.20088 8.74579 8.07208 8.91431 7.96559 9.01686C7.84805 9.1344 7.72668 9.26328 7.86236 9.49757C7.99804 9.73186 8.46926 10.4999 9.16582 11.12C10.0612 11.9199 10.8166 12.1657 11.0517 12.2832C11.2868 12.4008 11.4229 12.3825 11.5586 12.2247C11.6982 12.0709 12.145 11.543 12.3028 11.3079C12.4566 11.0729 12.6136 11.1135 12.8266 11.1908C13.0428 11.2682 14.1955 11.836 14.4305 11.9535C14.6656 12.0711 14.8197 12.1292 14.8789 12.2247C14.9396 12.3233 14.9397 12.7927 14.7448 13.3402C14.55 13.8869 13.5932 14.4155 13.164 14.4526C12.731 14.4928 12.3268 14.6473 10.3491 13.8687C7.9636 12.9291 6.45919 10.4858 6.34165 10.328C6.22411 10.1742 5.38639 9.05772 5.38639 7.90599C5.38639 6.75031 5.99232 6.18433 6.20452 5.94925C6.42067 5.71417 6.67383 5.65651 6.8316 5.65651Z" fill="#038193"/>
</svg>
