<svg width="22" height="15" viewBox="0 0 22 15" fill="none" xmlns="http://www.w3.org/2000/svg">
<path d="M21.5043 2.23869C21.3839 1.8092 21.1494 1.42037 20.8257 1.11352C20.4928 0.797229 20.0848 0.570982 19.6402 0.45613C17.9764 0.0175769 11.3104 0.017577 11.3104 0.017577C8.53142 -0.0140408 5.75313 0.125022 2.99119 0.43398C2.54661 0.557318 2.13939 0.788621 1.80577 1.10731C1.47797 1.42272 1.24053 1.81166 1.11649 2.23781C0.818535 3.84295 0.673768 5.47277 0.684141 7.1053C0.673509 8.73636 0.817921 10.3656 1.11649 11.9728C1.23787 12.3972 1.47442 12.7843 1.80311 13.0971C2.13181 13.4098 2.54112 13.6357 2.99119 13.7554C4.67718 14.193 11.3104 14.193 11.3104 14.193C14.0929 14.2247 16.8748 14.0856 19.6402 13.7766C20.0848 13.6618 20.4928 13.4355 20.8257 13.1192C21.1535 12.8065 21.3865 12.4175 21.5034 11.9941C21.8092 10.3895 21.9578 8.75903 21.9473 7.12567C21.9703 5.4854 21.8218 3.84722 21.5043 2.23781V2.23869ZM9.19118 10.1388V4.07264L14.7373 7.10618L9.19118 10.1388Z" fill="#038193"/>
</svg>
