<svg fill="none" height="37" viewBox="0 0 36 37" width="36" xmlns="http://www.w3.org/2000/svg"><g fill="#038193"><path d="m27.8742 4.07534c-3.5639-2.55777-8.1111-3.556298-12.4355-3.110801-2.1276.245791-4.2168.844911-6.10635 1.851111-4.60859 2.43488-8.04198 7.02042-9.009784 12.15135-.745055 3.8328-.192027 7.9114 1.582284 11.3909 1.58228 3.1645 4.17845 5.7837 7.24316 7.535 2.09689 1.1675 4.43959 1.8818 6.82839 2.0969 3.6638.361 7.4275-.4762 10.5921-2.3427 2.0738-1.2443 3.9019-2.8957 5.3152-4.8697 1.8972-2.6269 3.0263-5.7915 3.3105-9.0098.5146-6.0296-2.358-12.21278-7.3123-15.69226zm3.6255 21.12266c-1.1368 2.3888-2.9419 4.455-5.1002 5.9758-2.9265 2.0278-6.5749 3.0263-10.1235 2.6884-2.1661-.1997-4.286-.8449-6.1755-1.9203-2.85737-1.6514-5.21544-4.1861-6.55961-7.2124-.69897-1.5823-1.13678-3.2798-1.29808-5.0003-.40709-4.286 1.09838-8.7103 4.04019-11.85946 2.42719-2.6653 5.8683-4.34743 9.4553-4.69308 2.673-.29188 5.4074.07681 7.9037 1.05998 2.7729 1.1291 5.2308 3.10311 6.8361 5.63784 1.0292 1.58992 1.805 3.36422 2.2121 5.21542.7681 3.3796.2612 6.982-1.1829 10.1158z"/><path d="m18.7496 6.19482-.7451 4.86978h4.7545l-4.7545 11.6981-1.6591-6.8898h-4.0095l1.6054-9.67808z"/><path d="m21.8755 22.7708c.5837-1.4901 1.6898-2.8727 3.057-3.8405.5223-.3687 1.1061-.6528 1.6361-1.0139l-1.5746-.3149.2842-1.2213 3.8865.7221-.7757 3.6484-1.3673-.2534.2996-1.5132c-.5453.3687-1.1521.6606-1.6821 1.0523-.9525.7066-1.7897 1.6821-2.2582 2.7267h-1.5055z"/><path d="m11.7899 22.7704c-.8449-1.6821-2.27355-2.8881-4.00945-3.779l.29187 1.5054-1.31344.2612-.82187-3.6562 3.89426-.7143c.09985-.0077.05376.0154.06912.0615.03841.1459.27651 1.1521.23041 1.1982l-1.55153.2765c.56071.384 1.17519.699 1.72823 1.0984 1.3365.9678 2.358 2.2966 2.9648 3.756h-1.4824z"/><path d="m9.44727 28.371c1.65913 1.4824 3.78673 2.4195 5.98343 2.8573 3.9173.7834 8.1957-.3226 11.1605-2.9111-6.9129.1306-11.0299.0999-17.14393.0538z"/><path d="m10.0775 27.3255h-2.32732l-1.24432-2.55h2.30429z"/><path d="m15.0471 24.7755 1.1906 2.55h-2.3274l-1.2443-2.55z"/><path d="m25.4932 27.3255h-2.3274l-1.2366-2.55h2.2966z"/><path d="m15.769 24.7764h2.3043l1.2444 2.4656c.0384.0307-.0461.0844-.0538.0844h-2.2275l-1.2674-2.5577z"/><path d="m11.944 24.7755 1.1906 2.55h-2.2505l-1.2674-2.55z"/><path d="m21.1994 24.7755 1.1906 2.55h-2.2506l-1.2673-2.55z"/><path d="m27.3596 24.7755 1.1905 2.55h-2.2505l-1.2674-2.55z"/></g></svg>