<svg fill="none" height="36" viewBox="0 0 36 36" width="36" xmlns="http://www.w3.org/2000/svg"><g fill="#038193"><path d="m33.0055 8.99819c-1.8818-3.4334-4.9926-6.15247-8.6027-7.65026-2.8035-1.167508-5.9143-1.582284-8.9253-1.221278-2.1353.238111-4.2092.875628-6.13708 1.820388-2.61922 1.32113-4.83134 3.38732-6.43666 5.83755-1.65909 2.50401-2.619217 5.44581-2.8573278 8.43371-.1920242 2.5194.2227488 5.0694 1.0369278 7.4505 1.16751 3.3029 3.41036 6.1832 6.25232 8.211 3.50252 2.5655 7.98822 3.7407 12.29722 3.2184 3.6331-.3995 7.128-1.9817 9.8086-4.4627 2.8497-2.6269 4.8621-6.1832 5.5227-10.0083.7527-3.948.0153-8.1342-1.9587-11.62134zm-.0384 9.91611c-.3149 3.4949-1.7973 6.8899-4.2476 9.4169-2.7882 2.9802-6.836 4.6931-10.907 4.7469-3.5486.0614-7.1049-1.1752-9.86234-3.4104-1.35185-1.0753-2.504-2.3888-3.44108-3.8328-1.49779-2.3965-2.27357-5.2077-2.3427-8.019-.03072-2.8803.69129-5.7914 2.19676-8.26468 1.01389-1.65909 2.32734-3.14153 3.87122-4.31672 2.32734-1.70518 5.13094-2.73443 8.00354-2.97254 2.7882-.23043 5.6379.26116 8.1649 1.46707 3.5947 1.68982 6.429 4.87742 7.7655 8.61037.7374 2.0969 1.0677 4.3551.7988 6.5672z"/><path d="m9.18652 27.6625c1.65908 1.4825 3.78668 2.4195 5.98348 2.8574 3.9173.7834 8.1956-.3226 11.1605-2.9111-6.9129.1305-11.0299.0998-17.14398.0537z"/><path d="m21.6226 22.725c.5837-1.4901 1.6898-2.8727 3.057-3.8405.5223-.3687 1.1061-.6529 1.636-1.0139l-1.5746-.3149.2842-1.2213 3.8866.722-.7758 3.6485-1.3672-.2535.2996-1.5131c-.5454.3687-1.1522.6605-1.6822 1.0523-.9524.7066-1.7896 1.6821-2.2582 2.7267h-1.5054z"/><path d="m11.537 22.7246c-.8449-1.6821-2.27358-2.888-4.00948-3.779l.29187 1.5055-1.31344.2611-.82187-3.6561 3.89426-.7144c.09985-.0077.05377.0154.06913.0615.0384.1459.27651 1.1521.23043 1.1982l-1.55156.2765c.56071.3841 1.17519.699 1.72826 1.0984 1.3365.9678 2.358 2.2966 2.9648 3.756h-1.4824z"/><path d="m18.9879 10.2586c.046.0461.1536.0538.2227.0614.8987.0692 1.0677-1.06763 1.252-1.6821.0154-.04609 0-.15362.0922-.10754.2227.10754 1.5899 3.27214 1.7359 3.70994.6375 1.9279.576 4.2092-1.037 5.6839-.0614.0538-.576.4685-.6221.4225.0153-.2305.1843-.4071.2611-.6222.4609-1.2904.0922-2.6115-.2842-3.8635-.1229-.4071-.5376-1.7974-.7527-2.0739-.1383-.1843-.3533-.2304-.5223-.0538-.1459.1613-.2612.7912-.4532 1.06-.0461.0615-.0614.1383-.1613.1152-.1229-1.252-.9294-2.2121-1.8895-2.98788-.2151-.17666-.5838-.49158-.8526-.27652-.2688.21507-.0691.4455-.0461.699.1306 1.3826-1.1137 2.3657-1.7973 3.5025s-1.1522 2.2889-.9909 3.6254c.0538.4839.2458.891.4609 1.3212-.9985-.2919-1.7513-1.1752-1.9894-2.143-.3456-1.3903.192-2.7729.2842-4.1631.0461-.6913.0077-1.4287-.0538-2.12.7758.1152.9986 2.12 1.4978 2.2736.1613.0537.2919-.0691.3841-.1844.3379-1.0983.4532-2.2735.9371-3.3335.5914-1.31345 1.8818-2.13532 1.7819-3.7176 0-.09217-.1536-.5223-.0307-.5223.0845 0 1.0446.98316 1.1599 1.12141.8065.95245 1.1675 1.96634 1.298 3.18762.0231.25347-.0614.88327.1153 1.05997z"/><path d="m16.6759 10.673c.7296.6299 1.2212 1.3212 1.3672 2.2736.0384.2381-.0077.9525.1843 1.0677.3149.1843.7911-.338.9832-.5531.0998-.1075.215-.3303.3072-.3994.0538-.0384.0538-.0768.1075 0 .1383.192.4071 1.2367.4839 1.5285.3687 1.398.6453 2.9495-.6452 4.0095-1.2904 1.06-4.5164 1.1829-5.3843-.3456-.7912-1.4056.0384-3.1569.8295-4.3859.4071-.6221 1.2904-1.5592 1.5055-2.1891.0461-.1382.1843-1.0062.2458-1.0062z"/><path d="m9.8241 26.618h-2.32734l-1.24432-2.5578h2.3043z"/><path d="m14.7859 24.0602 1.1905 2.5578h-2.3273l-1.2443-2.5578z"/><path d="m25.2401 26.618h-2.3273l-1.2443-2.5578h2.3043z"/><path d="m15.5156 24.0612h2.3043l1.2443 2.4655c.0384.0308-.046.0845-.0537.0845h-2.2275l-1.2674-2.5577z"/><path d="m11.6833 24.0602 1.1905 2.5578h-2.2505l-1.26734-2.5578z"/><path d="m20.9465 24.0602 1.1905 2.5578h-2.2505l-1.2674-2.5578z"/><path d="m27.0988 24.0602 1.1906 2.5578h-2.2506l-1.2673-2.5578z"/></g></svg>