<svg fill="none" height="36" viewBox="0 0 36 36" width="36" xmlns="http://www.w3.org/2000/svg"><g fill="#038193"><path d="m34.4884 12.3536c-1.0523-3.41035-3.1799-6.46738-5.9834-8.6795-3.3105-2.60385-7.5965-3.840493-11.7827-3.6561492-4.0094.1613002-7.9421 1.7358992-10.93001 4.4165592-4.07092 3.70223-6.306083 9.37849-5.691605 14.86269.23043 2.2198.867956 4.4012 1.889525 6.3906.891 1.7205 2.08155 3.2721 3.47181 4.6163 2.62689 2.6038 6.13708 4.2783 9.80088 4.7468 4.0249.553 8.2187-.3456 11.6675-2.4886 2.9725-1.8512 5.3459-4.6163 6.7746-7.8039 1.7436-3.8636 2.0662-8.3646.7681-12.4125zm-17.021 20.7079c-3.9096-.0307-7.78853-1.636-10.55368-4.4165-2.84196-2.7422-4.57787-6.598-4.70844-10.546-.15362-3.7944 1.20591-7.5888 3.61006-10.51529 2.59617 2.56549 5.13856 5.18469 7.72706 7.75779 4.6931 4.6931 9.4015 9.3785 14.1023 14.0562-2.8113 2.3811-6.4904 3.7176-10.185 3.6638zm11.7135-5.2384c-5.4151-5.3844-10.7995-10.8071-16.1915-16.2145-1.8665-1.89725-3.74067-3.78677-5.63787-5.65325 1.30577-1.08302 2.76517-1.97402 4.33207-2.61154 4.1016-1.71286 8.9099-1.4517 12.8964.46086 2.9956 1.42099 5.4458 3.90962 6.8821 6.88983.8833 1.7513 1.4287 3.6638 1.5746 5.6225.2765 4.1324-1.0523 8.426-3.8635 11.5138z"/><path d="m27.6446 17.2916c-.8142 0-1.6283 0-2.4425 0-.1844-1.3749-.7528-2.6807-1.5669-3.8021.5299-.53 1.0753-1.0523 1.5976-1.59.361-.3303.361-.9447.0461-1.3134-.338-.4148-1.0446-.4378-1.4133-.0615-.5761.553-1.1291 1.1138-1.6898 1.6745-1.1138-.8987-2.504-1.3826-3.9096-1.59 0-.69896 0-1.39793 0-2.08922 0-.23043-.0231-.46854-.146-.66056-.2688-.43014-.891-.58376-1.3211-.31493-.3533.17667-.507.58377-.4993.96781 0 .76042-.0153 1.5132 0 2.2736-.7373.0537-1.467.1766-2.166.4224 3.4487 3.4718 6.9282 6.9052 10.3539 10.4001.3303-.7681.4993-1.59.7067-2.3965h2.3581c.4992.0307.9524-.4225.9678-.914.0537-.4993-.361-1.0062-.8757-1.0062zm-10.4307-4.7546c-.1997 0-.361-.1613-.361-.361s.1613-.361.361-.361.361.1613.361.361-.1613.361-.361.361zm4.2475 4.478c-.1382 0-.2457-.1075-.2457-.2457 0-.1383.1075-.2458.2457-.2458.1383 0 .2458.1075.2458.2458 0 .1382-.1075.2457-.2458.2457zm-.0768-1.2904c-.6452 0-1.1675-.5223-1.1675-1.1675s.5223-1.1675 1.1675-1.1675 1.1675.5223 1.1675 1.1675-.5223 1.1675-1.1675 1.1675zm2.481 2.9495c-.4609 0-.8296-.3686-.8296-.8295s.3687-.8296.8296-.8296c.4608 0 .8295.3687.8295.8296s-.3687.8295-.8295.8295z"/><path d="m10.0248 17.2845c-.91405.0154-1.82808 0-2.74211.0154-.53767.0153-.92172.5914-.82955 1.0983.06145.4455.47623.8296.9294.8219.891 0 1.78198-.0077 2.68066 0 .1997 1.2981.7143 2.5501 1.5285 3.587-.5991.5991-1.2059 1.1829-1.79733 1.7974-.3226.3149-.29188.8602-.03841 1.2059.31494.4532 1.05234.5069 1.43634.1075.5761-.5684 1.1445-1.1368 1.7052-1.7205.9985.7374 2.1814 1.1905 3.4027 1.3979v2.0892c0 .2458.0076.507.1459.7297.2535.4302.8603.5838 1.2981.361.3149-.1689.5376-.5146.53-.8756.0153-.7374 0-1.4824 0-2.2198 1.0753-.192 2.1353-.4762 3.1338-.914-.7911-.9141-1.6898-1.7206-2.527-2.5885-2.6346-2.6423-5.2538-5.2999-7.9268-7.9037-.4993.937-.8065 1.9663-.9294 3.0186zm6.6748 4.839c.3302-.1306.6759.2381.5684.5607-.0845.2996-.5377.4071-.7297.146-.2151-.2151-.1076-.5992.1613-.7067zm-2.6807-1.974c.507-.2074 1.1061.3226.9524.8526-.0998.5223-.8525.7066-1.1982.3072-.3533-.3303-.2151-.9908.2381-1.1598zm-.0538 3.226c.2151 0 .3918.1767.3918.3917 0 .2151-.1767.3918-.3918.3918-.215 0-.3917-.1767-.3917-.3918 0-.215.1767-.3917.3917-.3917zm-1.6898-3.8482c0 .1998-.1613.3687-.3687.3687-.2073 0-.3687-.1613-.3687-.3687 0-.2073.1614-.3686.3687-.3686.2074 0 .3687.1613.3687.3686zm-.4532-2.6653c0 .2842-.2304.5147-.5146.5147s-.5146-.2305-.5146-.5147.2304-.5146.5146-.5146.5146.2304.5146.5146z"/></g></svg>