<svg fill="none" height="65" viewBox="0 0 74 65" width="74" xmlns="http://www.w3.org/2000/svg"><g stroke="#fff" stroke-miterlimit="10" stroke-width="2"><path d="m33.5182 57.403c1.2272 8.2724-17.9745 8.5245-19.5997-3.9869-7.89434 2.2124-13.354005-5.4133-9.53622-12.15-4.580678-3.1278-4.494453-12.2461.27529-14.9792-3.6453-3.8842.7795-14.7703 9.59923-12.8299-2.4081-8.74012 10.3488-15.86157 19.3111-8.89602z"/><path d="m13.9902 11.5168c.6568 3.8775 4.0699 6.8827 7.9673 7.5792"/><path d="m21.9588 8.60034c-.9022 5.79466 8.823 8.22596 11.4666 4.46796"/><path d="m17.0959 17.1521c-.0132 2.0333-2.7331 4.6404-4.2722 5.2474"/><path d="m11.0757 29.0073c2.3981 1.214 2.4512 4.7001 5.045 5.4696 2.7199.8093 4.1992-2.1925 5.2905-4.2788 1.6651-3.1777 4.1329-4.468 7.7351-3.9041 1.1742.1825 3.2108 1.0084 3.8874 1.35"/><path d="m8.35205 28.8118c1.86075 2.3086 4.85265-1.1012 2.91895-3.1079"/><path d="m33.6144 40.8617c-2.5507-2.5441-6.5244.3251-7.3802 3.0814-1.0083 3.244 2.0598 5.8876.9785 9.0486-.6534 1.9172-2.1593 2.763-4.0931 2.4446"/><path d="m13.9913 55.0444c-2.9985-7.8413 11.8547-5.6355 5.4398-17.4902"/><path d="m4.27295 41.6378c1.06473-1.7414 3.6088-1.8708 5.45633-1.7547 1.67502.1061 3.55572 1.3666 4.26222 1.559"/><path d="m72.1878 37.5606.2786-8.5477-5.1844-.1725c-.3151-1.7745-.806-3.4894-1.4528-5.1213l4.7531-2.6071-4.1162-7.4996-5.0517 2.773c-1.0913-1.2804-2.302-2.4546-3.6122-3.506l3.0218-5.10147-7.3636-4.35845-3.1179 5.26397c-1.5059-.55061-3.0848-.9619-4.7167-1.22725v-6.18276h-4.2225v61.99336h4.2225v-3.831c1.612-.262 3.1743-.67 4.6702-1.2107l1.8243 3.4264 7.5527-4.0135-1.9106-3.5955c1.4131-1.1278 2.7133-2.3915 3.8609-3.778l3.569 2.2721 4.5973-7.2177-3.8443-2.4479c.6733-1.7413 1.1642-3.569 1.4528-5.4696z" fill="#fff"/><path d="m41.3994 13.5691v5.8975c7.0452.0265 12.7536 5.7449 12.7536 12.8033 0 7.0552-5.7084 12.7768-12.7536 12.8034v5.8975c10.2991-.0265 18.6478-8.3885 18.6478-18.7009 0-10.3123-8.3487-18.6743-18.6478-18.7008z" fill="#646464"/></g></svg>