<svg fill="none" height="32" viewBox="0 0 32 32" width="32" xmlns="http://www.w3.org/2000/svg"><rect height="20" rx="2" stroke="#000" width="24" x="4" y="8"/><path d="m4 12c0-1.8856 0-2.82843.58579-3.41421.58578-.58579 1.52859-.58579 3.41421-.58579h16c1.8856 0 2.8284 0 3.4142.58579.5858.58578.5858 1.52861.5858 3.41421v1.3333h-24z" fill="#000"/><path d="m9.33301 4v4" stroke="#000" stroke-linecap="round"/><path d="m22.667 4v4" stroke="#000" stroke-linecap="round"/><g fill="#000"><rect height="2.66667" rx=".5" width="5.33333" x="9.33301" y="16"/><rect height="2.66667" rx=".5" width="5.33333" x="9.33301" y="21.3334"/><rect height="2.66667" rx=".5" width="5.33333" x="17.333" y="16"/><rect height="2.66667" rx=".5" width="5.33333" x="17.333" y="21.3334"/></g></svg>