<svg fill="none" height="79" viewBox="0 0 69 79" width="69" xmlns="http://www.w3.org/2000/svg"><g stroke="#fff" stroke-miterlimit="10" stroke-width="2"><path d="m38.0066 15.9377-1.2057-14.8254h-2.2507-2.2539l-1.2025 14.8254z" fill="#929292"/><path d="m64.5582 40.2469c0-9.8292-4.0577-19.8152-11.9769-26.3625-1.9614-1.623-4.1252-2.9684-6.4242-4.01335l-.6591-4.32027c-3.0449-1.4303-5.9193-2.14873-8.5301-2.4263l1.0385 12.81062h-6.9128l1.0385-12.85307c-5.2248.4735-8.5301 2.46548-8.5301 2.46548l-.7621 4.32354c-7.9192 3.69335-13.67773 10.84475-16.38178 18.73755-1.28611 3.7488-1.91955 7.6903-1.91955 11.6318h60.01963"/><path d="m45.4941 5.5498 2.299 15.054"/><path d="m20.959 20.6038 2.6429-15.054"/><path d="m11.5445 26.2141s-3.04163 5.424-2.8037 9.5582h18.7676"/><path d="m64.8961 40.2468h-30.3458-30.3072s-2.733.1045-2.70728 4.3758h33.01448 33.008c.0322-4.2713-2.6622-4.3758-2.6622-4.3758z"/><path d="m61.9538 44.6221h-13.7582c-.2122 7.3343-6.1316 13.2122-13.4013 13.2122-7.2762 0-13.1891-5.8779-13.4045-13.2122h-13.76141c.00322.5845.02896 1.1592.06433 1.7372l-5.38559 1.4303 2.43717 9.47 5.2698-1.4009c1.1415 2.5765 2.6623 4.9505 4.4918 7.0372l-3.2764 4.3105 7.6234 5.9791 3.2282-4.2484c2.434 1.3127 5.0898 2.2532 7.8935 2.7626v5.3326h9.633v-5.3326c2.6654-.4833 5.1958-1.3649 7.5333-2.5765l3.1671 4.2942 7.707-5.8649-3.2088-4.3529c1.3633-1.5054 2.5529-3.1676 3.5593-4.9571l5.0865 1.9006 3.3247-9.1794-5.1863-1.943c.2347-1.4336.3601-2.8998.3634-4.3986z" fill="#fff" stroke-linecap="round" stroke-linejoin="round"/></g><path d="m34.7977 63.4899c-8.4369 0-16.0667-5.8845-18.3045-14.1527z" fill="#fff"/><path d="m34.7977 63.4899c-8.4369 0-16.0667-5.8845-18.3045-14.1527" stroke="#fff" stroke-miterlimit="10" stroke-width="2"/></svg>