<svg fill="none" height="72" viewBox="0 0 64 72" width="64" xmlns="http://www.w3.org/2000/svg"><path d="m47.5829 31.1875c0-.4437-.0216-.882-.0622-1.3149l2.9274-.7684-1.3122-5.008-2.9815.7792c-.6277-1.3067-1.4448-2.508-2.4188-3.5659l1.9129-2.4783-4.099-3.1655-1.9399 2.5135c-1.2526-.6412-2.6081-1.1066-4.0394-1.3609v-3.1899h-5.1811v3.1899c-1.3582.2435-2.6514.6736-3.8527 1.2662l-1.8993-2.5405-4.1476 3.1032 1.883 2.5135c-.7169.7548-1.3555 1.5855-1.8939 2.481l-2.9112-1.0714-1.7883 4.8619 2.8516 1.0497c-.1623.8766-.257 1.783-.257 2.7083 0 .3193.0162.6358.0352.9497l-2.8977.7602 1.3149 5.0107 2.8327-.7413c.6142 1.3663 1.4313 2.6244 2.4161 3.7283l-1.764 2.2834 4.0989 3.1629 1.737-2.2457c1.3095.6926 2.738 1.1932 4.2423 1.461v2.8247h5.1811v-2.8247c1.434-.2543 2.7976-.7197 4.053-1.3636l1.7017 2.27 4.145-3.1033-1.7235-2.3051c.7332-.7982 1.3717-1.6775 1.9156-2.6244l2.7299 1.0038 1.7911-4.8592-2.7922-1.0281c.1245-.7711.1921-1.5584.1921-2.362zm-14.6046 7.7514c-4.383 0-7.9381-3.5551-7.9381-7.9381s3.5551-7.9354 7.9381-7.9354 7.9381 3.5524 7.9381 7.9354-3.5524 7.9381-7.9381 7.9381z" fill="#fff" stroke="#fff" stroke-miterlimit="10" stroke-width="2"/><path d="m22.2246 30.2646c0-5.6655 4.5941-10.2568 10.2568-10.2568z" fill="#fff"/><g stroke-miterlimit="10" stroke-width="2"><path d="m22.2246 30.2646c0-5.6655 4.5941-10.2568 10.2568-10.2568" stroke="#c4c4c4"/><path d="m22.4308 60.7583v9.3327h31.3924v-19.9611c14.1201-17.2606 7.733-34.7277 7.733-34.7277-7.4467-21.78813-39.1048-11.94186-39.1048-11.94186s-12.0392 1.99229-12.6738 16.24816c0 0-.63164 6.0241-2.85118 9.5069l-5.70237 8.5564s-1.584957 2.5354 5.07074 3.4858c0 0 2.3199.5283 2.21659 2.6416v10.7731s-1.90079 7.3404 6.81502 7.3936l17.4288-3.3796s3.958-.9533 4.2738-5.7052" stroke="#fff"/></g></svg>