<svg fill="none" height="104" viewBox="0 0 119 104" width="119" xmlns="http://www.w3.org/2000/svg"><path d="m78.0701 86.9239.9963.0853c.0239-.279-.0703-.5553-.2597-.7616s-.4566-.3237-.7366-.3237zm-1.3773 16.0761-.9963-.085c-.0347.404.1789.79.5405.975s.7992.133 1.1074-.131zm18.7164-16.0761v-1c-.2391 0-.4702.0856-.6516.2414zm-14.6905-46.7003-.2555-.9669-.8224.2174.0826.8467zm4.1721-1.1026.2555.9668.9623-.2543-.2498-.9635zm-1.8666-7.1996.968-.251-.2517-.9709-.9702.2547zm-4.2579 1.1178-.9032.429.3556.7487.8016-.2105zm-3.4506-5.1266-.7938-.6083-.5091.6645.5645.6181zm2.7292-3.5617.7938.6082.6039-.7881-.7837-.6095zm-5.8469-4.5474.6139-.7894-.7945-.6179-.6127.7985zm-2.7646 3.6023-.4568.8896.7422.3811.5079-.6619zm-5.7663-1.951h-1v.8365l.8234.1478zm0-4.5881h1v-1h-1zm-7.3907 0v-1h-1v1zm0 4.5881.1781.984.8219-.1487v-.8353zm-5.4938 1.8138-.8023.5969.498.6694.7477-.3699zm-2.7141-3.648.8023-.597-.6009-.8077-.8037.6064zm-5.9126 4.461-.6023-.7983-.7929.5983.5929.7969zm2.6839 3.6074.7263.6873.5775-.6102-.5015-.674zm-2.7041 3.5668-.3484.9373.7783.2893.4275-.7118zm-4.1418-1.5395.3485-.9374-.942-.3501-.3455.9437zm-2.5577 6.9862-.939-.3438-.3425.9353.9339.3462zm4.0712 1.509.9827.185.1561-.8293-.7913-.2933zm-.3128 5.2638.2545.9671.7978-.2099-.0545-.8232zm-4.1317 1.0874-.2545-.9671-.9644.2538.2511.965zm1.8716 7.1945-.9678.2517.2527.9714.9704-.2563zm4.0409-1.067.914-.4057-.3456-.7786-.8237.2174zm3.4457 5.3603.7936.6084.5005-.6528-.5441-.617zm-2.5124 3.2772-.7936-.6084-.6038.7877.7831.6098zm5.847 4.5525-.6143.789.795.6191.613-.7997zm2.477-3.2315.4707-.8822-.7483-.3993-.516.6732zm6.0488 2.1035h1v-.8363l-.8232-.1479zm0 4.0597h-1v1h1zm7.3907 0v1h1v-1zm0-4.0597-.1778-.984-.8222.1485v.8355zm5.7864-1.9612.8028-.5962-.5049-.6798-.7537.3859zm2.4266 3.267-.8028.5963.6011.8093.8044-.6076zm5.9125-4.4661.6028.798.7917-.5981-.5918-.7963zm-2.4618-3.3127-.7384-.6745-.5562.609.4919.662zm2.7343-3.77.3481-.9375-.796-.2955-.4207.7374zm3.8996 1.448-.3481.9375.9422.3498.3451-.9439zm2.5527-6.9811.9392.3434.3415-.934-.9321-.3467zm-3.9753-1.4786-.9895-.1449-.1171.8003.758.2819zm-6.3817-3.6531h-1v.0006zm-64.0695 26.9255h-.99995v.0568l.00643.0565zm5.3173 6.3666-.2439.9698.1201.0302h.1238zm95.8367-74.1365v-1h-103.49496v1 1h103.49496zm-103.49496 0v-1c-4.28664 0-7.75504 3.49742-7.75504 7.80336h1 1c0-3.21385 2.58541-5.80336 5.75504-5.80336zm-6.75504 6.80336h-1v72.31714h1 1v-72.31714zm0 72.31714h-1c0 4.3054 3.46287 7.8034 7.75504 7.8034v-1-1c-3.17418 0-5.75504-2.5891-5.75504-5.8034zm6.75504 6.8034v1h70.31506v-1-1h-70.31506zm70.31506 0-.9964-.0854-1.3772 16.0765.9963.085.9964.085 1.3772-16.0758zm-1.3773 16.0761.6516.759 18.7164-16.0766-.6516-.7585-.6516-.7586-18.7163 16.0757zm18.7164-16.0761v1h15.8358v-1-1h-15.8358zm15.8358 0v1c4.287 0 7.755-3.503 7.755-7.8034h-1-1c0 3.2093-2.586 5.8034-5.755 5.8034zm6.755-6.8034h1v-72.31714h-1-1v72.31714zm0-72.31714h1c0-4.30496-3.462-7.80336-7.75-7.80336v1 1c3.169 0 5.75 2.58853 5.75 5.80336zm-37.1905 34.30524h1c0-.6668-.0318-1.3293-.0955-1.9822l-.9953.0972-.9953.0972c.0573.5868.0861 1.1844.0861 1.7878zm-.0908-1.885.2555.9668 4.1721-1.1026-.2555-.9668-.2555-.9668-4.1721 1.1025zm4.1721-1.1026.968-.251-1.8666-7.1996-.968.251-.968.251 1.8666 7.1996zm-1.8666-7.1996-.2539-.9672-4.2579 1.1178.2539.9672.254.9672 4.2578-1.1178zm-4.2579 1.1178.9033-.429c-.9362-1.9712-2.1627-3.7811-3.6155-5.372l-.7384.6744-.7384.6743c1.3218 1.4475 2.4362 3.0927 3.2858 4.8813zm-3.4506-5.1266.7937.6082 2.7293-3.5617-.7938-.6082-.7937-.6083-2.7293 3.5617zm2.7292-3.5617.614-.7894-5.847-4.5474-.6139.7894-.614.7894 5.847 4.5473zm-5.8469-4.5474-.7933-.6088-2.7646 3.6023.7933.6088.7933.6088 2.7646-3.6023zm-2.7646 3.6023.4568-.8895c-1.8774-.9641-3.9088-1.6621-6.0464-2.0458l-.1767.9843-.1766.9843c1.9386.3479 3.7816.981 5.4861 1.8563zm-5.7663-1.951h1v-4.5881h-1-1v4.5881zm0-4.5881v-1h-7.3907v1 1h7.3907zm-7.3907 0h-1v4.5881h1 1v-4.5881zm0 4.5881-.178-.984c-2.0301.3673-3.9607 1.0118-5.7592 1.9015l.4434.8963.4434.8964c1.632-.8074 3.3841-1.3924 5.2285-1.7262zm-5.4938 1.8138.8023-.5969-2.7141-3.6481-.8023.597-.8023.5969 2.7141 3.648zm-2.7141-3.648-.6023-.7983-5.9126 4.461.6023.7983.6023.7983 5.9126-4.4611zm-5.9126 4.461-.8023.5969 2.6839 3.6074.8023-.5969.8023-.5969-2.6839-3.6074zm2.6839 3.6074-.7264-.6873c-1.0745 1.1355-2.0263 2.3926-2.835 3.7393l.8573.5148.8574.5148c.7351-1.2242 1.5994-2.3653 2.573-3.3943zm-2.7041 3.5668.3485-.9373-4.1418-1.5396-.3485.9374-.3484.9373 4.1418 1.5395zm-4.1418-1.5395-.939-.3438-2.5577 6.9862.939.3438.939.3438 2.5578-6.9862zm-2.5577 6.9862-.3476.9377 4.0712 1.509.3476-.9377.3475-.9376-4.0711-1.5091zm4.0712 1.509-.9828-.1849c-.2478 1.3172-.3855 2.6798-.3855 4.0769h1 1c0-1.2653.1247-2.5041.351-3.707zm-.3683 3.892h-1c0 .4916.0271.9758.0577 1.4379l.9978-.0661.9978-.066c-.0299-.4525-.0533-.8828-.0533-1.3058zm.0555 1.3718-.2545-.967-4.1317 1.0873.2545.9671.2545.967 4.1317-1.0873zm-4.1317 1.0874-.9678.2517 1.8716 7.1945.9678-.2517.9678-.2518-1.8716-7.1945zm1.8716 7.1945.2553.9668 4.0409-1.0669-.2553-.9669-.2553-.9669-4.0409 1.067zm4.0409-1.067-.914.4057c.9153 2.062 2.1418 3.9515 3.6097 5.6161l.75-.6615.75-.6614c-1.3371-1.5161-2.4514-3.234-3.2817-5.1046zm3.4457 5.3603-.7937-.6084-2.5123 3.2772.7936.6084.7937.6084 2.5123-3.2772zm-2.5124 3.2772-.6143.7891 5.847 4.5524.6143-.789.6144-.789-5.847-4.5525zm5.847 4.5525.7937.6084 2.477-3.2315-.7937-.6084-.7936-.6083-2.4771 3.2315zm2.477-3.2315-.4707.8823c1.9558 1.0435 4.0878 1.8003 6.3426 2.2055l.1769-.9843.1768-.9842c-2.0433-.3672-3.9775-1.0533-5.7549-2.0015zm6.0488 2.1035h-1v4.0597h1 1v-4.0597zm0 4.0597v1h7.3907v-1-1h-7.3907zm7.3907 0h1v-4.0597h-1-1v4.0597zm0-4.0597.1778.9841c2.1532-.389 4.1838-1.0922 6.0644-2.0552l-.4558-.8901-.4558-.8901c-1.7113.8763-3.5551 1.5144-5.5084 1.8673zm5.7864-1.9612-.8028.5963 2.4266 3.267.8028-.5963.8028-.5962-2.4266-3.267zm2.4266 3.267.6027.798 5.9126-4.4661-.6028-.798-.6027-.7979-5.9125 4.4661zm5.9125-4.4661.8027-.5964-2.4619-3.3128-.8026.5965-.8027.5965 2.4619 3.3127zm-2.4618-3.3127.7383.6744c1.0963-1.2002 2.0526-2.5258 2.8645-3.9489l-.8685-.4955-.8686-.4956c-.7419 1.3003-1.6119 2.505-2.6041 3.5911zm2.7343-3.77-.3481.9374 3.8996 1.4481.3481-.9375.3481-.9374-3.8996-1.4481zm3.8996 1.448.9392.3434 2.5527-6.9811-.9392-.3434-.9392-.3434-2.5527 6.9811zm2.5527-6.9811.3486-.9373-3.9753-1.4785-.3486.9372-.3486.9373 3.9753 1.4786zm-3.9753-1.4786.9894.1449c.167-1.1402.2729-2.3225.2729-3.5338h-1-1c0 1.0954-.0958 2.1791-.2518 3.244zm-20.5729 10.6344v-1c-7.2756 0-13.1861-5.9425-13.1861-13.2875h-1-1c0 8.4361 6.7925 15.2875 15.1861 15.2875zm-14.1861-14.2875h1c0-7.3451 5.9105-13.2875 13.1861-13.2875v-1-1c-8.3936 0-15.1861 6.8513-15.1861 15.2875zm14.1861-14.2875v1c7.2761 0 13.1912 5.9429 13.1912 13.2875h1 1c0-8.4367-6.798-15.2875-15.1912-15.2875zm14.1912 14.2875-1 .0006c.0047 7.3435-5.9145 13.2869-13.1912 13.2869v1 1c8.3926 0 15.1966-6.8504 15.1912-15.2882zm-64.0695-3.1697h-.99995v30.0952h.99995 1v-30.0952zm0 30.0952c-.99352.1133-.99346.1137-.99341.1142.00002.0002.00008.0007.00012.001.00008.0007.00018.0016.00028.0024.00021.0018.00046.0039.00075.0063.00058.0048.00133.0109.00227.0182.00187.0146.00448.0341.00794.0582.00691.0483.01724.1151.03188.1982.02927.1659.07599.398.14763.6774.14269.5566.38747 1.3141.79834 2.1171.824 1.61 2.35 3.4573 5.0776 4.1434l.2439-.9698.2439-.9698c-1.9994-.5029-3.132-1.8389-3.7849-3.1149-.3276-.6401-.5258-1.2513-.6415-1.7026-.0575-.2246-.0939-.4063-.1153-.5281-.0108-.0609-.0177-.1064-.0218-.1346-.002-.0141-.0033-.0238-.0039-.0289-.0004-.0025-.0005-.0039-.0005-.0041-.0001-.0001 0 .0001 0 .0007.0001.0002.0001.0006.0001.001.0001.0002.0001.0005.0001.0007.0001.0003.0001.0007-.9935.114zm5.3173 6.3666v1h33.1043v-1-1h-33.1043z" fill="#fff"/></svg>