<svg xmlns="http://www.w3.org/2000/svg" width="195" height="274" viewBox="0 0 195 274" fill="none">
<g filter="url(#filter0_d_828_55859)">
<path d="M65.5973 0H194.038H195V266H194.038H65.116C62.2287 266 51.1604 265.5 45.3857 255.5C39.6109 245.5 4 144 4 131.5C4 119 39.6109 23.5 44.9044 12.5C50.198 1.5 54.529 0 65.5973 0Z" fill="#038193"/>
</g>
<rect width="23" height="33.5181" transform="matrix(-1 0 0 1 36 115)" fill="#038193"/>
<path d="M22 125L26 131.759L22 138.518" stroke="#FDFDFD" stroke-width="2"/>
<path d="M151 133L52 190.158L52 75.8423L151 133Z" fill="white"/>
<path opacity="0.22" d="M68 196L167 138.842L167 253.158L68 196Z" fill="white"/>
<path opacity="0.56" d="M68.8535 70.5078L70.5605 69.5225L70.5605 69.5215L70.8105 69.9551L72.5176 68.9697L72.2676 68.5361L72.2666 68.5361L73.9736 67.5518L73.9736 67.5508L74.2236 67.9834L75.9307 66.998L75.6807 66.5664L77.3867 65.5801L77.3877 65.5801L77.6377 66.0127L79.3447 65.0273L79.0947 64.5947L79.0937 64.5947L80.8008 63.6094L80.8018 63.6094L81.0518 64.042L82.7588 63.0566L82.5088 62.624L84.2158 61.6387L84.2158 61.6377L84.4658 62.0713L86.1728 61.0859L85.9228 60.6523L85.9219 60.6523L87.6289 59.668L87.6289 59.667L87.8789 60.0996L89.5859 59.1143L89.3359 58.6826L91.042 57.6963L91.043 57.6963L91.293 58.1289L93 57.1436L92.75 56.7109L92.749 56.7109L94.4561 55.7256L94.457 55.7256L94.707 56.1582L96.4141 55.1729L96.1641 54.7402L97.8711 53.7549L97.8711 53.7539L98.1211 54.1875L99.8271 53.2021L99.5771 52.7695L101.284 51.7842L101.284 51.7832L101.534 52.2158L103.241 51.2305L102.991 50.7988L104.697 49.8125L104.698 49.8125L104.948 50.2451L106.655 49.2598L106.405 48.8271L106.404 48.8271L108.112 47.8418L108.362 48.2744L110.069 47.2891L109.819 46.8564L111.525 45.8711L111.775 46.3037L113.482 45.3184L113.232 44.8857L114.939 43.9004L114.939 43.8994L115.189 44.332L116.896 43.3467L116.646 42.915L118.353 41.9287L118.354 41.9287L118.604 42.3613L120.311 41.376L120.061 40.9434L120.06 40.9434L121.768 39.958L121.768 39.957L122.018 40.3906L123.725 39.4053L123.475 38.9727L125.181 37.9873L125.431 38.4199L127.138 37.4336L126.888 37.002L128.595 36.0166L128.595 36.0156L128.845 36.4482L130.552 35.4629L130.302 35.0312L132.008 34.0449L132.009 34.0449L132.259 34.4775L133.966 33.4922L133.716 33.0596L133.715 33.0596L135.423 32.0742L135.423 32.0732L135.673 32.5068L137.379 31.5215L137.129 31.0889L138.836 30.1035L139.086 30.5361L140.793 29.5498L140.543 29.1182L142.25 28.1328L142.25 28.1318L142.5 28.5644L144.207 27.5791L143.957 27.1475L145.663 26.1611L145.664 26.1611L145.914 26.5937L147.621 25.6084L147.371 25.1758L147.37 25.1758L149.077 24.1904L149.327 24.623L151.034 23.6377L150.784 23.2051L152.491 22.2197L152.741 22.6523L154.448 21.666L154.198 21.2344L155.905 20.249L155.905 20.248L156.155 20.6807L157.862 19.6953L157.612 19.2637L159.318 18.2773L159.319 18.2773L159.569 18.71L161.275 17.7246L161.025 17.292L162.732 16.3066L162.982 16.7393L164.689 15.7539L164.439 15.3213L166.146 14.3359L166.396 14.7686L166.5 14.709L166.5 14.8281L167 14.8281L167 16.7988L166.5 16.7988L166.5 18.7695L167 18.7695L167 20.7402L166.5 20.7402L166.5 22.7119L167 22.7119L167 24.6826L166.5 24.6826L166.5 26.6533L167 26.6533L167 28.624L166.5 28.624L166.5 30.5957L167 30.5957L167 32.5664L166.5 32.5664L166.5 34.5371L167 34.5371L167 36.5078L166.5 36.5078L166.5 38.4795L167 38.4795L167 40.4502L166.5 40.4502L166.5 42.4209L167 42.4209L167 44.3926L166.5 44.3926L166.5 46.3633L167 46.3633L167 48.334L166.5 48.334L166.5 50.3047L167 50.3047L167 52.2764L166.5 52.2764L166.5 54.2471L167 54.2471L167 56.2178L166.5 56.2178L166.5 58.1885L167 58.1885L167 60.1602L166.5 60.1602L166.5 62.1309L167 62.1309L167 64.1016L166.5 64.1016L166.5 66.0723L167 66.0723L167 68.0439L166.5 68.0439L166.5 70.0146L167 70.0146L167 71.9853L166.5 71.9853L166.5 73.9561L167 73.9561L167 75.9277L166.5 75.9277L166.5 77.8984L167 77.8984L167 79.8691L166.5 79.8691L166.5 81.8398L167 81.8398L167 83.8115L166.5 83.8115L166.5 85.7822L167 85.7822L167 87.7529L166.5 87.7529L166.5 89.7236L167 89.7236L167 91.6953L166.5 91.6953L166.5 93.666L167 93.666L167 95.6367L166.5 95.6367L166.5 97.6074L167 97.6074L167 99.5791L166.5 99.5791L166.5 101.55L167 101.55L167 103.521L166.5 103.521L166.5 105.491L167 105.491L167 107.463L166.5 107.463L166.5 109.434L167 109.434L167 111.404L166.5 111.404L166.5 113.376L167 113.376L167 115.347L166.5 115.347L166.5 117.317L167 117.317L167 119.288L166.5 119.288L166.5 121.26L167 121.26L167 123.23L166.5 123.23L166.5 125.201L167 125.201L167 127.172L166.5 127.172L166.5 127.292L166.396 127.232L166.146 127.665L164.439 126.68L164.689 126.246L162.982 125.261L162.732 125.694L161.026 124.709L161.276 124.275L159.569 123.29L159.319 123.723L159.318 123.724L157.612 122.737L157.862 122.305L156.155 121.319L155.905 121.752L154.198 120.767L154.448 120.334L152.741 119.348L152.491 119.781L150.784 118.796L151.034 118.362L149.327 117.377L149.077 117.811L147.37 116.825L147.371 116.824L147.621 116.392L145.914 115.406L145.664 115.839L145.663 115.84L143.957 114.854L144.207 114.421L142.5 113.436L142.25 113.868L140.543 112.883L140.793 112.45L139.086 111.464L138.836 111.897L137.129 110.912L137.379 110.479L135.673 109.493L135.423 109.927L133.715 108.941L133.716 108.94L133.966 108.508L132.259 107.522L132.009 107.955L132.008 107.956L130.302 106.97L130.552 106.537L128.845 105.552L128.595 105.984L126.888 104.999L127.138 104.566L125.431 103.58L125.181 104.014L123.475 103.028L123.725 102.595L122.018 101.609L121.768 102.043L120.06 101.058L120.061 101.057L120.311 100.624L118.604 99.6387L118.354 100.071L118.353 100.072L116.646 99.0859L116.896 98.6533L115.189 97.668L114.939 98.1006L113.232 97.1152L113.482 96.6826L111.775 95.6963L111.525 96.1299L109.819 95.1445L110.069 94.7109L108.362 93.7256L108.112 94.1592L106.404 93.1738L106.405 93.1728L106.655 92.7402L104.948 91.7549L104.698 92.1875L104.697 92.1885L102.991 91.2021L103.241 90.7695L101.534 89.7842L101.284 90.2168L99.5771 89.2314L99.8271 88.7979L98.1211 87.8125L97.8711 88.2461L96.1641 87.2607L96.4141 86.8271L94.707 85.8418L94.457 86.2744L94.4561 86.2754L92.749 85.29L92.75 85.2891L93 84.8564L91.293 83.8711L91.043 84.3037L91.042 84.3047L89.3359 83.3184L89.5859 82.8857L87.8789 81.9004L87.6289 82.333L85.9219 81.3486L85.9228 81.3477L86.1728 80.9141L84.4658 79.9287L84.2158 80.3623L82.5088 79.377L82.7588 78.9434L81.0518 77.958L80.8018 78.3906L80.8008 78.3916L79.0937 77.4062L79.0947 77.4053L79.3447 76.9727L77.6377 75.9873L77.3877 76.4199L77.3867 76.4209L75.6807 75.4346L75.9307 75.002L74.2246 74.0166L73.9746 74.4492L73.9736 74.4502L72.2666 73.4648L72.2676 73.4639L72.5176 73.0303L70.8105 72.0449L70.5605 72.4785L68.8535 71.4932L69.1035 71.0596L69 71L69.1035 70.9404L68.8535 70.5078Z" stroke="white" stroke-dasharray="2 2"/>
<path d="M74.5199 141.508C72.3223 142.758 70.1308 143.047 67.9452 142.375C65.7438 141.676 63.9471 140.103 62.5551 137.655C61.1632 135.207 60.7235 132.88 61.2362 130.674C61.7609 128.425 63.1359 126.667 65.3613 125.402C67.5867 124.136 69.7861 123.861 71.9597 124.576C74.1611 125.276 75.9499 126.835 77.326 129.255C78.718 131.703 79.1517 134.052 78.627 136.301C78.0865 138.523 76.7174 140.258 74.5199 141.508ZM85.0194 154.146L79.4281 157.325L82.8444 115.46L88.4356 112.281L85.0194 154.146ZM72.4794 137.92C73.3417 137.429 73.7581 136.64 73.7287 135.553C73.7112 134.421 73.3387 133.216 72.611 131.936C71.8518 130.601 71.0063 129.665 70.0747 129.127C69.1551 128.545 68.2641 128.5 67.4018 128.99C66.5395 129.481 66.117 130.291 66.1345 131.423C66.1362 132.526 66.5008 133.718 67.2284 134.997C67.9877 136.332 68.841 137.283 69.7885 137.848C70.7201 138.386 71.617 138.41 72.4794 137.92ZM102.484 144.657C100.286 145.906 98.0945 146.196 95.909 145.524C93.7076 144.825 91.9109 143.251 90.5189 140.803C89.1269 138.356 88.6873 136.029 89.2 133.823C89.7247 131.574 91.0997 129.816 93.3251 128.551C95.5504 127.285 97.7499 127.01 99.9235 127.725C102.125 128.424 103.914 129.984 105.29 132.404C106.682 134.852 107.115 137.201 106.591 139.45C106.05 141.672 104.681 143.407 102.484 144.657ZM100.443 141.068C101.305 140.578 101.722 139.789 101.692 138.701C101.675 137.57 101.302 136.365 100.575 135.085C99.8155 133.75 98.9701 132.814 98.0385 132.276C97.1189 131.694 96.2279 131.649 95.3656 132.139C94.4754 132.645 94.0312 133.45 94.0328 134.554C94.0623 135.641 94.4487 136.839 95.1922 138.146C95.9514 139.481 96.8048 140.432 97.7522 140.997C98.6838 141.535 99.5808 141.559 100.443 141.068Z" fill="#038193"/>
<path d="M100.212 192.391L101.537 193.155L100.78 194.467L99.4545 193.703L100.212 192.391ZM102.212 193.545L103.538 194.309L102.781 195.622L101.455 194.857L102.212 193.545ZM97.4666 192.556L96.6945 193.894C96.5196 194.197 96.4308 194.521 96.4282 194.866C96.4392 195.207 96.5296 195.531 96.6995 195.837C96.8744 196.134 97.1135 196.37 97.4167 196.545L101.769 199.056C102.116 199.256 102.473 199.306 102.842 199.207C103.211 199.108 103.495 198.886 103.695 198.539L104.73 196.746L106.068 197.518L104.861 199.61C104.711 199.87 104.67 200.141 104.739 200.423C104.821 200.701 104.991 200.915 105.251 201.065L105.836 201.402C105.923 201.452 105.941 201.52 105.891 201.607L105.224 202.763C105.174 202.85 105.106 202.868 105.019 202.818L104.434 202.481C104.062 202.266 103.78 201.994 103.589 201.664C103.407 201.34 103.314 200.98 103.311 200.586C102.942 200.766 102.554 200.848 102.147 200.832C101.74 200.817 101.342 200.697 100.952 200.472L96.5996 197.961C96.0539 197.646 95.6247 197.22 95.3118 196.681C95.0126 196.139 94.8569 195.559 94.8446 194.94C94.8459 194.317 95.004 193.733 95.3188 193.187L96.1283 191.784L97.4666 192.556ZM105.636 201.46C105.686 201.373 105.754 201.355 105.841 201.405L108.712 203.061C109.015 203.236 109.342 203.28 109.692 203.194C110.042 203.107 110.312 202.899 110.502 202.57C110.742 202.154 110.728 201.708 110.461 201.23L108.575 197.475L109.197 196.397L113.275 195.182L113.682 196.577L110.344 197.561L111.918 200.686C112.135 201.111 112.236 201.556 112.222 202.021C112.207 202.486 112.073 202.939 111.818 203.381C111.553 203.84 111.196 204.2 110.745 204.459C110.309 204.716 109.835 204.846 109.324 204.852C108.813 204.857 108.333 204.73 107.882 204.47L105.024 202.821C104.937 202.771 104.919 202.703 104.969 202.616L105.636 201.46ZM118.341 208.616C118.428 208.666 118.446 208.735 118.396 208.821L117.729 209.978C117.679 210.064 117.611 210.083 117.524 210.033L116.822 209.628C116.427 210.173 115.981 210.556 115.484 210.778C114.982 211.008 114.406 211.125 113.756 211.131C113.101 211.146 112.204 211.09 111.064 210.964L111.331 209.542C112.336 209.66 113.092 209.721 113.598 209.724C114.108 209.741 114.505 209.682 114.791 209.547C115.081 209.425 115.32 209.2 115.51 208.871L114.315 208.181C113.83 207.901 113.446 207.536 113.164 207.084C112.895 206.629 112.752 206.137 112.735 205.607C112.726 205.082 112.859 204.582 113.133 204.105C113.408 203.629 113.778 203.259 114.241 202.995C114.714 202.737 115.217 202.606 115.75 202.602C116.297 202.594 116.813 202.73 117.298 203.01C117.766 203.28 118.127 203.644 118.382 204.103C118.637 204.562 118.755 205.057 118.737 205.589C118.732 206.117 118.592 206.62 118.318 207.096L117.666 208.227L118.341 208.616ZM116.979 206.324C117.174 205.986 117.222 205.633 117.123 205.264C117.029 204.887 116.818 204.603 116.489 204.413C116.142 204.213 115.778 204.165 115.395 204.267C115.026 204.366 114.745 204.585 114.55 204.922C114.35 205.269 114.299 205.627 114.398 205.995C114.511 206.36 114.74 206.643 115.087 206.843L116.282 207.532L116.979 206.324ZM124.713 207.322C125.198 207.602 125.575 207.969 125.843 208.424C126.125 208.876 126.271 209.364 126.28 209.889C126.297 210.418 126.171 210.917 125.902 211.385C125.627 211.861 125.251 212.233 124.773 212.5C124.309 212.764 123.804 212.899 123.257 212.907C122.724 212.911 122.214 212.773 121.729 212.493C121.357 212.278 121.053 212.005 120.817 211.673C120.582 211.341 120.422 210.977 120.338 210.582C120.02 210.734 119.684 210.805 119.331 210.798C118.982 210.781 118.635 210.673 118.288 210.473L117.522 210.031C117.435 209.981 117.417 209.913 117.467 209.826L118.134 208.67C118.184 208.583 118.252 208.565 118.339 208.615L119.105 209.057C119.356 209.202 119.623 209.24 119.905 209.172C120.192 209.095 120.41 208.927 120.56 208.667L121.407 207.199L120.627 206.749L121.399 205.411L124.713 207.322ZM122.546 211.077C122.893 211.277 123.251 211.327 123.619 211.228C123.997 211.134 124.285 210.914 124.485 210.568C124.68 210.23 124.721 209.879 124.609 209.513C124.51 209.145 124.287 208.86 123.941 208.66L122.732 207.963L122.043 209.159C121.843 209.505 121.792 209.863 121.891 210.231C121.99 210.6 122.209 210.882 122.546 211.077ZM131.315 217.989C130.769 217.674 130.34 217.247 130.027 216.709C129.728 216.167 129.572 215.586 129.56 214.967C129.561 214.345 129.719 213.76 130.034 213.215L130.844 211.812L132.182 212.584L131.41 213.922C131.235 214.225 131.146 214.549 131.143 214.894C131.154 215.235 131.245 215.558 131.415 215.864C131.59 216.161 131.829 216.397 132.132 216.572L136.485 219.083C136.831 219.283 137.189 219.334 137.557 219.235C137.926 219.136 138.211 218.913 138.41 218.567L139.445 216.774L140.783 217.546L139.576 219.638C139.426 219.897 139.386 220.168 139.454 220.45C139.536 220.728 139.707 220.942 139.967 221.092L140.551 221.43C140.638 221.48 140.656 221.548 140.606 221.634L139.939 222.791C139.889 222.877 139.821 222.896 139.734 222.846L139.15 222.509C138.777 222.294 138.495 222.021 138.305 221.692C138.122 221.367 138.03 221.008 138.026 220.614C137.657 220.793 137.269 220.875 136.862 220.86C136.456 220.845 136.057 220.725 135.668 220.5L131.315 217.989ZM132.251 220.087L133.577 220.852L132.812 222.177L131.487 221.413L132.251 220.087ZM152.25 228.178C152.336 228.228 152.355 228.297 152.305 228.383L151.637 229.54C151.587 229.626 151.519 229.645 151.433 229.595L150.848 229.257C150.493 229.052 150.219 228.796 150.027 228.489C149.84 228.173 149.739 227.827 149.726 227.45C149.32 227.573 148.899 227.613 148.462 227.569C148.034 227.53 147.634 227.403 147.262 227.189L144.027 225.322C143.602 225.077 143.269 224.764 143.028 224.382C142.795 224.005 142.663 223.594 142.631 223.149C142.281 223.374 141.907 223.493 141.507 223.505C141.108 223.517 140.713 223.411 140.324 223.186L139.739 222.849C139.652 222.799 139.634 222.73 139.684 222.644L140.351 221.487C140.401 221.401 140.469 221.382 140.556 221.432L141.141 221.77C141.392 221.915 141.658 221.953 141.94 221.885C142.227 221.808 142.445 221.639 142.595 221.379L143.802 219.287L145.14 220.06L144.286 221.541L148.396 221.47C148.835 221.47 149.192 221.491 149.468 221.534C149.751 221.582 150.045 221.694 150.348 221.869C150.833 222.149 151.205 222.525 151.463 222.997C151.736 223.466 151.871 223.971 151.87 224.513C151.878 225.061 151.742 225.577 151.462 226.062L151.454 226.075L151.275 226.386C151.125 226.646 151.088 226.92 151.165 227.206C151.247 227.485 151.414 227.696 151.665 227.841L152.25 228.178ZM148.092 225.78C148.447 225.985 148.818 226.031 149.206 225.92C149.602 225.814 149.902 225.583 150.107 225.228C150.312 224.873 150.361 224.497 150.255 224.101C150.154 223.696 149.921 223.389 149.558 223.179C149.41 223.094 149.244 223.033 149.058 222.995C148.881 222.962 148.639 222.95 148.334 222.958L144.016 223.03C144.143 223.369 144.359 223.626 144.662 223.801L148.092 225.78ZM157.146 223.124L158.472 223.889L157.715 225.201L156.389 224.436L157.146 223.124ZM151.438 229.598C151.351 229.548 151.333 229.479 151.383 229.393L152.05 228.236C152.1 228.15 152.168 228.131 152.255 228.181L152.891 228.549C153.142 228.694 153.411 228.728 153.698 228.651C153.985 228.574 154.204 228.405 154.353 228.145L155.778 225.677L157.116 226.449L155.647 228.995C155.407 229.411 155.087 229.735 154.688 229.966C154.289 230.198 153.856 230.318 153.39 230.326C152.929 230.325 152.49 230.205 152.074 229.965L151.438 229.598Z" fill="white"/>
<path d="M100.498 73.8668C100.585 73.9161 100.604 73.9842 100.555 74.0713L99.8971 75.2331C99.8479 75.3201 99.7797 75.339 99.6927 75.2897L99.1053 74.9572C98.7136 74.7356 98.4172 74.4472 98.2161 74.092C98.0149 73.7369 97.9141 73.3466 97.9136 72.9211C97.1887 73.0854 96.4998 72.9828 95.8471 72.6133C95.3685 72.3424 94.9911 71.9737 94.7151 71.5072C94.444 71.0321 94.2999 70.5253 94.2828 69.9871C94.2793 69.4451 94.413 68.9347 94.684 68.4561C94.9499 67.9861 95.3113 67.6218 95.7679 67.3632C96.2332 67.1095 96.732 66.9896 97.2641 67.0036C97.8012 67.0088 98.3091 67.1469 98.7878 67.4178L100.002 68.1049L100.445 67.3217L101.777 68.0753L99.5083 72.0829C99.3606 72.344 99.322 72.6152 99.3926 72.8964C99.4769 73.1739 99.6495 73.3866 99.9106 73.5343L100.498 73.8668ZM99.2408 69.4495L98.0267 68.7624C97.6786 68.5653 97.3206 68.5178 96.9526 68.6198C96.5896 68.7131 96.312 68.9294 96.1199 69.2688C95.9229 69.6169 95.8754 69.975 95.9773 70.3429C96.0793 70.7109 96.3044 70.9934 96.6525 71.1904C97.0006 71.3875 97.3543 71.4325 97.7135 71.3256C98.0815 71.2236 98.364 70.9986 98.561 70.6505L99.2408 69.4495ZM99.6952 75.2912C99.6082 75.2419 99.5893 75.1738 99.6386 75.0867L100.296 73.9249C100.345 73.8379 100.414 73.819 100.501 73.8683L102.602 75.0578C102.689 75.1071 102.708 75.1752 102.659 75.2622L102.001 76.4241C101.952 76.5111 101.884 76.53 101.797 76.4807L99.6952 75.2912ZM107.324 70.4048L108.655 71.1584L107.902 72.49L106.57 71.7363L107.324 70.4048ZM102.4 75.1155C102.449 75.0284 102.517 75.0095 102.604 75.0588L103.257 75.4282C103.509 75.5711 103.776 75.6072 104.057 75.5366C104.343 75.4572 104.56 75.287 104.708 75.026L105.898 72.9243L107.242 73.6853L106.053 75.787C105.905 76.0481 105.871 76.3217 105.95 76.6079C106.034 76.8854 106.203 77.0956 106.455 77.2384L107.108 77.6078C107.195 77.6571 107.214 77.7252 107.164 77.8123L106.507 78.9741C106.458 79.0611 106.389 79.08 106.302 79.0307L105.65 78.6613C105.302 78.4643 105.03 78.213 104.835 77.9074C104.649 77.6068 104.543 77.2767 104.517 76.9171C104.204 77.0846 103.866 77.1635 103.504 77.1538C103.15 77.149 102.8 77.0481 102.451 76.8511L101.799 76.4817C101.712 76.4324 101.693 76.3643 101.742 76.2773L102.4 75.1155ZM106.299 79.0287C106.212 78.9795 106.193 78.9113 106.242 78.8243L106.9 77.6625C106.949 77.5754 107.017 77.5566 107.104 77.6058L109.806 79.1352C110.067 79.283 110.341 79.3172 110.627 79.2379C110.913 79.1586 111.13 78.9884 111.278 78.7273L112.682 76.247L114.014 77.0007L112.565 79.5593C112.329 79.977 112.012 80.3033 111.615 80.5381C111.218 80.7729 110.786 80.8962 110.32 80.9081C109.858 80.9112 109.419 80.7946 109.001 80.5581L106.299 79.0287ZM105.861 80.3496L107.193 81.1033L106.439 82.4348L105.108 81.6811L105.861 80.3496ZM107.872 81.4875L109.203 82.2411L108.45 83.5726L107.118 82.819L107.872 81.4875ZM118.015 76.4559L117.261 77.7874L115.93 77.0338L116.683 75.7023L118.015 76.4559ZM116.402 82.8683C116.489 82.9176 116.508 82.9857 116.459 83.0728L115.801 84.2346C115.752 84.3216 115.684 84.3405 115.597 84.2912L115.009 83.9588C114.652 83.7568 114.388 83.5036 114.215 83.1992C113.842 83.8383 113.437 84.31 113.001 84.6145C112.568 84.9325 112.051 85.1344 111.452 85.2199C110.86 85.3104 110.078 85.3217 109.106 85.2538L109.232 83.843C110.069 83.8457 110.682 83.819 111.07 83.7628C111.461 83.7203 111.8 83.5899 112.084 83.3717C112.372 83.1671 112.654 82.8211 112.93 82.3337L115.257 78.2217L116.602 78.9827L115.412 81.0844C115.265 81.3455 115.226 81.6167 115.297 81.898C115.381 82.1755 115.554 82.3881 115.815 82.5359L116.402 82.8683ZM125.444 83.0221C125.923 83.293 126.298 83.6549 126.57 84.1078C126.851 84.5655 126.999 85.0567 127.012 85.5814C127.034 86.1109 126.912 86.6106 126.646 87.0806C126.375 87.5592 126.004 87.9298 125.534 88.1922C125.073 88.4595 124.571 88.5949 124.029 88.5984C123.487 88.6019 122.981 88.4706 122.511 88.2046L115.592 84.2887C115.505 84.2394 115.486 84.1713 115.536 84.0843L116.193 82.9225C116.242 82.8354 116.311 82.8165 116.398 82.8658L117.964 83.7524C117.935 83.2762 118.041 82.8249 118.282 82.3985C118.528 81.9634 118.889 81.6214 119.363 81.3726L118.462 80.8628L119.23 79.5052L125.444 83.0221ZM119.688 83.1425C119.501 83.4732 119.458 83.8226 119.56 84.1905C119.662 84.5585 119.883 84.8385 120.222 85.0306C120.544 85.2129 120.889 85.253 121.257 85.151C121.625 85.0491 121.903 84.8327 122.09 84.502C122.277 84.1713 122.32 83.822 122.218 83.454C122.125 83.091 121.913 82.8159 121.582 82.6287C121.242 82.4366 120.889 82.3915 120.521 82.4935C120.153 82.5955 119.875 82.8118 119.688 83.1425ZM123.316 86.7817C123.656 86.9738 124.007 87.0232 124.37 86.9299C124.747 86.8329 125.031 86.6147 125.223 86.2752C125.415 85.9358 125.453 85.584 125.338 85.2199C125.236 84.8519 125.015 84.5719 124.676 84.3798L123.631 83.7887C123.632 84.2947 123.507 84.7697 123.256 85.2135C123.019 85.6313 122.704 85.9643 122.311 86.2128L123.316 86.7817ZM141.379 97.0052C141.466 97.0545 141.485 97.1226 141.436 97.2096L140.778 98.3715C140.729 98.4585 140.661 98.4774 140.574 98.4281L139.986 98.0956C139.308 97.7114 138.929 97.1412 138.852 96.3849C138.483 96.5092 138.095 96.5542 137.69 96.5199C137.298 96.4818 136.923 96.3618 136.566 96.1598L132.115 93.6404C131.567 93.33 131.134 92.907 130.817 92.3712C130.513 91.8317 130.352 91.2525 130.335 90.6336C130.331 90.011 130.484 89.4255 130.795 88.8772L131.585 87.4804L132.93 88.2415L132.176 89.573C132.004 89.8776 131.918 90.2023 131.918 90.5471C131.932 90.8881 132.025 91.2109 132.197 91.5153C132.375 91.811 132.616 92.0451 132.92 92.2175L137.385 94.7443C137.698 94.9217 138.025 94.9631 138.366 94.8687C138.715 94.7792 138.983 94.5691 139.171 94.2384C139.407 93.8206 139.394 93.3766 139.132 92.9064L137.202 89.1597L137.815 88.0763L141.883 86.8279L142.314 88.2271L138.971 89.2306L140.571 92.3423C140.791 92.7656 140.896 93.2098 140.886 93.675C140.88 94.1315 140.752 94.5817 140.5 95.0255L140.39 95.2213C140.242 95.4824 140.208 95.756 140.287 96.0422C140.371 96.3197 140.539 96.5299 140.792 96.6727L141.379 97.0052ZM149.804 101.773C149.891 101.823 149.91 101.891 149.86 101.978L149.203 103.14C149.154 103.227 149.086 103.246 148.998 103.196L148.411 102.864C148.063 102.667 147.792 102.416 147.597 102.11C147.402 101.804 147.291 101.472 147.265 101.112C146.869 101.244 146.452 101.29 146.015 101.249C145.592 101.205 145.189 101.075 144.806 100.858C144.432 100.646 144.126 100.375 143.888 100.045C143.649 99.7149 143.487 99.3528 143.399 98.9587C143.083 99.1126 142.747 99.1872 142.394 99.1824C142.045 99.169 141.697 99.0637 141.349 98.8667L140.579 98.4308C140.492 98.3815 140.473 98.3134 140.522 98.2263L141.18 97.0645C141.229 96.9775 141.297 96.9586 141.384 97.0079L142.154 97.4438C142.407 97.5866 142.673 97.6227 142.955 97.5521C143.241 97.4728 143.458 97.3026 143.606 97.0415L144.44 95.5664L143.657 95.1231L144.418 93.7785L147.747 95.6626C148.234 95.9384 148.614 96.3028 148.886 96.7556C149.172 97.2047 149.322 97.6916 149.335 98.2162C149.357 98.7457 149.235 99.2455 148.969 99.7154L148.814 99.9895C148.666 100.251 148.628 100.522 148.698 100.803C148.783 101.081 148.955 101.293 149.216 101.441L149.804 101.773ZM145.612 99.4352C145.96 99.6323 146.318 99.6798 146.686 99.5778C147.063 99.4808 147.349 99.2582 147.546 98.9101C147.739 98.5707 147.777 98.2189 147.661 97.8547C147.559 97.4867 147.334 97.2042 146.986 97.0072L145.772 96.32L145.092 97.521C144.895 97.8691 144.848 98.2272 144.95 98.5951C145.052 98.9631 145.272 99.2431 145.612 99.4352ZM149.593 101.827C149.643 101.74 149.711 101.721 149.798 101.77L152.683 103.403C152.987 103.575 153.314 103.617 153.664 103.527C154.013 103.438 154.281 103.228 154.469 102.897C154.705 102.479 154.688 102.033 154.417 101.558L152.5 97.8183L153.113 96.7348L157.181 95.4864L157.599 96.8782L154.269 97.8891L155.869 101.001C156.089 101.424 156.194 101.868 156.184 102.334C156.173 102.799 156.042 103.253 155.791 103.697C155.53 104.158 155.175 104.521 154.728 104.784C154.293 105.044 153.821 105.179 153.31 105.188C152.799 105.198 152.317 105.074 151.864 104.818L148.992 103.193C148.905 103.144 148.886 103.075 148.936 102.988L149.593 101.827Z" fill="white"/>
<defs>
<filter id="filter0_d_828_55859" x="0" y="0" width="199" height="274" filterUnits="userSpaceOnUse" color-interpolation-filters="sRGB">
<feFlood flood-opacity="0" result="BackgroundImageFix"/>
<feColorMatrix in="SourceAlpha" type="matrix" values="0 0 0 0 0 0 0 0 0 0 0 0 0 0 0 0 0 0 127 0" result="hardAlpha"/>
<feOffset dy="4"/>
<feGaussianBlur stdDeviation="2"/>
<feComposite in2="hardAlpha" operator="out"/>
<feColorMatrix type="matrix" values="0 0 0 0 0 0 0 0 0 0 0 0 0 0 0 0 0 0 0.25 0"/>
<feBlend mode="normal" in2="BackgroundImageFix" result="effect1_dropShadow_828_55859"/>
<feBlend mode="normal" in="SourceGraphic" in2="effect1_dropShadow_828_55859" result="shape"/>
</filter>
</defs>
</svg>