<svg width="175" height="176" viewBox="0 0 175 176" fill="none" xmlns="http://www.w3.org/2000/svg">
<path d="M172.309 45.966C172.325 46.9072 172.34 47.7518 172.355 48.5439V45.9219C172.34 45.9219 172.325 45.9513 172.309 45.9639V45.966Z" fill="#D80000"/>
<path d="M172.875 50.4431C172.888 50.6532 172.898 50.8591 172.913 51.1091V50.2834C172.9 50.378 172.888 50.3927 172.875 50.4431Z" fill="#D80000"/>
<path d="M172.681 49.9031C172.573 49.1111 172.468 48.0333 172.361 48.8064C172.439 52.7562 172.529 55.1681 172.681 57.5338V49.9052V49.9031Z" fill="#D80000"/>
<path d="M160.184 4.6655C159.771 4.61718 159.359 4.55835 158.947 4.51634C158.534 4.49953 158.12 4.48483 157.708 4.46802C156.854 4.47222 156.001 4.47432 155.157 4.47852C148.384 4.51214 141.935 4.57516 136.131 4.69912C144.34 4.70332 149.999 4.60878 157.885 4.61718C157.885 4.60248 157.918 4.59407 158.107 4.60037C158.202 4.60457 158.334 4.61298 158.523 4.62138C158.71 4.63819 158.954 4.63609 159.262 4.69702C159.023 4.6571 158.792 4.6529 158.563 4.6445C158.336 4.63609 158.112 4.62559 157.887 4.61718C157.878 4.62979 157.893 4.64659 157.832 4.6592C157.803 4.6655 157.752 4.66971 157.673 4.67391C157.589 4.68021 157.471 4.68652 157.307 4.69072C157.629 4.68231 157.929 4.69492 158.235 4.70542C158.389 4.70962 158.542 4.71593 158.697 4.72013C158.853 4.72433 159.008 4.72643 159.162 4.74954C159.472 4.78526 159.783 4.82308 160.098 4.8609C160.258 4.8735 160.411 4.91131 160.569 4.94283C160.726 4.97434 160.881 5.00796 161.039 5.03947C162.293 5.321 163.565 5.73279 164.754 6.37358C165.947 6.99966 167.079 7.78752 168.093 8.71825C169.105 9.65107 169.974 10.7415 170.695 11.9075C171.125 12.4832 171.455 13.0924 171.776 13.6429C170.405 10.4978 167.931 7.86106 164.941 6.27274C163.45 5.47437 161.833 4.93443 160.188 4.6676L160.184 4.6655Z" fill="#D80000"/>
<path d="M4.66538 89.771C4.70528 98.5341 4.86698 106.217 5.02238 113.989C4.89008 97.492 4.82498 80.571 4.64648 67.9841C4.65278 75.2156 4.65908 82.4723 4.66538 89.7731V89.771Z" fill="#D80000"/>
<path d="M5.63416 152.646C5.72026 141.801 5.60477 132.862 5.44727 124.33C5.48717 133.009 5.52497 141.635 5.56487 150.218C5.58797 151.022 5.61106 151.871 5.63416 152.646Z" fill="#D80000"/>
<path d="M5.34278 140.612C5.34488 130.687 5.18528 122.29 5.02148 113.987C5.09498 123.319 5.19368 132.45 5.34278 140.612Z" fill="#D80000"/>
<path d="M69.9269 1.60454C76.4495 1.47008 80.406 1.41125 82.653 1.39654C83.6484 1.33772 84.9651 1.25788 86.7501 1.15283H85.5888C78.8561 1.22847 72.027 1.30621 65.118 1.38184C62.2956 1.44067 59.6013 1.50369 57.3438 1.58143C61.5417 1.58983 65.7584 1.59824 69.929 1.60454H69.9269Z" fill="#D80000"/>
<path d="M82.6528 1.39636C74.1583 1.95102 91.4329 1.33754 82.6528 1.39636V1.39636Z" fill="#D80000"/>
<path d="M36.5703 4.34401C37.8996 4.33351 39.1617 4.323 40.4721 4.3125C40.1424 4.3125 39.8064 4.3125 39.4746 4.3125C38.5149 4.323 37.5279 4.33351 36.5724 4.34401H36.5703Z" fill="#D80000"/>
<path d="M2.65835 65.9946C2.56595 63.0932 2.47354 58.7484 2.47354 54.3826C2.44204 48.6533 2.40845 42.9156 2.37695 37.2725C2.42525 48.9033 2.47355 60.6309 2.61215 70.3478C2.62685 68.9023 2.64365 67.4443 2.65835 65.9946Z" fill="#D80000"/>
<path d="M174.213 90.893C174.199 85.0922 174.182 79.2957 174.167 73.495C174.121 69.146 173.842 76.3985 173.796 69.146C173.783 69.5368 173.766 69.9212 173.749 70.2532C173.808 75.7766 173.894 80.6424 173.796 82.1929C173.602 84.2098 173.499 73.7198 173.3 67.0639C173.264 66.8791 173.228 66.608 173.193 66.2383V64.1604C173.18 63.9146 173.168 63.7108 173.155 63.4902C173.09 63.7507 173.025 63.4398 172.96 62.9587V70.5872C172.808 68.2153 172.718 65.8181 172.641 61.8641C172.641 61.8725 172.636 61.8725 172.636 61.8809V61.5994C172.622 60.7989 172.607 59.9585 172.59 59.0236C172.231 75.8585 172.044 59.9585 171.523 53.7187C171.509 55.1894 171.507 56.9857 171.523 58.9879H171.385C171.292 72.039 171.105 80.7433 170.874 92.3447C170.828 95.2483 170.641 95.2483 170.641 99.6014C170.641 111.195 170.595 122.815 170.641 134.421C170.677 140.608 170.711 146.717 170.744 152.777C170.753 154.291 170.759 155.802 170.767 157.31V157.876C170.769 158.058 170.774 158.271 170.767 158.411L170.759 158.878C170.755 159.033 170.738 159.187 170.729 159.342C170.717 159.653 170.664 159.958 170.633 160.266C170.574 160.569 170.538 160.878 170.461 161.178C169.936 163.592 168.699 165.84 166.954 167.595C165.213 169.353 162.974 170.595 160.574 171.139C160.276 171.219 159.969 171.257 159.669 171.318C159.362 171.353 159.06 171.408 158.751 171.423C158.598 171.433 158.444 171.452 158.289 171.456L157.825 171.469C157.684 171.475 157.479 171.473 157.298 171.475H156.739L152.277 171.492C146.327 171.509 140.38 171.526 134.408 171.542C134.568 171.553 134.639 171.563 134.618 171.574C128.862 171.582 123.087 171.591 117.211 171.599C111.409 171.599 107.06 171.738 101.253 171.738C81.6874 171.761 62.5039 171.784 43.4254 171.807C38.6563 171.82 33.8914 171.832 29.1307 171.845L21.9907 171.866L20.2057 171.872H19.3132L18.5467 171.857C17.5303 171.805 16.5223 171.639 15.5437 171.364C13.5844 170.822 11.7574 169.811 10.2244 168.46C8.6914 167.109 7.46919 165.405 6.67119 163.525C6.27639 162.582 5.9866 161.594 5.8081 160.586C5.7157 160.082 5.6632 159.571 5.6254 159.058C5.6086 158.802 5.6086 158.544 5.5981 158.287L5.59389 157.395C5.58339 155.004 5.575 152.613 5.5645 150.216C5.4805 147.228 5.40699 144.016 5.34399 140.612C5.34399 142.915 5.3356 145.308 5.3146 147.804C4.5712 124.588 4.66569 83.9745 4.29399 60.7632C4.19949 54.1704 4.1218 47.3927 4.0567 40.4575C4.0294 36.9888 4 33.4823 3.9706 29.9401C3.958 28.169 3.9475 26.3874 3.9349 24.5994C3.9286 23.7044 3.9244 22.8094 3.9181 21.9102C3.916 21.4606 3.9139 21.011 3.9097 20.5614L3.9055 19.8849L3.916 19.2294C4.0126 15.7418 5.3671 12.2668 7.7233 9.59863C8.8972 8.26452 10.3042 7.12161 11.8729 6.25391C13.4437 5.39042 15.172 4.80005 16.957 4.52062C17.8558 4.37986 18.7462 4.33994 19.6744 4.33994C20.6068 4.33994 21.5434 4.33574 22.4779 4.33364C24.3511 4.32943 26.2285 4.32733 28.1122 4.32313C31.8775 4.31893 35.6659 4.31473 39.469 4.31262C54.4567 4.14665 69.9295 3.99748 85.6963 3.87983C71.3197 4.0479 56.542 4.18237 40.4686 4.31262C56.6554 4.32103 73.1425 4.33153 89.6464 4.33994C108.185 4.22649 125.92 4.2517 144.742 4.17186C149.095 4.12564 153.444 4.12564 156.351 4.0332C157.38 3.97017 158.405 3.90924 159.408 3.95967C159.908 3.99958 160.41 4.01009 160.889 4.10043C161.13 4.13615 161.37 4.17396 161.605 4.20968C161.842 4.24119 162.067 4.31263 162.296 4.36095L161.773 4.20338L161.24 4.08782L160.704 3.97437L160.437 3.91764L160.167 3.88403L159.081 3.74957L157.989 3.70755C156.542 3.68864 155.114 3.71805 153.701 3.72226C150.876 3.74747 148.138 3.77268 145.611 3.79579C146.271 3.77898 146.195 3.74116 146.202 3.71385C138.301 3.72436 132.64 3.8042 124.45 3.8042C130.254 3.68024 136.701 3.61931 143.469 3.58359C146.855 3.57309 150.32 3.56049 153.827 3.54788C154.702 3.54788 155.582 3.54368 156.462 3.54158C156.903 3.54158 157.342 3.53527 157.787 3.54367C158.237 3.56468 158.688 3.57519 159.14 3.6046C160.941 3.75797 162.722 4.22228 164.375 4.96812C164.726 5.10889 165.057 5.24545 165.372 5.37151C165.532 5.43033 165.681 5.50177 165.824 5.5753C165.967 5.64463 166.107 5.71186 166.24 5.77699C164.621 4.78114 162.825 4.06891 160.958 3.68864C160.496 3.57099 160.019 3.52897 159.547 3.46384C159.074 3.384 158.598 3.39031 158.121 3.363C157.638 3.33358 157.187 3.34619 156.723 3.34198H155.339C151.645 3.34198 147.944 3.33989 144.242 3.33778C136.835 3.35249 129.418 3.36509 122.009 3.3798C107.194 3.42602 92.4226 3.50796 77.8864 3.61721C72.6196 3.67393 67.2751 3.73066 61.8634 3.78739C64.5346 3.80419 67.2205 3.82101 69.9316 3.83781H61.2229C59.8369 3.83781 58.4614 3.83781 57.0565 3.83571C47.9929 3.91555 38.6542 3.99538 28.7527 4.08152C36.6571 3.99958 44.7106 3.91555 52.8754 3.82941C44.6707 3.8147 36.2791 3.80209 27.9274 3.78739C25.84 3.78739 23.7547 3.78739 21.6757 3.78949C21.1549 3.78949 20.6362 3.78949 20.1175 3.79159H19.3384L18.5572 3.8126C17.5156 3.86302 16.4824 4.01429 15.4765 4.26431C13.4626 4.76433 11.5621 5.66354 9.91359 6.87789C8.26299 8.09224 6.8644 9.61753 5.8102 11.3298C5.2558 12.2416 4.7686 13.2438 4.3843 14.3216C4.0021 15.3994 3.72909 16.5507 3.58629 17.7461C3.43089 18.9395 3.475 20.1727 3.4834 21.4312C3.4939 22.6876 3.50649 23.9629 3.51909 25.2507C3.57159 30.4002 3.62619 35.7366 3.67659 40.7453C3.69339 40.9596 3.71229 41.1592 3.73119 41.3399C3.72699 42.1046 3.7249 42.8567 3.7207 43.6152C3.7585 44.901 3.79839 46.275 3.82359 47.1301C3.92439 57.5991 4.0483 68.0808 4.1092 79.0919C4.1218 80.031 4.13439 80.9828 4.14909 81.945C4.19529 84.8527 4.14909 89.2017 4.14909 92.1052C4.14909 87.6596 4.1344 83.338 4.1092 79.0919C3.9307 66.7404 3.6724 57.2357 3.7207 43.6131C3.6997 42.737 3.685 41.9155 3.685 41.3378C3.6829 41.1424 3.68079 40.9428 3.67659 40.7432C3.40779 37.2346 3.3994 27.7614 3.412 19.5761C3.3574 20.303 3.3343 19.5761 3.3826 18.6663C3.4015 18.2104 3.46659 17.7146 3.50859 17.328C3.56739 16.9457 3.601 16.6725 3.5779 16.6683C3.9559 14.5107 4.798 12.4286 6.0076 10.6113C7.2151 8.78976 8.7859 7.23295 10.5625 6.05432C12.337 4.87148 14.3152 4.06891 16.3081 3.66343C17.3035 3.45964 18.3031 3.35249 19.2859 3.32938C20.2351 3.31047 21.1654 3.29156 22.0726 3.27475C33.6688 3.08987 45.2734 3.18231 55.4185 2.90289C58.3249 2.81044 64.1272 2.85666 68.4742 2.81044C70.3054 2.77263 72.2962 2.73271 74.3311 2.69069C72.1933 2.67388 70.045 2.65497 67.903 2.63816C66.4582 2.59194 104.712 2.34823 103.271 2.16125C103.271 2.16125 103.24 2.15915 103.181 2.15705C103.12 2.15705 103.032 2.15705 102.914 2.15495C102.679 2.15495 102.332 2.15495 101.881 2.15495C100.98 2.15915 99.6697 2.16335 98.0275 2.16755C94.741 2.18436 90.1273 2.20537 84.8164 2.23058C74.1946 2.281 60.7819 2.33983 49.6204 2.34613C45.2734 2.20747 53.392 1.66122 56.3068 1.615C56.626 1.60449 56.9977 1.59189 57.3484 1.57929C54.022 1.56878 50.6893 1.56037 47.3986 1.54987C42.1612 1.59399 36.8881 1.63811 31.6066 1.68223C29.4793 1.69904 27.3478 1.71584 25.21 1.73265C24.1411 1.74106 23.0722 1.74946 22.0012 1.75786L20.3947 1.77047C19.8487 1.77677 19.3594 1.77047 18.721 1.79568C16.2997 1.88392 13.8868 2.47219 11.6923 3.51636C9.4957 4.55843 7.5175 6.04802 5.9173 7.87375C7.612 5.90725 9.7561 4.31473 12.1333 3.23274C13.2589 2.7138 14.5 2.29571 15.7831 2.02469C16.4278 1.89233 17.083 1.78308 17.7508 1.72215C18.0847 1.69064 18.4207 1.65912 18.7588 1.65281L19.267 1.63391L19.7185 1.6276C20.9197 1.615 22.1419 1.60029 23.383 1.58769C25.8673 1.57298 28.4293 1.55827 31.0522 1.54146C36.3001 1.52466 41.7937 1.53306 47.3944 1.54777C53.3479 1.49104 59.2594 1.43432 65.1184 1.37969C65.278 1.37549 65.4145 1.37339 65.5678 1.36919C58.0981 1.35238 50.4793 1.33347 43.0411 1.31667C36.2224 1.37339 29.3407 1.43011 22.417 1.48894C21.5518 1.49524 20.6845 1.50155 19.8172 1.50995H19.4917C19.3825 1.51415 19.2796 1.51416 19.1494 1.51836L18.4039 1.54146C17.9083 1.57718 17.4106 1.6129 16.9171 1.68643C14.941 1.94905 13.009 2.55623 11.2261 3.44703C9.44109 4.33994 7.81569 5.53748 6.40869 6.95142C5.19069 8.19729 4.1428 9.61124 3.3175 11.1512C4.4284 9.03978 5.9383 7.14261 7.78 5.60051C8.8699 4.68449 10.0984 3.85882 11.4508 3.19702C12.8053 2.54152 14.2711 2.01418 15.8209 1.71374C16.0141 1.67803 16.2094 1.64021 16.4026 1.6045C16.5979 1.56878 16.7953 1.54777 16.9927 1.51836C17.3875 1.45743 17.7844 1.43011 18.1855 1.3965C18.385 1.37549 18.5866 1.37759 18.7882 1.36709L19.0906 1.35658L19.3804 1.35028C19.7311 1.34818 20.0818 1.34398 20.4367 1.34188C21.85 1.33347 23.2864 1.32507 24.7459 1.31667C30.5776 1.29146 36.7432 1.29986 43.039 1.31667C56.0254 1.20111 68.8123 1.07295 81.2233 0.91748C72.7897 0.91748 63.1759 0.917481 54.8452 0.963702C46.4599 1.02463 38.2468 1.08346 30.1576 1.14228C28.1353 1.15699 26.1214 1.1717 24.1138 1.18851C23.11 1.19691 22.1083 1.20322 21.1087 1.21162C20.6089 1.21582 20.1091 1.22002 19.6093 1.22212L19.225 1.22632L18.7903 1.23893L18.3556 1.25363L17.9209 1.28725C15.6046 1.46793 13.3261 2.09192 11.2534 3.10878C9.18069 4.12564 7.3138 5.52908 5.7682 7.21404C4.2205 8.89691 2.992 10.8634 2.1625 12.9833C1.3351 15.101 0.898298 17.3722 0.900398 19.6265C0.929798 23.549 0.959195 27.4588 0.988595 31.3624C1.05159 39.1528 1.1125 46.9158 1.1755 54.7019C1.2847 58.4668 1.3729 62.2233 1.4044 65.9925C1.4968 74.6904 1.4968 84.8506 1.543 93.557C1.5892 92.8301 1.61229 93.557 1.62909 94.4667C1.63749 94.9205 1.6459 95.4205 1.6522 95.8071C1.6564 96.0004 1.6627 96.1643 1.6648 96.2819C1.669 96.3975 1.6753 96.4668 1.6795 96.4668C1.8643 105.169 1.8181 115.319 1.8181 125.479C1.8181 126.924 1.77189 126.924 1.73409 128.416C1.95249 135.303 2.047 143.339 2.0848 151.886C2.0911 154.027 2.0995 156.197 2.1058 158.392C2.1226 160.752 2.6329 163.139 3.622 165.328C4.609 167.515 6.05589 169.511 7.86399 171.112C9.66579 172.719 11.8099 173.946 14.1094 174.675C15.277 175.043 16.4866 175.278 17.7088 175.387C18.0154 175.406 18.3199 175.444 18.6286 175.444C18.931 175.45 19.2565 175.463 19.5316 175.459C20.1028 175.459 20.674 175.459 21.2473 175.459C23.5384 175.463 25.8463 175.465 28.1752 175.469C25.9282 175.471 23.6497 175.473 21.3523 175.475C20.7769 175.475 20.2015 175.475 19.6261 175.475C19.3468 175.477 19.0318 175.469 18.7189 175.461C18.4081 175.461 18.0973 175.427 17.7865 175.406C16.5433 175.297 15.3064 175.059 14.1115 174.677C12.7801 174.255 11.5012 173.681 10.3147 172.963C9.1324 172.238 8.032 171.381 7.0534 170.404C6.0811 169.422 5.2159 168.336 4.4977 167.16C3.7837 165.981 3.20619 164.721 2.78409 163.41C2.37039 162.096 2.1121 160.735 2.0134 159.365C1.9819 159.023 1.984 158.68 1.9693 158.336L1.95879 157.382L1.942 155.487C1.9168 152.961 1.89159 150.44 1.86639 147.917C1.88529 151.003 1.9042 154.069 1.92099 157.119L1.9273 158.262C1.9441 158.674 1.9399 159.09 1.9819 159.502C2.0344 160.327 2.1709 161.147 2.3431 161.956C2.5153 162.765 2.76729 163.552 3.04869 164.328C3.34059 165.099 3.69339 165.845 4.08399 166.567C5.66949 169.448 8.0824 171.839 10.9426 173.397C12.3727 174.177 13.9078 174.759 15.4954 175.103C15.8902 175.202 16.2934 175.255 16.6924 175.326C17.0956 175.372 17.4967 175.435 17.902 175.456C18.3052 175.492 18.7105 175.501 19.1158 175.507C19.5148 175.513 19.8718 175.507 20.2519 175.507C32.2261 175.473 44.1562 175.44 56.3089 175.406C79.5055 175.36 101.251 175.175 123.001 174.988C131.871 174.916 140.746 174.927 149.604 174.956C148.852 174.988 148.117 175.017 147.413 175.047C150.166 175.053 152.894 175.059 155.614 175.066C156.294 175.066 156.972 175.066 157.653 175.066C158.365 175.055 159.083 175.028 159.791 174.929C160.503 174.849 161.204 174.698 161.899 174.53C162.588 174.339 163.277 174.131 163.936 173.853C165.27 173.326 166.521 172.601 167.678 171.75C168.823 170.883 169.879 169.883 170.774 168.744C172.588 166.487 173.789 163.714 174.224 160.792L174.321 159.995L174.377 159.197C174.39 158.93 174.39 158.663 174.396 158.395C174.4 158.128 174.396 157.88 174.396 157.621C174.258 134.418 174.211 114.51 174.211 90.8888L174.213 90.893ZM2.18139 19.6139C2.19189 19.3092 2.1835 19.0046 2.2129 18.7C2.2507 18.0907 2.3158 17.4835 2.4208 16.8847C2.551 16.036 2.7568 15.1998 3.0172 14.3888C3.2713 13.5736 3.5947 12.7858 3.9685 12.0315C4.3759 11.208 4.83579 10.4432 5.34399 9.74359C5.85219 9.04398 6.3835 8.39058 6.9631 7.80862C7.5385 7.22455 8.1349 6.68251 8.7649 6.20769C9.3907 5.72657 10.0375 5.29377 10.7095 4.9198C9.6427 5.54379 8.63679 6.28332 7.71909 7.12581C6.80559 7.97249 5.9782 8.91792 5.2621 9.94528C3.8194 11.9958 2.8408 14.3888 2.4208 16.8847C2.2843 17.7461 2.2024 18.6201 2.2045 19.5004L2.2003 19.8303L2.2045 20.1391L2.2129 20.7568C2.2171 21.1686 2.2234 21.5825 2.2276 21.9964C2.2465 23.654 2.2654 25.3264 2.2822 27.0113C2.3137 30.3834 2.3452 33.8121 2.3767 37.2745C2.362 34.1357 2.3494 31.0053 2.3347 27.9232C2.3263 26.3832 2.3179 24.8537 2.3095 23.341C2.3053 22.5846 2.3011 21.8325 2.2948 21.0866C2.2927 20.7127 2.2906 20.3408 2.2885 19.971C2.2906 19.595 2.29269 19.1874 2.31369 18.7987C2.46909 15.6536 3.53379 12.6702 5.14659 10.2352C6.76989 7.79811 8.9266 5.90305 11.2219 4.63617C11.1568 4.66769 11.0917 4.7034 11.0266 4.73912C11.3269 4.57104 11.6314 4.41347 11.9359 4.2622C11.7007 4.37566 11.4529 4.51432 11.2219 4.63617C13.2652 3.57309 15.4807 2.9386 17.8306 2.76632C18.1246 2.74742 18.4207 2.7222 18.7189 2.7243C19.0171 2.7201 19.3237 2.7138 19.5967 2.7201C20.1616 2.72641 20.7328 2.73271 21.3166 2.73901C22.4842 2.74742 23.6959 2.75792 24.9685 2.76632L26.4133 2.7201V2.85877C24.7816 2.89869 23.1058 2.9323 21.3922 2.95541C20.9638 2.96171 20.5333 2.96801 20.1007 2.97221C19.6681 2.97852 19.2397 2.97852 18.7693 2.99953C17.8474 3.03945 16.9192 3.14029 16.0015 3.33358C14.1661 3.71805 12.358 4.39876 10.7116 5.39462C9.06309 6.38627 7.5658 7.66785 6.3226 9.17844C5.0815 10.6911 4.1008 12.4328 3.4498 14.2943C3.1264 15.225 2.8744 16.1851 2.7253 17.16C2.6539 17.6474 2.5888 18.1369 2.5594 18.6285C2.5363 18.8743 2.52789 19.1202 2.52369 19.366C2.51739 19.6118 2.5111 19.8618 2.5132 20.0908C2.5153 23.8305 2.52789 27.5492 2.56149 31.1775C2.74629 50.0357 2.7946 70.3435 3.118 89.1975C3.1642 92.101 3.118 96.4605 3.118 99.3535C2.9395 89.1975 2.7862 80.4954 2.6077 70.3414C2.4628 62.1288 2.3704 53.3447 2.3053 44.3463C2.278 39.8461 2.2507 35.2954 2.2234 30.7342C2.2129 28.4526 2.2024 26.171 2.1919 23.8914C2.1877 22.7527 2.1814 21.614 2.1772 20.4753V20.0488C2.173 19.908 2.173 19.7652 2.1772 19.6076L2.18139 19.6139ZM31.0816 175.236C27.4738 175.236 23.7085 175.232 19.8508 175.23C19.6051 175.23 19.3783 175.234 19.1158 175.227C18.8596 175.219 18.6013 175.219 18.343 175.206L17.5702 175.15L16.7995 175.055C15.7726 174.904 14.7541 174.66 13.7629 174.322C11.7805 173.647 9.9094 172.593 8.2882 171.225C6.6649 169.862 5.2936 168.185 4.273 166.313C3.2482 164.443 2.5867 162.374 2.3284 160.264C2.2864 160.002 2.27379 159.737 2.24859 159.472C2.22129 159.208 2.2129 158.943 2.2045 158.678L2.1919 158.281L2.1877 157.909L2.18139 157.17C2.17089 156.184 2.1604 155.201 2.1499 154.224C2.1268 152.268 2.1037 150.331 2.0806 148.419C2.3473 145.898 2.4838 149.106 2.5573 155.56C2.5657 156.367 2.572 157.224 2.5825 158.128C2.5909 159.061 2.6623 160.065 2.8408 161.084C3.1936 163.126 3.97479 165.279 5.26629 167.273C5.91099 168.269 6.67539 169.229 7.56159 170.103C8.44989 170.977 9.45369 171.773 10.5562 172.456C12.7612 173.816 15.3799 174.698 18.1078 174.879C18.448 174.912 18.7903 174.91 19.1326 174.921C19.4728 174.927 19.7941 174.921 20.1259 174.925C20.7853 174.925 21.4468 174.925 22.1104 174.925C23.4376 174.925 24.7711 174.925 26.1067 174.923C28.7779 174.919 31.4575 174.916 34.1098 174.912C39.4102 174.891 44.593 174.87 49.3453 174.851C58.8499 174.786 66.6388 174.658 70.2298 174.404C76.0321 174.961 42.6946 175.24 31.0816 175.24V175.236ZM145.637 172.032C142.73 172.078 139.839 172.217 138.383 172.217C132.577 172.309 125.336 172.309 118.085 172.355C112.287 172.448 105.027 172.355 97.7797 172.402C97.0531 172.402 96.3286 172.425 95.7868 172.454C95.2429 172.484 94.8817 172.517 94.8817 172.542C84.7366 172.45 78.9343 172.727 68.7787 172.681L73.1362 172.773C67.3297 172.82 62.9848 172.912 55.7314 172.958C49.9249 172.958 45.5863 173.143 41.2351 173.143C33.9859 173.181 26.7346 173.219 19.8445 173.255H19.204L18.5992 173.244C18.1981 173.221 17.797 173.202 17.4001 173.147C16.6063 173.055 15.8251 172.904 15.0691 172.683C13.5529 172.259 12.1354 171.586 10.8628 170.757C8.3176 169.076 6.415 166.706 5.2873 164.183C5.6023 164.802 6.08109 165.723 6.66909 166.574C7.24659 167.431 7.927 168.212 8.4226 168.687C9.8905 170.114 11.9716 171.565 14.5819 172.383C14.9032 172.494 15.2413 172.57 15.5773 172.664C15.9196 172.734 16.2598 172.822 16.6147 172.872C17.3161 172.998 18.0427 173.059 18.7819 173.078C18.9688 173.08 19.1557 173.082 19.3426 173.084C19.5421 173.084 19.7437 173.08 19.9453 173.078C20.3485 173.074 20.7559 173.07 21.1654 173.068C21.9844 173.061 22.8139 173.055 23.6518 173.047C30.3592 172.994 37.6105 172.96 44.1394 172.866C48.4822 172.805 52.8418 172.742 57.1867 172.681C77.4811 172.496 97.7818 172.309 119.542 172.217C128.24 172.171 138.385 172.078 147.094 171.984C150.015 171.952 152.94 171.948 155.819 171.95C155.95 171.96 156.095 171.973 156.254 171.988C152.718 172.002 149.175 172.017 145.639 172.032H145.637ZM170.612 162.817C170.631 162.754 170.65 162.695 170.667 162.638C170.673 162.641 170.683 162.63 170.692 162.628C170.664 162.691 170.637 162.756 170.612 162.817ZM172.351 123.865C172.288 111.709 172.174 98.635 172.216 88.0021C172.227 88.0021 172.239 88.0462 172.252 88.1176C172.323 100.791 172.431 113.903 172.351 123.865ZM172.462 94.4919C172.439 92.9561 172.418 91.4182 172.395 89.9286C172.449 91.0085 172.493 92.3973 172.493 93.8028C172.483 94.0234 172.472 94.2524 172.462 94.4919Z" fill="#D80000"/>
<path d="M6.90511 9.63419C7.73671 8.62993 8.68382 7.72652 9.72122 6.94496C10.7649 6.17391 11.8947 5.52052 13.0854 5.01629C14.2782 4.51836 15.5298 4.1633 16.8024 3.9574C17.1216 3.91538 17.4408 3.86707 17.7621 3.83765C18.0834 3.81664 18.4047 3.77672 18.726 3.77672C19.3728 3.75151 20.007 3.76412 20.6454 3.75991C23.199 3.75571 25.7463 3.75151 28.2915 3.74731C38.4702 3.7326 48.6132 3.7284 58.9368 3.77042C65.2011 3.7179 71.5137 3.66537 77.8809 3.61285C82.7928 3.54982 87.6711 3.48889 92.5473 3.42797C104.186 3.30401 116.804 3.26199 129.638 3.23888C136.055 3.22838 142.525 3.21787 148.955 3.20737C150.562 3.20317 152.168 3.20106 153.769 3.19686C154.569 3.19686 155.369 3.19266 156.167 3.19056H157.364L157.662 3.18636L157.973 3.19686L158.594 3.22207C161.906 3.39645 165.159 4.55828 167.753 6.55419C167.841 6.59831 167.921 6.63402 167.992 6.66554C168.059 6.70125 168.118 6.72856 168.168 6.74747C168.269 6.78739 168.332 6.7958 168.355 6.77059C168.378 6.74537 168.359 6.68235 168.294 6.5815C168.231 6.47645 168.116 6.34199 167.939 6.17391C165.052 3.95951 161.421 2.70944 157.771 2.69683L147.582 2.68213C140.795 2.69263 134.008 2.70314 127.22 2.71364C113.646 2.74726 100.076 2.78927 86.5056 2.75146C86.2956 2.75566 86.0793 2.76196 85.8693 2.76617C74.2605 3.04559 55.4109 2.95105 40.9125 3.18425C33.6612 3.32502 26.4162 3.41326 19.1607 3.5057C17.3064 3.54142 15.4605 3.89648 13.728 4.54567C11.9997 5.20327 10.389 6.15501 8.98202 7.34205C7.57922 8.53539 6.38641 9.96614 5.46241 11.5482C4.53841 13.1323 3.90631 14.8761 3.57031 16.6682C3.82861 15.374 4.25282 14.1218 4.80932 12.9348C5.37212 11.7519 6.08401 10.6447 6.90511 9.63208V9.63419Z" fill="#D80000"/>
<path d="M5.44722 124.33C5.41782 118.649 5.39051 112.938 5.36111 107.18C5.25191 91.1598 5.11121 76.9405 4.94531 62.3977C4.95791 73.0685 4.97051 83.798 4.98521 94.6095C5.03561 105.438 5.2687 114.609 5.4493 124.328L5.44722 124.33Z" fill="#D80000"/>
<path d="M4.52668 24.715L4.51408 21.1287L4.50988 20.2316V19.7862L4.51827 19.3702C4.52667 18.8155 4.57918 18.263 4.65268 17.7125C4.89418 15.9099 5.49688 14.164 6.37888 12.5715C5.82028 13.5863 5.37298 14.6619 5.07268 15.7797C4.86688 16.5276 4.71357 17.2923 4.63587 18.0655C4.60857 18.2588 4.59597 18.4521 4.58337 18.6454C4.57287 18.8386 4.54978 19.0319 4.55188 19.2273L4.54138 19.8093L4.54557 20.4375L4.62538 30.4947C4.68418 37.1989 4.74298 43.9009 4.80178 50.6009C4.85008 54.5885 4.89628 58.4942 4.94248 62.3956C4.91938 54.4876 4.89838 46.6091 4.87528 38.7494C4.86058 34.8206 4.84797 30.8939 4.83327 26.9735C4.82697 25.0133 4.81858 23.0532 4.81228 21.093V20.3576C4.81228 20.1181 4.80388 19.8534 4.81228 19.6412C4.82068 19.4185 4.81647 19.1958 4.83117 18.9731L4.87948 18.3071C4.96768 17.4205 5.13988 16.5444 5.38978 15.6893C5.79088 14.2817 6.41878 12.9392 7.22518 11.7122C7.63468 11.1029 8.08618 10.521 8.57758 9.97261C9.06898 9.42636 9.61078 8.92423 10.1778 8.45572C12.4563 6.58797 15.3144 5.43875 18.2649 5.22025C18.4497 5.20134 18.6345 5.19084 18.8193 5.18874C19.0083 5.18454 19.1826 5.17403 19.3821 5.17193L20.5896 5.16353L23.0025 5.14672L27.8304 5.1131L37.4862 5.04167C50.3613 4.93452 63.2343 4.82737 76.1052 4.72233C79.0305 4.70132 81.9327 4.6803 84.8181 4.65929C72.8418 4.64879 60.8739 4.64039 49.0236 4.62988C43.0995 4.62988 37.2027 4.63198 31.3521 4.63408C28.4268 4.63828 25.5099 4.64039 22.6077 4.64459C21.8811 4.64459 21.1566 4.64669 20.4321 4.64879H19.3464C18.9957 4.6614 18.6555 4.65929 18.3111 4.68661C17.6244 4.72652 16.944 4.82947 16.2699 4.95763C15.6021 5.1068 14.9343 5.27067 14.2917 5.50808C11.7108 6.41569 9.39868 8.03343 7.67668 10.1197C5.95048 12.2038 4.79968 14.7334 4.39018 17.3701C4.33558 17.6999 4.30198 18.0298 4.26628 18.3617C4.24528 18.6937 4.20958 19.0256 4.21168 19.3576L4.20117 19.8576V20.3828L4.20958 21.4312C4.21798 22.8284 4.22428 24.2234 4.23268 25.6121C4.24948 28.3896 4.26838 31.1481 4.28518 33.8836C4.36078 44.8317 4.46788 55.4457 4.61488 65.6143C4.62538 66.3601 4.63797 67.1921 4.64847 67.9821C4.62537 58.303 4.60228 48.6764 4.57708 39.0834C4.56028 34.287 4.54558 29.4989 4.52878 24.715H4.52668Z" fill="#D80000"/>
<path d="M52.873 3.82503C54.2779 3.82503 55.664 3.82924 57.0542 3.82924C58.6754 3.81243 60.2693 3.79772 61.8611 3.78092C60.8846 3.77671 59.906 3.77251 58.9399 3.76831C56.9093 3.78722 54.8827 3.80403 52.873 3.82294V3.82503Z" fill="#D80000"/>
<path d="M0.986328 42.7832V48.5881C1.01363 49.4705 1.04303 50.3445 1.07033 51.2269C1.07243 49.8697 1.07663 48.4957 1.07873 47.128L0.986328 42.7832Z" fill="#D80000"/>
<path d="M1.73498 128.414C1.53968 102.7 1.35488 78.5959 1.17428 54.7039C1.13858 53.5442 1.10288 52.3823 1.06928 51.2268C1.03988 67.2613 1.10078 83.2075 1.35698 97.91C1.40318 100.807 1.54178 105.167 1.54178 108.064C1.58588 121.798 1.73288 134.874 1.86728 147.917C1.82528 141.681 1.78328 135.385 1.73918 128.95C1.73918 128.769 1.73708 128.594 1.73498 128.414Z" fill="#D80000"/>
<path d="M158.982 56.4161C158.999 57.225 159.014 57.9477 159.029 58.6284V56.3804C159.014 56.3804 158.999 56.4056 158.982 56.4182V56.4161Z" fill="#D80000"/>
<path d="M159.547 60.2567C159.559 60.4374 159.57 60.6138 159.585 60.8281V60.1201C159.572 60.2 159.559 60.2126 159.547 60.2567Z" fill="#D80000"/>
<path d="M159.35 59.7925C159.243 59.1118 159.138 58.1895 159.031 58.8513C159.109 62.2402 159.199 64.3075 159.35 66.337V59.7925Z" fill="#D80000"/>
<path d="M146.671 18.0234C148.838 18.0002 151.188 17.975 153.609 17.9498C154.214 17.9456 154.825 17.9393 155.439 17.9351C155.741 17.9351 156.045 17.933 156.35 17.9309C156.602 17.9393 156.858 17.9582 157.102 18.0255C158.093 18.2524 158.95 18.9982 159.338 19.9373C159.454 20.1747 159.561 20.4184 159.615 20.6727C159.63 20.7357 159.649 20.7987 159.662 20.8596C159.67 20.9227 159.681 20.9857 159.689 21.0487C159.712 21.1664 159.722 21.3177 159.733 21.4563V21.1727L159.718 20.9269C159.718 20.8449 159.702 20.763 159.689 20.6832C159.674 20.6033 159.67 20.5193 159.647 20.4416C159.578 20.1201 159.45 19.8155 159.296 19.5255C159.137 19.2377 158.929 18.9814 158.7 18.7461C158.465 18.5171 158.196 18.328 157.91 18.1683C157.62 18.0171 157.31 17.912 156.993 17.8385C156.831 17.8196 156.671 17.7796 156.507 17.7817C156.423 17.7796 156.352 17.7712 156.255 17.7712H155.972C155.216 17.7733 154.462 17.7754 153.71 17.7775C150.703 17.7901 147.729 17.8007 144.825 17.8133C139.016 17.8469 133.485 17.9099 128.504 18.0339C135.547 18.0339 140.392 17.9519 147.173 17.9435C147.177 17.9141 147.286 17.8994 148.412 17.9435C147.977 17.9435 147.58 17.9435 147.173 17.9435C147.156 17.9708 147.23 18.0087 146.667 18.0255L146.671 18.0234Z" fill="#D80000"/>
<path d="M17.9916 88.7877C18.0315 96.305 18.1932 102.896 18.3486 109.56C18.2163 95.41 18.1512 80.8945 17.9727 70.0977C17.979 76.2997 17.9853 82.5248 17.9916 88.7856V88.7877Z" fill="#D80000"/>
<path d="M18.9623 142.719C19.0484 133.416 18.9329 125.748 18.7754 118.43C18.8153 125.876 18.8531 133.273 18.893 140.635C18.9161 141.324 18.9392 142.053 18.9623 142.719Z" fill="#D80000"/>
<path d="M18.6729 132.397C18.675 123.884 18.5154 116.68 18.3516 109.56C18.4251 117.564 18.5238 125.397 18.6729 132.397Z" fill="#D80000"/>
<path d="M71.7238 14.9393C77.3182 14.8048 80.7118 14.746 82.6396 14.7313C83.4943 14.6661 84.6241 14.5863 86.1529 14.4875H85.1575C79.3825 14.5632 73.5235 14.6409 67.5973 14.7166C65.176 14.7754 62.866 14.8384 60.9277 14.9161C64.5292 14.9245 68.1454 14.933 71.7217 14.9393H71.7238Z" fill="#D80000"/>
<path d="M82.6406 14.7311C75.3536 15.2857 90.1712 14.6723 82.6406 14.7311V14.7311Z" fill="#D80000"/>
<path d="M46.4587 17.6472C46.1773 17.6472 45.8875 17.6472 45.6019 17.6472C44.7787 17.6577 43.9324 17.6682 43.1113 17.6787C44.2516 17.6682 45.3331 17.6577 46.4566 17.6472H46.4587Z" fill="#D80000"/>
<path d="M15.7997 58.4332C15.7808 53.5191 15.7472 48.5966 15.7031 43.7581C15.7514 53.7334 15.7997 63.7949 15.9383 72.1272C15.9383 70.8877 15.9845 69.6355 15.9845 68.3938C15.8921 65.9063 15.7997 62.1792 15.7997 58.4332Z" fill="#D80000"/>
<path d="M46.4601 17.6474C60.3432 17.6558 74.4846 17.6663 88.6428 17.6747C104.544 17.5612 119.756 17.5865 135.901 17.5066C139.635 17.4604 143.365 17.4604 145.857 17.368C147.619 17.244 149.385 17.12 150.96 17.0087C146.04 17.0234 140.977 17.0738 136.643 17.1264C137.207 17.1095 137.142 17.0717 137.149 17.0444C130.372 17.0549 125.517 17.1348 118.49 17.1348C128.446 16.8868 140.609 16.8868 152.779 16.8595C153.409 16.8028 153.978 16.7482 154.472 16.6915C129.227 16.62 103.488 16.7335 78.5502 16.9499C74.0331 17.0066 69.4488 17.0633 64.8057 17.12C67.0968 17.1369 69.4005 17.1537 71.7252 17.1705H64.2555C63.0669 17.1705 61.8867 17.1705 60.6813 17.1684C52.9071 17.2482 44.8977 17.328 36.4032 17.4142C43.1841 17.3322 50.091 17.2482 57.0945 17.1621C50.0553 17.1474 42.8586 17.1348 35.6955 17.12C32.1129 17.1263 28.5408 17.1327 25.0002 17.1369C24.1161 17.1411 23.232 17.1453 22.3521 17.1495C21.9111 17.1516 21.4722 17.1558 21.0333 17.1579C20.5986 17.1537 20.145 17.1726 19.7145 17.2818C18.8472 17.4835 18.0765 18.0087 17.5326 18.6895C16.9887 19.3786 16.6905 20.2463 16.6842 21.1098C16.8123 28.4316 16.8669 38.1464 16.9971 46.7372C17.0139 46.92 17.0328 47.0923 17.0517 47.2477C17.0475 47.9032 17.0454 48.5482 17.0412 49.1995C17.079 50.3025 17.1189 51.4812 17.1441 52.2144C17.2449 61.1939 17.3688 70.186 17.4297 79.6298C17.4423 80.4344 17.4549 81.2517 17.4696 82.0774C17.5158 84.5712 17.4696 88.3025 17.4696 90.7921C17.4696 86.9789 17.4549 83.2728 17.4297 79.6298C17.2512 69.0346 16.9929 60.8829 17.0412 49.1974C17.0202 48.4453 17.0055 47.7415 17.0055 47.2456C17.0034 47.0776 17.0013 46.9074 16.9971 46.7351C16.7262 43.7265 16.7262 35.6 16.7262 28.5766C16.6338 29.8245 16.68 26.0827 16.5876 26.0827C16.5645 25.1499 16.5414 24.2171 16.5183 23.2863C16.5057 22.822 16.4952 22.3556 16.4847 21.8934L16.4679 21.198C16.4721 20.9564 16.4763 20.7106 16.5162 20.469C16.659 19.5025 17.1483 18.5823 17.8854 17.9352C18.6183 17.2839 19.578 16.8868 20.5566 16.8532C24.1329 16.7671 27.558 16.6852 30.6723 16.6116C40.62 16.4267 50.5719 16.5192 59.2743 16.2398C61.767 16.1473 66.744 16.1935 70.4715 16.1473C72.0423 16.1095 73.7496 16.0696 75.4947 16.0276C73.6614 16.0107 71.8197 15.9918 69.9822 15.975C68.7432 15.9288 101.556 15.6851 100.319 15.4981C100.319 15.4981 100.294 15.496 100.241 15.4939C100.191 15.4939 100.113 15.4939 100.012 15.4918C99.8106 15.4918 99.5124 15.4918 99.126 15.4918C98.3532 15.496 97.2297 15.5002 95.8206 15.5044C93.0024 15.5191 89.0439 15.5422 84.489 15.5674C75.3771 15.6179 63.8733 15.6767 54.2994 15.683C50.5719 15.5443 57.5334 14.9981 60.0345 14.9519C60.3075 14.9414 60.6288 14.9288 60.9291 14.9161C58.0752 14.9056 55.2171 14.8972 52.3947 14.8867C47.9028 14.9309 43.3794 14.975 38.8497 15.0191C35.1999 15.0527 31.5333 15.0863 27.8541 15.1199C26.0145 15.1367 24.1707 15.1515 22.3269 15.1683L20.943 15.1809H20.7708C20.7078 15.183 20.67 15.1809 20.5713 15.1872C20.397 15.1956 20.2227 15.204 20.0505 15.2166C19.8783 15.2397 19.704 15.267 19.5318 15.2964C19.3596 15.3258 19.1916 15.3784 19.0215 15.4204C17.6733 15.809 16.4847 16.6809 15.7119 17.8386C16.5267 16.5927 17.8287 15.6641 19.3008 15.3111C19.6662 15.2229 20.0421 15.1641 20.418 15.1473L20.6847 15.1346L20.8695 15.1304L21.2412 15.122C21.7368 15.1115 22.2303 15.101 22.7238 15.0884C23.6604 15.0653 24.6411 15.0422 25.6302 15.017C33.5535 14.8489 42.7914 14.8531 52.401 14.8825C57.5082 14.8258 62.5776 14.7691 67.605 14.7145C67.7415 14.7103 67.8591 14.7081 67.9893 14.7039C61.5822 14.6871 55.047 14.6682 48.6672 14.6514C42.8187 14.7081 36.9156 14.7649 30.9768 14.8237C28.0074 14.851 25.0275 14.8762 22.0413 14.9035L20.9199 14.914L20.6301 14.9182L20.1891 14.9414C20.0421 14.9477 19.8951 14.9708 19.7502 14.9939C19.6053 15.0191 19.4583 15.0359 19.3134 15.0737C18.7338 15.2019 18.1794 15.4225 17.6607 15.7019C17.1462 15.9939 16.6737 16.3511 16.2558 16.765C15.8463 17.1873 15.4893 17.66 15.2058 18.1768C14.9307 18.6979 14.7123 19.2504 14.5905 19.8303C14.5527 19.9731 14.538 20.1202 14.5149 20.2652C14.4939 20.4101 14.4708 20.5572 14.4666 20.7022L14.4477 21.1413V21.1938V21.2295V21.2988V21.4396L14.4582 22.5657L14.4435 21.822L14.4351 21.4501L14.4309 21.2652C14.4309 21.2295 14.4288 21.2148 14.4309 21.1623L14.4351 21.0173C14.4435 20.2442 14.601 19.4626 14.8971 18.7378C15.4893 17.286 16.6401 16.078 18.0828 15.4141C18.8535 15.0527 19.7187 14.8447 20.5902 14.8237C21.1446 14.8111 21.7053 14.7985 22.2744 14.7838C23.3937 14.7649 24.5382 14.746 25.7079 14.725C28.0452 14.6913 30.4749 14.6703 32.976 14.6577C37.9782 14.6325 43.266 14.6409 48.6672 14.6577C59.8077 14.5422 70.776 14.414 81.4209 14.2585C74.1864 14.2585 65.9418 14.2585 58.7955 14.3048C51.603 14.3657 44.5575 14.4245 37.6191 14.4833C34.1499 14.5149 30.708 14.5443 27.2871 14.5737C25.5777 14.5884 23.8725 14.6052 22.1715 14.6199L20.8968 14.6304H20.7372L20.6574 14.6325L20.5272 14.6367C20.3529 14.6451 20.1786 14.6556 20.0043 14.6682C19.6578 14.7145 19.3092 14.767 18.9711 14.8657C18.2949 15.0527 17.646 15.3384 17.0664 15.7292C16.4889 16.12 15.9744 16.5969 15.5439 17.1432C14.685 18.2336 14.1915 19.6202 14.1663 20.9984L14.1621 21.1266V21.1896V21.2295V21.3871L14.1663 21.7043L14.1726 22.3367L14.1852 23.6015C14.1999 25.2865 14.2167 26.9672 14.2314 28.6459C14.2629 32.0032 14.2944 35.35 14.3238 38.6906C14.3868 45.3716 14.4477 52.0316 14.5107 58.7085C14.6199 61.9376 14.7081 65.1584 14.7396 68.3918C14.832 75.8522 14.832 84.567 14.8782 92.0338C14.9244 91.4119 14.9475 92.0338 14.9643 92.8133C14.9727 93.2019 14.9811 93.6305 14.9874 93.9625C14.9958 94.2944 15.0042 94.5276 15.0147 94.5276C15.1995 101.992 15.1533 110.697 15.1533 119.413C15.1533 120.653 15.1071 120.653 15.0693 121.932C15.2877 127.84 15.3822 134.732 15.42 142.064C15.4284 145.73 15.4347 149.505 15.4431 153.323C15.4431 154.277 15.4431 155.235 15.4431 156.193V156.913L15.4662 157.386C15.4809 157.544 15.5082 157.699 15.5313 157.855C15.6468 158.476 15.8757 159.077 16.2054 159.617C16.8606 160.699 17.9169 161.527 19.1307 161.899L19.5906 162.019C19.746 162.046 19.9035 162.069 20.0589 162.092C20.2164 162.113 20.3739 162.113 20.5314 162.124L20.649 162.128H20.7414H20.922H22.3605C26.2476 162.115 30.1683 162.113 34.1646 162.128C30.3111 162.128 26.3442 162.128 22.3605 162.13C21.8061 162.132 21.2517 162.134 20.6994 162.136C20.0001 162.143 19.2462 162.006 18.5805 161.714C17.2365 161.141 16.1655 159.991 15.6867 158.611C15.5649 158.266 15.483 157.909 15.4347 157.55C15.4053 157.369 15.4053 157.189 15.3927 157.008C15.3864 156.909 15.3885 156.846 15.3864 156.777V156.571C15.3801 156.025 15.3759 155.476 15.3717 154.932C15.3612 153.84 15.3528 152.751 15.3423 151.663C15.294 147.312 15.2478 142.986 15.2016 138.66C15.2373 143.955 15.273 149.18 15.3066 154.367C15.3108 155.016 15.315 155.663 15.3192 156.31V156.796L15.3234 156.922L15.3318 157.084L15.3507 157.409C15.4011 157.84 15.4872 158.271 15.6384 158.678C15.9303 159.498 16.4238 160.241 17.0664 160.819C17.3793 161.117 17.7447 161.355 18.1185 161.571C18.5028 161.767 18.9039 161.939 19.3239 162.038C19.7418 162.153 20.1723 162.193 20.6007 162.206H21.5793L23.5092 162.193C24.7944 162.187 26.0796 162.18 27.3627 162.174C37.6338 162.141 47.8671 162.107 58.2915 162.073C78.189 162.027 96.8412 161.842 115.498 161.655C123.108 161.584 130.718 161.594 138.316 161.624C137.671 161.655 137.042 161.685 136.439 161.714C141.162 161.72 145.798 161.727 150.46 161.733C151.626 161.733 152.794 161.729 153.963 161.727C154.549 161.727 155.135 161.725 155.721 161.722C156.023 161.718 156.28 161.729 156.662 161.704C157.017 161.68 157.369 161.607 157.714 161.508C159.085 161.088 160.247 160.029 160.767 158.68C160.828 158.51 160.897 158.344 160.935 158.166C160.981 157.991 161.023 157.815 161.044 157.636C161.057 157.546 161.072 157.458 161.08 157.367L161.093 157.096C161.103 156.903 161.099 156.766 161.099 156.615C161.095 156.016 161.093 155.415 161.089 154.812C161.082 153.941 161.078 153.071 161.072 152.19C160.933 132.288 160.887 115.209 160.887 94.9499C160.872 89.9749 160.855 85.0019 160.841 80.0268C160.795 76.2956 160.515 82.5186 160.469 76.2955C160.456 76.6317 160.44 76.9594 160.423 77.2452C160.482 81.9828 160.568 86.1574 160.469 87.4852C160.276 89.2164 160.173 80.218 159.973 74.5076C159.938 74.3501 159.902 74.1148 159.866 73.7996V72.018C159.854 71.8079 159.841 71.6335 159.829 71.4423C159.764 71.6671 159.698 71.3982 159.633 70.9864V77.5309C159.482 75.4951 159.392 73.4403 159.314 70.0494C159.314 70.0557 159.31 70.0557 159.31 70.0641V69.8225C159.295 69.1355 159.281 68.4149 159.264 67.6144C158.905 82.0543 158.718 68.4149 158.197 63.0637C158.182 64.3243 158.18 65.8643 158.197 67.5829H158.058C157.966 78.7768 157.779 86.2436 157.548 96.1958C157.502 98.6875 157.315 98.6875 157.315 102.421C157.315 112.367 157.269 122.334 157.315 132.288C157.351 137.595 157.384 142.837 157.418 148.033C157.432 150.632 157.447 153.218 157.462 155.796L157.466 156.762V156.882C157.466 156.907 157.466 156.909 157.466 156.915V156.934C157.462 156.958 157.462 156.983 157.462 157.006C157.462 157.054 157.447 157.098 157.445 157.144C157.405 157.323 157.33 157.495 157.21 157.647C157.084 157.792 156.931 157.916 156.758 157.989C156.67 158.018 156.584 158.058 156.488 158.065C156.441 158.079 156.391 158.075 156.343 158.079C156.326 158.079 156.328 158.084 156.294 158.084H156.175H155.935C145.683 158.121 135.519 158.161 125.275 158.199C125.412 158.21 125.473 158.22 125.456 158.231C120.519 158.239 115.565 158.247 110.525 158.256C105.548 158.256 101.816 158.395 96.837 158.395C80.0538 158.418 63.6003 158.441 47.235 158.464C39.0534 158.491 30.8928 158.519 22.7238 158.546L21.1929 158.552H20.8107H20.7141C20.6826 158.552 20.6427 158.552 20.6385 158.552L20.5566 158.546H20.4747L20.397 158.531L20.3172 158.523L20.2416 158.502C19.8321 158.405 19.4541 158.13 19.2252 157.762C19.1118 157.579 19.0341 157.378 18.9984 157.165C18.99 157.113 18.9753 157.06 18.9795 157.004C18.9795 156.943 18.9669 156.922 18.969 156.762L18.9648 155.995L18.9522 152.926C18.9333 148.831 18.9144 144.732 18.8955 140.623C18.8115 138.059 18.738 135.305 18.675 132.385C18.675 134.36 18.6666 136.412 18.6456 138.553C17.9022 118.64 17.9967 83.8044 17.625 63.8936C17.436 52.5842 17.3121 40.636 17.2344 28.2488C17.226 26.7004 17.2155 25.1457 17.2071 23.5847C17.2029 22.8031 17.1987 22.0216 17.1945 21.2379C17.1861 20.5362 17.373 19.8618 17.7489 19.2777C17.94 18.992 18.1668 18.7273 18.4293 18.5025C18.696 18.284 18.9942 18.1012 19.3092 17.9604C19.6305 17.8281 19.9686 17.7461 20.313 17.7041C20.6385 17.6768 21.0648 17.6852 21.4533 17.6831C23.0388 17.6789 24.6285 17.6726 26.2245 17.6684C32.6085 17.6579 39.0765 17.6474 45.6012 17.6348C58.4574 17.4688 71.7294 17.3196 85.2534 17.202C72.9222 17.3701 60.2466 17.5045 46.458 17.6348L46.4601 17.6474ZM159.167 97.448C159.157 97.637 159.146 97.8345 159.136 98.0383C159.113 96.721 159.092 95.4016 159.068 94.1243C159.123 95.0508 159.167 96.242 159.167 97.448ZM158.888 92.4729C158.898 92.4729 158.911 92.5107 158.923 92.5716C158.995 103.442 159.102 114.69 159.022 123.233C158.959 112.806 158.846 101.591 158.888 92.4708V92.4729ZM158.065 157.021C158.056 157.05 158.058 157.084 158.044 157.111C158.05 157.084 158.044 157.054 158.044 157.027C158.05 157.027 158.058 157.023 158.065 157.021ZM15.4242 20.9627C15.4305 20.8471 15.4326 20.7316 15.4452 20.6181C15.4809 20.3912 15.4998 20.1622 15.5628 19.9416C15.6573 19.4962 15.84 19.0802 16.0374 18.6853C16.2579 18.3029 16.4994 17.9352 16.7997 17.6243C17.3793 16.9856 18.1122 16.5192 18.8955 16.2439C19.2861 16.1011 19.6935 16.0233 20.0967 15.9729C20.2941 15.9582 20.5167 15.9498 20.691 15.9477C20.8443 15.9477 20.9976 15.9498 21.1509 15.9519C21.5226 15.9498 21.8901 15.9477 22.2555 15.9435C22.0476 15.9477 21.8229 15.9519 21.615 15.9561C25.2753 15.9939 28.7928 16.0696 33.1608 16.0969L34.3998 16.0507V16.1893C31.6026 16.2713 28.6479 16.3175 25.5966 16.3427C24.072 16.3511 22.5222 16.3595 20.9556 16.3679H20.6616L20.3088 16.3868C20.1891 16.3889 20.0715 16.4078 19.9539 16.4267C19.8363 16.4477 19.7166 16.4561 19.6011 16.4898C19.1328 16.5906 18.6855 16.7755 18.2676 17.0087C17.4381 17.4877 16.7451 18.2146 16.3293 19.0886C16.2159 19.3029 16.1403 19.534 16.0584 19.7609C15.9975 19.9942 15.9303 20.2295 15.9009 20.469C15.8547 20.7064 15.8568 20.9522 15.8421 21.1896V21.7905C15.8421 22.5909 15.8421 23.3935 15.8421 24.1982C15.8421 25.8054 15.8421 27.4147 15.8421 29.0178C15.8442 32.2259 15.8568 35.4152 15.8904 38.5288C16.0752 54.704 16.1235 72.1231 16.4469 88.2962C16.4931 90.7879 16.4469 94.5276 16.4469 97.0089C16.3083 88.2962 16.0752 80.8336 15.9366 72.123C15.6447 58.034 15.5733 41.9827 15.4914 26.4273C15.4704 25.0575 15.4473 23.6939 15.4263 22.3556C15.4221 21.9901 15.4179 21.6308 15.4137 21.2778C15.4116 21.2022 15.4158 21.074 15.4221 20.9606L15.4242 20.9627ZM36.6468 161.899C33.5514 161.899 30.3216 161.895 27.0141 161.893C25.3593 161.897 23.6856 161.903 21.9993 161.907C21.5772 161.907 21.1551 161.912 20.733 161.914H20.6532L20.5545 161.909L20.355 161.901C20.2206 161.897 20.0883 161.886 19.956 161.863C19.6893 161.834 19.4289 161.764 19.1685 161.695C18.1437 161.372 17.2134 160.731 16.5834 159.851C16.2663 159.414 16.0143 158.926 15.8463 158.409C15.7728 158.149 15.7014 157.884 15.6678 157.615L15.6384 157.413L15.6258 157.21L15.6153 157.006L15.6111 156.905V156.825L15.5901 154.26C15.5733 152.55 15.5586 150.842 15.5418 149.14C15.4977 145.738 15.4557 142.371 15.4137 139.089C15.6804 136.927 15.8169 139.679 15.8904 145.213C15.9261 147.98 15.9471 151.445 15.9576 155.338C15.9576 155.825 15.9597 156.319 15.9618 156.817C15.9618 156.876 15.9618 156.947 15.9681 157.023L15.9807 157.245C15.9828 157.395 16.0143 157.542 16.0353 157.689C16.0542 157.838 16.0941 157.983 16.1319 158.128C16.1655 158.275 16.218 158.416 16.2726 158.558C16.6989 159.693 17.5956 160.668 18.7485 161.18C19.3218 161.437 19.956 161.577 20.5923 161.584C21.1362 161.584 21.6843 161.584 22.2345 161.584C23.3307 161.584 24.4416 161.584 25.563 161.582C43.5054 161.569 64.0665 161.565 70.2258 161.059C75.2028 161.615 46.6071 161.895 36.6468 161.895V161.899ZM17.5347 156.859C17.5368 156.964 17.5473 157.031 17.5515 157.115C17.5536 157.195 17.5662 157.273 17.5809 157.344C17.5956 157.418 17.604 157.487 17.6208 157.554C17.6397 157.619 17.6586 157.68 17.6775 157.739C17.9064 158.422 18.4188 159.096 19.1601 159.489C19.5276 159.685 19.9455 159.815 20.3865 159.834H20.5524L20.6364 159.84H20.7456C20.8968 159.836 21.048 159.832 21.1992 159.83C21.5037 159.823 21.8145 159.819 22.1274 159.813C24.6327 159.769 27.3921 159.737 30.2691 159.712C36.021 159.659 42.2433 159.626 47.8419 159.531C51.5673 159.47 55.3053 159.407 59.0349 159.346C76.4418 159.161 93.855 158.974 112.52 158.882C119.979 158.836 128.681 158.743 136.151 158.649C138.656 158.617 141.166 158.613 143.635 158.615C143.747 158.626 143.871 158.638 144.007 158.653C140.975 158.668 137.934 158.682 134.902 158.697C132.409 158.743 129.929 158.882 128.679 158.882C123.7 158.974 117.486 158.974 111.268 159.021C106.295 159.113 100.067 159.021 93.8508 159.067C93.2292 159.067 92.6076 159.09 92.1414 159.119C91.6752 159.149 91.3644 159.182 91.3644 159.208C82.662 159.115 77.6871 159.393 68.9742 159.346L72.7122 159.439C67.7331 159.485 64.0035 159.577 57.7833 159.624C52.8042 159.624 49.0809 159.809 45.3492 159.809C39.1311 159.846 32.9109 159.884 27.0015 159.92C25.5252 159.932 24.0657 159.943 22.6335 159.953C22.2744 159.958 21.9174 159.96 21.5625 159.964C21.384 159.964 21.2076 159.968 21.0312 159.97H20.7666L20.6364 159.974L20.5335 159.97C20.2584 159.977 19.9917 159.914 19.7313 159.851C19.4772 159.762 19.221 159.668 18.9963 159.519C18.5322 159.243 18.1584 158.834 17.8938 158.376C17.6418 157.903 17.499 157.401 17.4948 156.85C17.4675 155.533 17.4423 154.249 17.4171 153.006C17.4633 153.63 17.4864 154.565 17.5032 155.497C17.5116 155.964 17.52 156.432 17.5263 156.859H17.5347Z" fill="#D80000"/>
<path d="M16.5942 21.0466C16.6131 20.4751 16.7538 19.9099 17.0037 19.3994C17.4993 18.372 18.4443 17.5737 19.5426 17.2711C19.8156 17.1934 20.097 17.143 20.3805 17.1262C20.6661 17.1052 20.9391 17.1136 21.2163 17.1115C21.7686 17.1115 22.3188 17.1115 22.869 17.1094C27.2748 17.101 31.6491 17.0926 36.015 17.0842C44.7468 17.0695 53.445 17.0652 62.3007 17.1073C67.6746 17.0547 73.0884 17.0022 78.5505 16.9497C82.7631 16.8867 86.9484 16.8257 91.1295 16.7648C111.096 16.5169 134.423 16.6009 155.87 16.4875C156.187 16.4182 156.362 16.3488 156.376 16.2837C156.364 16.2102 156.19 16.1408 155.803 16.0673C132.512 15.916 109.225 16.1639 85.9467 16.0862C85.7661 16.0904 85.5813 16.0967 85.4007 16.1009C75.4446 16.3803 59.2746 16.2858 46.8384 16.519C40.6203 16.6577 34.4001 16.7501 28.182 16.8383L23.5179 16.9035L21.1869 16.9371C20.9916 16.9413 20.8005 16.9413 20.601 16.9476C20.3931 16.9602 20.1852 16.9686 19.9815 17.0106C19.7757 17.0358 19.5762 17.1031 19.3788 17.1577C19.1856 17.2312 18.9903 17.2985 18.8076 17.3993C18.438 17.5842 18.0957 17.8216 17.8017 18.1094C17.5056 18.3952 17.2431 18.7166 17.0478 19.078C16.6362 19.786 16.4682 20.6327 16.5102 21.4226L16.5921 26.0868C16.5921 24.9627 16.5921 23.8429 16.5921 22.7252C16.5942 22.1643 16.5837 21.6117 16.5984 21.0487L16.5942 21.0466Z" fill="#D80000"/>
<path d="M18.7753 118.43C18.7459 113.556 18.7186 108.658 18.6892 103.719C18.58 89.9789 18.4393 77.7807 18.2734 65.3074C18.286 74.4612 18.2986 83.6634 18.3133 92.937C18.3637 102.223 18.5968 110.091 18.7774 118.428L18.7753 118.43Z" fill="#D80000"/>
<path d="M17.8758 29.3203L17.9556 37.9468C18.0144 43.6971 18.0732 49.4453 18.132 55.1935C18.1803 58.6139 18.2265 61.9649 18.2727 65.3096C18.2223 51.7416 18.1719 38.2787 18.1215 24.841L18.1047 22.7695L18.0963 21.7337L18.0921 21.2169L18.0984 21.0383C18.1026 20.9816 18.0984 20.9248 18.1089 20.8702C18.195 19.9815 18.804 19.1579 19.6335 18.7924C19.8435 18.7125 20.0556 18.6306 20.2824 18.6054C20.3937 18.5781 20.5092 18.5844 20.6226 18.5718C20.6457 18.5676 20.6961 18.5697 20.736 18.5676H20.8662L21.1245 18.5634L23.1951 18.5466L27.3363 18.5129L43.9011 18.3743C54.9429 18.2671 65.9868 18.16 77.0265 18.0549C79.5339 18.0339 82.0245 18.0129 84.4983 17.9919C63.9519 17.9667 43.437 17.9394 23.7012 17.9919C23.0838 17.9919 22.4685 17.9961 21.8532 17.9982H20.9313L20.7003 18.0024C20.6184 18.0024 20.5722 18.0087 20.505 18.0108L20.3202 18.0213L20.1375 18.0507C19.1631 18.1978 18.2937 18.8533 17.8464 19.7189C17.6259 20.1538 17.5041 20.6349 17.4957 21.1202C17.4915 21.1749 17.4915 21.2568 17.4936 21.3324V21.5614L17.4957 22.0173L17.4999 22.9292C17.5062 24.1435 17.5104 25.3537 17.5167 26.5617C17.5482 31.3897 17.5797 36.1568 17.6112 40.8524C17.6868 50.2437 17.7939 59.3471 17.9409 68.0682C17.9514 68.7069 17.964 69.4212 17.9745 70.0998C17.9304 54.9813 17.8842 40.0141 17.8401 25.0952L17.8779 29.3203H17.8758Z" fill="#D80000"/>
<path d="M57.0957 17.1598C58.3011 17.1598 59.4897 17.164 60.6825 17.164C62.0727 17.1471 63.4398 17.1324 64.8048 17.1156C63.9669 17.1114 63.129 17.1072 62.2995 17.103C60.5565 17.1219 58.8198 17.1387 57.0957 17.1577V17.1598Z" fill="#D80000"/>
<path d="M19.8561 16.0273L19.6146 16.0673C19.5348 16.0841 19.4571 16.1072 19.3773 16.1261C18.7473 16.2879 18.1467 16.5694 17.6196 16.9497C16.5633 17.7081 15.8052 18.8804 15.5574 20.1704L15.486 20.6557L15.4629 21.1453V21.9058C15.4692 22.4058 15.4713 22.908 15.4734 23.4101C15.4797 24.4144 15.4839 25.4228 15.4902 26.4313C15.5742 31.9967 15.6456 37.8142 15.7002 43.7579C15.6687 38.3731 15.6351 33.0178 15.6057 27.965C15.5952 26.7023 15.5826 25.4585 15.5721 24.2379C15.5658 23.6265 15.5595 23.0235 15.5532 22.4247C15.549 22.1264 15.5469 21.8281 15.5427 21.5318V21.3112L15.5385 21.1999L15.5427 21.0612C15.5532 20.8721 15.549 20.6831 15.5826 20.4961C15.7674 18.9897 16.6389 17.6283 17.8548 16.8425C18.4575 16.4433 19.14 16.1765 19.8372 16.0589L20.0976 16.0168C20.1858 16.0063 20.2719 16.0021 20.3601 15.9958L20.6226 15.9811L20.8284 15.9769C21.093 15.9727 21.3555 15.9664 21.6159 15.9622C21.4647 15.9622 21.3093 15.9601 21.1497 15.958C20.8935 15.9622 20.6961 15.9538 20.337 15.9769C20.1753 15.9811 20.0136 16.0021 19.854 16.0315L19.8561 16.0273Z" fill="#D80000"/>
<path d="M14.3145 48.4829V53.4622C14.3418 54.2206 14.3712 54.9686 14.3985 55.727C14.4006 54.5631 14.4048 53.3844 14.4069 52.2121L14.3145 48.485V48.4829Z" fill="#D80000"/>
<path d="M15.0651 121.934C14.8698 99.8786 14.685 79.2031 14.5044 58.7083C14.4687 57.7146 14.433 56.7166 14.3994 55.7271C14.37 69.4799 14.4309 83.1592 14.6871 95.7692C14.7333 98.2546 14.8719 101.994 14.8719 104.48C14.916 116.26 15.063 127.477 15.1974 138.664C15.1554 133.315 15.1133 127.916 15.0692 122.395C15.0692 122.239 15.0672 122.09 15.0651 121.934Z" fill="#D80000"/>
<path d="M99.5254 40.3776C99.5359 41.0204 99.5464 41.5961 99.5569 42.1382V40.3481C99.5569 40.3481 99.5359 40.367 99.5254 40.3776Z" fill="#D80000"/>
<path d="M99.9121 43.4344C99.9205 43.5773 99.9289 43.7181 99.9373 43.8883V43.3252C99.9289 43.3903 99.9205 43.3987 99.9121 43.4344Z" fill="#D80000"/>
<path d="M99.777 43.0646C99.7035 42.5226 99.6321 41.7893 99.5586 42.3146C99.6111 45.0122 99.6741 46.6593 99.777 48.275V43.0646Z" fill="#D80000"/>
<path d="M91.8555 32.4317C91.572 32.3981 92.0361 32.3582 91.7547 32.3288C91.4712 32.3183 91.1898 32.3078 90.9084 32.2952C90.3246 32.2973 87.2167 32.2994 86.6392 32.3015C82.015 32.3246 86.0175 32.3666 82.0527 32.4527C87.6576 32.4548 85.6438 32.3897 91.0282 32.396C91.0282 32.3855 91.0513 32.3792 91.1794 32.3834C91.2445 32.3876 91.3347 32.3918 91.4628 32.3981C91.5909 32.4086 91.7569 32.4086 91.9669 32.4506C91.8031 32.4233 91.6455 32.4212 91.4901 32.4149C91.3347 32.4086 91.1815 32.4023 91.0282 32.396C91.0219 32.4044 91.0323 32.417 90.9903 32.4254C90.9693 32.4296 90.9357 32.4338 90.8811 32.4359C90.8223 32.4401 90.7426 32.4443 90.6313 32.4464C90.8518 32.4401 91.0555 32.4485 91.2655 32.4569C91.3705 32.4611 91.4755 32.4632 91.5805 32.4674C91.6855 32.4716 91.7925 32.4716 91.8975 32.4885C92.1096 32.5137 91.5783 32.5389 91.7946 32.5641C91.9038 32.5725 92.0088 32.5977 92.1159 32.6208C92.223 32.6418 92.3301 32.6649 92.4372 32.688C93.294 32.8792 93.5524 33.1629 94.363 33.5999C95.1778 34.0264 95.9506 34.5663 96.6436 35.2008C97.3366 35.8374 97.9287 36.5832 98.4201 37.3795C98.7141 37.7724 98.941 38.1883 99.1594 38.5644C98.2228 36.4151 96.5323 34.6146 94.4911 33.5305C93.4726 32.9864 92.9811 32.6166 91.8576 32.4338L91.8555 32.4317Z" fill="#D80000"/>
<path d="M76.2001 74.5012C76.2274 80.4847 76.3366 89.7499 76.4437 95.0569C76.3534 83.7895 76.3093 78.5476 76.1875 69.9526C76.1917 74.892 76.1959 69.5156 76.2001 74.5012Z" fill="#D80000"/>
<path d="M76.8625 93.4604C76.9213 86.0546 76.8415 107.947 76.7344 102.121C76.6924 92.681 76.7176 85.9411 76.8142 107.171C76.8289 107.72 76.8457 92.9331 76.8625 93.4625V93.4604Z" fill="#D80000"/>
<path d="M76.6639 100.61C76.6639 93.8323 76.5568 100.726 76.4434 95.0571C76.4938 101.429 76.561 95.0361 76.6639 100.61Z" fill="#D80000"/>
<path d="M77.2424 30.3413C77.9942 30.3266 77.8829 30.3791 83.1203 30.3434C83.8007 30.3035 85.8881 30.2488 87.1082 30.1774H86.3144C81.7175 30.2299 78.6767 30.1354 73.958 30.19C72.0302 30.2299 83.933 30.419 82.3895 30.4715C85.256 30.4778 74.3948 30.3371 77.2424 30.3434V30.3413Z" fill="#D80000"/>
<path d="M83.1196 30.3455C77.3173 30.7237 89.1151 30.3056 83.1196 30.3455V30.3455Z" fill="#D80000"/>
<path d="M76.9328 32.2134C77.84 32.205 77.2877 32.3437 78.1823 32.3373C77.9576 32.3373 77.0357 32.1924 76.8089 32.1924C76.1537 32.1987 77.5859 32.2071 76.9328 32.2134Z" fill="#D80000"/>
<path d="M74.8298 68.5935C74.7668 66.6123 74.7038 63.6458 74.7038 60.6624C74.6828 56.7504 74.6597 52.8301 74.6387 48.979C74.6723 56.9206 74.7059 64.9316 74.8004 71.5664C74.8109 70.5789 74.8214 69.5831 74.8319 68.5935H74.8298Z" fill="#D80000"/>
<path d="M86.9275 109.039C86.7154 109.039 86.5033 109.016 86.2891 109.001C85.4407 108.928 83.4058 108.764 82.591 108.503C81.6817 108.215 80.8081 107.822 79.9975 107.331C79.189 106.835 78.4393 106.251 77.7715 105.583C77.1079 104.913 76.5178 104.171 76.0264 103.366C75.5392 102.562 75.1444 101.7 74.8567 100.805C74.5753 99.9081 74.3989 98.9795 74.3317 98.0446C74.3107 97.8114 74.3107 97.5761 74.3023 97.3429L74.296 96.6916L74.2834 95.3974C74.2666 93.6725 74.2498 107.318 74.233 105.598C74.2456 107.705 74.2582 94.431 74.2708 96.5151L74.275 97.2967C74.2855 97.5782 74.2834 97.8618 74.3128 98.1433C74.3485 98.7085 74.4409 99.2673 74.5585 99.8178C74.6761 100.37 74.8483 100.908 75.0415 101.438C75.241 101.965 75.4825 102.473 75.7492 102.967C76.8328 104.936 78.4792 106.566 80.4322 107.631C81.4087 108.163 82.4566 108.562 83.5423 108.797C83.8111 108.865 85.2769 108.9 85.5478 108.951C85.8229 108.982 86.0959 109.026 86.3731 109.039C86.6482 109.064 86.9254 109.07 87.2005 109.075M92.419 108.264C92.8894 108.133 93.3598 107.991 93.8113 107.801C94.7227 107.442 95.5774 106.946 96.367 106.364C97.1482 105.772 97.8685 105.089 98.4796 104.312C99.7186 102.77 100.538 100.877 100.836 98.8808L100.903 98.3366L100.943 97.7904C100.951 97.6076 100.951 97.4248 100.955 97.242C100.96 97.0592 100.955 96.8912 100.955 96.7147C100.861 80.8693 100.829 86.5167 100.829 70.3876C100.819 66.4252 100.808 72.7974 100.798 68.8371C100.766 65.8664 100.575 61.1602 100.544 56.2083C100.535 56.4751 100.525 56.7377 100.512 56.9646C100.552 60.7358 100.611 53.7292 100.544 54.788C100.412 56.1663 100.342 59.3324 100.206 54.788C100.181 54.662 100.157 54.4771 100.132 54.2229V52.8047C100.124 52.6367 100.115 52.498 100.107 52.3467C100.063 52.5253 100.019 52.3131 99.9748 51.9833V57.1936C99.8719 55.5738 99.8089 53.9371 99.7564 51.2353C99.7564 51.2395 99.7543 51.2395 99.7522 51.2479V51.0546C99.7417 50.5084 99.7333 49.9348 99.7207 49.2961C99.475 60.7926 99.349 49.9348 98.992 45.6741C98.9815 46.6784 98.9815 47.9053 98.992 49.2709H98.8975C98.8345 58.1832 98.7064 63.4566 98.5489 71.3793C98.5174 73.3626 98.3893 78.0981 98.3893 81.071C98.3893 88.9895 98.3578 85.5733 98.3893 93.5002C98.4124 97.7252 98.4376 89.2689 98.4607 93.4057C98.4649 94.4394 98.4712 95.473 98.4754 96.5025V96.8891C98.4754 97.013 98.4796 97.158 98.4754 97.2546L98.4691 97.5719C98.467 97.6769 98.4544 97.7841 98.4481 97.8891C98.4397 98.1013 98.404 98.3093 98.3809 98.5194C98.341 98.7274 98.3158 98.9375 98.2633 99.1413C97.9042 100.791 97.06 102.326 95.8693 103.522C94.6807 104.721 93.763 105.572 92.125 105.942C91.9213 105.997 91.7134 106.022 91.5055 106.064C91.2955 106.087 91.8331 106.125 91.621 106.135C91.516 106.142 91.411 106.154 91.306 106.158L90.9889 106.167C90.8923 106.171 90.7516 106.171 90.6277 106.171H90.2476L83.4856 106.182C79.4221 106.192 84.9577 106.205 80.8795 106.215C80.9887 106.222 81.037 106.23 81.0223 106.236C77.0911 106.243 80.176 106.249 76.1629 106.255C72.2002 106.255 82.9711 106.497 79.0063 106.497C80.4763 106.497 107.999 106.511 80.1361 106.545C76.879 106.553 83.0467 106.562 79.7938 106.57L74.2246 106.44L73.0045 106.444L87.3265 106.591L86.8015 106.579C86.1064 106.543 84.229 106.43 83.5612 106.24C82.2235 105.871 80.9761 105.182 79.9282 104.259C78.8803 103.337 78.0466 102.173 77.5006 100.889C77.2318 100.244 77.0323 99.572 76.9126 98.8829C76.8496 98.5383 76.8139 98.1896 76.7887 97.8387C76.7782 97.6643 76.7782 97.4878 76.7698 97.3114V96.7021C76.7593 95.0697 76.753 108.804 76.7467 107.169C76.69 105.129 76.6396 102.936 76.5955 100.61C76.5955 102.183 76.5892 103.818 76.5766 105.522C76.0705 89.6681 76.1335 80.8735 75.8794 65.0239C75.8143 60.5215 75.7618 55.8931 75.7177 51.1555C75.6988 48.7877 75.6778 52.2585 75.6589 49.8382C75.6505 48.628 75.6421 47.4137 75.6337 46.1909C75.6295 45.5795 75.6274 44.9682 75.6232 44.3547C75.6232 44.0479 75.619 43.7412 75.619 43.4324V42.9702L75.6253 42.5227C75.6904 40.1402 76.6165 37.7682 78.2251 35.9446C79.0273 35.0328 79.987 34.2533 81.0601 33.6608C82.1332 33.0705 84.502 32.6671 85.7221 32.478C86.3353 32.3813 72.0133 32.2091 72.6475 32.2091C73.2859 32.2091 73.9222 32.207 74.5627 32.2049C75.8416 32.2028 77.8156 32.3456 79.1008 32.3435C81.6733 32.3414 74.1469 32.1923 76.7446 32.1902C86.98 32.0767 75.5581 32.1208 86.3248 32.041C76.5073 32.1565 89.0947 32.2469 78.118 32.3372C89.1724 32.3435 62.8195 32.2049 74.0902 32.2112C86.7511 32.1334 73.2964 32.1502 86.1484 32.0956C89.122 32.0641 85.468 32.0641 87.4525 32.0011C88.156 31.9591 91.3816 31.9149 92.0662 31.9507C92.4085 31.978 92.0053 31.9843 92.3329 32.0473C92.4988 32.0725 92.0494 32.0977 92.2111 32.1208C92.3728 32.1439 92.5282 32.1923 92.6836 32.2238L92.3266 32.1166L91.9612 32.0368L92.2069 31.9591L92.0242 31.9212L91.8394 31.8981V31.8057L91.096 31.7763C90.109 31.7637 86.6062 31.7826 85.6402 31.7868C82.5217 31.8141 87.2761 31.8309 86.7385 31.8372C87.1879 31.8246 87.1375 31.7994 87.1417 31.7805C81.7468 31.7868 86.6923 31.8435 81.1 31.8435C85.0627 31.7595 79.4641 31.7174 84.0862 31.6922C86.3983 31.6838 83.3302 31.6754 85.7242 31.6691C86.3227 31.6691 86.9233 31.667 87.5239 31.6649C87.8263 31.6649 90.6508 31.6607 90.9553 31.6649C91.2619 31.6796 91.5706 31.6859 91.8793 31.7069C93.1099 31.812 92.9713 32.1271 94.1011 32.6377C94.3405 32.7343 94.5673 32.8267 94.7815 32.9129C94.8907 32.9528 94.9915 33.0032 95.0902 33.0516C95.1889 33.0999 95.2834 33.1461 95.3758 33.1902C94.2712 32.5116 93.6559 32.0242 92.3791 31.7637C92.062 31.6838 92.482 31.6544 92.1586 31.6103C91.8373 31.5557 91.5097 31.5599 91.1842 31.541C90.8545 31.52 90.5458 31.5305 90.2287 31.5263H86.7574C84.2353 31.5263 88.3324 31.5263 85.8019 31.5242C80.7451 31.5326 84.4915 31.5431 79.4326 31.5515C69.3148 31.583 89.7226 31.7847 79.7959 31.8582C76.2007 31.896 90.2938 31.9359 86.5978 31.9759C88.4227 31.9864 75.325 31.854 77.1772 31.8645L86.161 32.0095C85.2139 32.0095 83.0866 32.0095 82.1269 32.0095C75.9382 32.0641 86.2933 32.1187 79.5313 32.1776C99.7606 31.9675 88.5277 31.9086 79.2709 32.0053C88.5004 32.02 99.5044 32.0116 78.9685 31.9759C77.5426 31.9759 75.4279 31.8309 74.0062 31.833C73.6513 31.833 73.2964 31.833 72.9415 31.833L87.3412 31.9801L86.8078 31.9948C86.0959 32.0284 84.2017 32.1334 83.515 32.3036C82.1395 32.644 80.8417 33.2595 79.7161 34.0894C78.5884 34.9172 77.635 35.9593 76.9126 37.1295C76.5325 37.7514 76.2007 38.4363 75.9382 39.1716C75.6757 39.907 75.4909 40.6948 75.3943 41.51C75.2872 42.3252 75.3187 43.1676 75.325 44.0269C75.3334 44.8841 75.3397 45.756 75.3481 46.6363C75.3838 50.1533 75.4216 47.9326 75.4552 51.3509C75.4678 51.4958 75.4783 51.6324 75.493 51.7563C75.4909 52.2774 75.4888 52.7921 75.4867 53.309C75.5119 54.1872 75.5392 55.1263 75.556 55.7103C75.6253 62.8599 75.7093 59.6875 75.7513 67.2089C75.7597 67.8497 75.7681 68.4989 75.7786 69.1586C75.8101 71.144 75.7786 74.1147 75.7786 76.098C75.7786 73.0621 75.7681 70.1103 75.7513 67.211C75.6295 58.7757 75.4531 62.6162 75.4867 53.3132C75.472 52.7144 75.4615 52.1534 75.4615 51.7606C75.4615 51.6261 75.4573 51.4916 75.4573 51.3551C75.2746 48.96 75.2683 48.3549 75.2767 42.7643C75.2389 43.2601 75.2242 42.7643 75.2557 42.1424C75.2683 41.8314 75.3124 41.4911 75.3418 41.2285C75.3817 40.9679 75.4048 40.781 75.3901 40.7768C75.6484 39.304 76.2238 37.8816 77.0491 36.64C77.8744 35.3962 78.9475 34.3331 80.1592 33.5264C81.3709 32.7175 82.7233 32.1713 84.082 31.8939C84.7624 31.7553 86.6335 31.6817 87.3034 31.6649C87.9523 31.6523 73.6555 31.4947 74.275 31.4821C82.1941 31.3561 74.0755 31.5641 81.0055 31.375C82.99 31.312 73.2103 31.1985 76.1797 31.167C77.4313 31.1418 75.0877 31.1124 76.4758 31.0851C75.0163 31.0724 77.2528 31.0598 75.7891 31.0493C74.8021 31.0178 81.3604 30.9968 80.3776 30.8687C80.3776 30.8687 80.3566 30.8687 80.3167 30.8666C80.2768 30.8666 80.2138 30.8666 80.134 30.8666C79.9744 30.8666 79.7371 30.8666 79.4284 30.8666C78.8131 30.8687 77.2276 30.7258 76.1041 30.73C73.8592 30.7405 89.3425 30.9002 85.7158 30.9191C78.4624 30.9548 83.9749 30.8477 76.354 30.8519C73.3846 30.7573 79.6216 30.5304 81.6103 30.4989C81.8287 30.4905 82.0828 30.4821 82.3222 30.4737C80.05 30.4674 85.0879 30.4611 82.8409 30.4527C79.2646 30.4821 85.0837 30.5136 81.478 30.543C80.0248 30.5535 77.8765 30.4212 76.4191 30.4317C75.6904 30.438 74.9596 30.4422 74.2288 30.4485L73.1326 30.4569C72.7588 30.4611 87.3559 30.6018 86.9212 30.6207C85.2664 30.6817 82.4293 31.083 80.932 31.7952C79.4326 32.5053 78.0802 33.5243 76.9882 34.7701C78.1453 33.4276 79.609 32.3393 81.2323 31.5998C82.0009 31.2447 82.8493 30.959 83.725 30.7762C84.1639 30.6859 85.8019 30.6123 86.2576 30.5682C86.4865 30.5472 86.7154 30.5262 86.9464 30.5199L87.2929 30.5073L72.6706 30.3581C73.4896 30.3497 74.3254 30.3392 75.1738 30.3308C76.8706 30.3203 79.3108 30.4548 81.1042 30.4443C84.6889 30.4338 79.0189 30.438 82.8451 30.4485C86.9107 30.4106 69.8923 30.2258 73.8928 30.1879C74.002 30.1858 74.0944 30.1837 74.1994 30.1816C69.0985 30.169 84.9514 30.3035 79.8715 30.2909C75.2158 30.3287 79.2436 30.2237 74.5144 30.2636C73.9243 30.2678 73.3321 30.272 72.7399 30.2783H72.5173C72.4438 30.2804 87.3034 30.4254 87.2152 30.4296L86.707 30.4464C86.3689 30.4716 86.0287 30.4947 85.6927 30.5451C84.3424 30.7237 81.835 31.1397 80.617 31.749C79.3969 32.3582 78.2881 33.1776 77.3284 34.1419C76.4968 34.9928 75.7807 35.9593 75.2179 37.0098C75.976 35.5664 77.0071 34.2722 78.265 33.2196C79.0105 32.5935 79.8484 32.0305 80.7724 31.5788C81.6964 31.1313 82.6981 30.772 83.7565 30.5661C83.8888 30.5409 84.0211 30.5157 84.1534 30.4905C84.2857 30.4674 85.6108 30.4506 85.7452 30.4317C86.014 30.3896 86.287 30.3707 86.56 30.3476C86.6965 30.3329 86.833 30.335 86.9716 30.3287L87.1774 30.3224L72.4438 30.1732C72.6832 30.1732 72.9226 30.169 73.1641 30.1669C74.1301 30.1606 75.1108 30.1543 76.1062 30.1501C80.0878 30.1333 75.5707 30.2846 79.8715 30.2951C88.7398 30.2153 73.6051 30.1291 82.0807 30.022C76.3204 30.022 86.3101 30.022 80.6212 30.0535C74.8945 30.0955 86.0203 30.1354 80.4952 30.1753C79.1134 30.1858 77.047 30.0514 75.6757 30.0619C74.9911 30.0661 74.3065 30.0724 73.624 30.0766C73.2817 30.0787 72.9415 30.0808 72.5992 30.085L87.2698 30.2342L86.9716 30.2426L86.6734 30.2531L86.3773 30.2762C84.796 30.4001 82.0513 30.8245 80.6359 31.52C79.2205 32.2154 77.9458 33.1734 76.8895 34.3226C75.8332 35.4719 74.9932 36.8144 74.4283 38.2619C73.8634 39.7095 73.5652 41.2579 73.5652 42.7979C73.5862 45.4766 73.6051 48.1469 73.6261 50.813C73.6681 56.1326 73.7101 55.5696 73.7542 60.885C73.8277 63.4566 73.8886 66.0218 73.9096 68.5955C73.9726 74.5349 73.9726 71.144 74.0041 77.0897C74.0356 76.5938 74.0524 77.0897 74.0629 77.7116C74.0692 78.0225 74.0755 78.3629 74.0797 78.6276C74.0839 78.7599 74.086 78.8713 74.0881 78.9511C74.0902 79.0309 74.0944 79.0772 74.0986 79.0772C74.2246 85.0208 74.1931 95.9689 74.1931 102.908C74.1931 103.896 74.1616 103.896 74.1343 104.915C74.2834 109.619 74.3485 87.107 74.3737 92.9456C74.3779 94.4078 74.3842 95.8911 74.3884 97.3891C74.3989 99.0005 74.7496 100.631 75.4237 102.125C76.0978 103.618 77.0869 104.982 78.3196 106.074C79.5502 107.171 81.0139 108.009 82.5847 108.509C83.3806 108.762 85.3966 108.921 86.2324 108.995C86.4424 109.007 86.6503 109.033 86.8603 109.035M99.0718 108.621L74.4346 42.7916C74.4409 42.5836 74.4346 42.3756 74.4556 42.1676C74.4808 41.7516 74.527 41.3377 74.5984 40.928C74.6866 40.3482 74.8273 39.7788 75.0058 39.2221C75.1801 38.6653 75.4006 38.1275 75.6547 37.6127C75.934 37.0497 76.2469 36.5265 76.5934 36.0496C76.9399 35.5727 77.3032 35.1252 77.7001 34.7281C78.0928 34.3289 78.5002 33.9592 78.9307 33.6356C79.357 33.3079 79.8001 33.0116 80.2579 32.7553C79.5292 33.1818 78.8425 33.686 78.2167 34.2617C77.593 34.8395 77.0281 35.4866 76.5388 36.1883C75.5539 37.5896 74.884 39.2221 74.5984 40.928C74.506 41.5163 74.4493 42.113 74.4493 42.7138V42.9386V43.1487L74.4535 43.571C74.4577 43.8526 74.4598 44.1341 74.464 44.4177C74.4766 45.548 74.4892 46.691 74.5018 47.8423C74.5228 50.1449 74.5438 46.6216 74.5669 48.9852C74.5564 46.8422 74.548 50.5693 74.5375 48.4642C74.5312 47.4116 74.527 46.3674 74.5207 45.3358C74.5186 44.819 74.5144 44.3064 74.5123 43.7958C74.5123 43.5416 74.5081 43.2874 74.5081 43.0332C74.5081 42.7769 74.5123 42.4974 74.5249 42.2327C74.6299 40.0835 75.3565 38.0476 76.459 36.3858C77.5678 34.7197 79.0399 33.4255 80.6086 32.562C80.5624 32.583 80.5183 32.6083 80.4742 32.6335C80.68 32.52 80.8879 32.4108 81.0958 32.3078C80.9341 32.3855 80.7661 32.4801 80.6086 32.562C82.003 31.8372 84.7057 31.4023 86.3122 31.2846C86.5138 31.272 86.7154 31.2552 86.9191 31.2552C87.1228 31.2531 72.3997 31.1019 72.5866 31.1061C72.9709 31.1103 73.3636 31.1145 73.7605 31.1187C74.5585 31.125 75.3838 31.1313 76.2532 31.1376L77.9311 31.251V31.3456C76.8181 31.3729 74.9806 31.2489 73.8109 31.2678C73.519 31.272 73.225 31.2762 72.9289 31.2804C72.6328 31.2847 87.2719 31.4296 86.9506 31.4443C86.3227 31.4716 84.4978 31.541 83.872 31.6733C82.6183 31.9359 81.3835 32.4003 80.26 33.081C79.1344 33.7575 78.1117 34.6336 77.2633 35.6651C76.4149 36.6967 75.7471 37.888 75.3019 39.159C75.0814 39.7956 74.9092 40.4511 74.8063 41.1171C74.758 41.4512 74.7139 41.7852 74.6929 42.1214C74.6782 42.2894 74.6719 42.4575 74.6698 42.6256C74.6656 42.7937 74.6614 42.9639 74.6635 43.1193C74.6635 45.6741 74.674 48.2141 74.6971 50.6912C74.8231 63.57 74.8546 61.2422 75.0772 74.1189C75.1087 76.1022 75.0772 79.0793 75.0772 81.0563C74.9554 74.121 74.8504 78.5078 74.7286 71.5747C74.6299 65.9672 74.5669 59.9669 74.5228 53.8216C74.5039 50.75 74.485 53.5064 74.4682 50.3907C74.4598 48.8339 74.4535 47.275 74.4451 45.7182C74.4409 44.9409 74.4388 44.1614 74.4346 43.3862V43.0941C74.4325 42.9996 74.4325 42.9008 74.4346 42.7937L99.0718 108.621Z" fill="#D80000"/>
<path d="M77.6681 35.9697C78.2372 35.2848 78.8819 34.6671 79.5917 34.1335C80.3036 33.6061 81.0764 33.1607 81.8891 32.8162C82.7039 32.4758 84.7472 32.2321 85.6166 32.0934C85.835 32.064 86.0534 32.0325 86.2718 32.0115C86.4923 31.9968 86.7107 31.9695 86.9291 31.9695C87.3701 31.9527 72.8717 31.8161 73.3085 31.8119C75.0515 31.8098 77.4833 31.9527 79.2221 31.9485C86.1731 31.938 76.3661 31.9359 83.4158 31.9653C87.6935 31.9295 75.4505 31.8938 79.7975 31.8581C83.1512 31.8161 72.7415 31.6291 76.07 31.585C84.0185 31.501 68.8544 31.4715 77.6177 31.4547C82.0004 31.4484 76.8218 31.44 81.2129 31.4337C82.3112 31.4316 84.596 31.4295 85.688 31.4274C86.234 31.4274 86.78 31.4253 87.326 31.4232H90.6692L90.8729 31.4211L91.085 31.4295L91.5092 31.4463C93.7709 31.564 94.6361 32.3581 96.4085 33.7217C96.4694 33.7511 96.524 33.7763 96.5723 33.7973C96.6185 33.8204 96.6584 33.8393 96.692 33.854C96.7613 33.8813 96.8033 33.8876 96.8201 33.8687C96.8369 33.8498 96.8222 33.8078 96.7781 33.7385C96.7361 33.667 96.6563 33.5746 96.5366 33.4612C94.5647 31.9485 93.4391 31.0955 90.9485 31.085L80.2742 31.0745C75.6395 31.0808 80.5997 31.0892 75.965 31.0955C69.2219 31.1123 98.666 31.2993 86.8724 31.2657C86.7296 31.2699 86.5805 31.272 86.4377 31.2762C78.5102 31.4673 88.3172 31.4022 78.4157 31.5619C75.9902 31.6081 94.7012 31.6858 87.221 31.7825C85.9547 31.8056 83.504 32.0493 82.3217 32.4926C81.1415 32.9422 80.0411 33.5914 79.0814 34.4024C78.1238 35.2175 77.309 36.1945 76.6769 37.2744C76.0469 38.3564 75.6143 39.5476 75.3854 40.7704C75.5618 39.888 75.8516 39.0308 76.2317 38.2219C76.616 37.413 77.1032 36.6588 77.6639 35.9676L77.6681 35.9697Z" fill="#D80000"/>
<path d="M76.7331 102.12C76.7142 98.2399 76.6953 84.4576 76.6743 80.5246C76.5987 69.585 76.5042 76.0706 76.3887 66.1394C76.3971 73.4276 76.4055 70.4232 76.416 77.8081C76.4496 85.2014 76.6092 95.4834 76.7331 102.12Z" fill="#D80000"/>
<path d="M76.0434 46.2687L76.035 43.819V43.2077L76.0329 42.903L76.0392 42.6194C76.0455 42.2412 76.0812 41.863 76.1295 41.487C76.2954 40.2558 76.707 39.0625 77.3097 37.9763C76.9275 38.6696 76.623 39.4049 76.4172 40.1676C76.2765 40.6781 76.1715 41.2012 76.119 41.7286C76.1001 41.8609 76.0917 41.9933 76.0833 42.1257C76.077 42.258 76.0602 42.3904 76.0623 42.5227L76.056 42.9198V43.3484L76.1127 50.2164C76.1526 54.7944 76.1925 53.5065 76.2324 58.0824C76.2639 60.8053 76.2975 63.4735 76.329 66.1375C76.3143 60.7359 76.2996 55.3554 76.2828 49.9874C76.2744 47.3045 76.2639 50.4896 76.2555 47.8108C76.2513 46.4725 76.245 45.1342 76.2408 43.7959V43.2938C76.2408 43.1299 76.2345 42.9492 76.2408 42.8043C76.245 42.653 76.2429 42.4996 76.2534 42.3484L76.287 41.8925C76.3458 41.2874 76.4655 40.6886 76.6356 40.1045C76.9107 39.1423 77.3391 38.2263 77.8893 37.388C78.1686 36.972 78.4773 36.5749 78.8133 36.201C79.1493 35.827 79.5189 35.4845 79.9053 35.1652C81.4614 33.8899 84.6009 33.1042 86.6169 32.955C86.7429 32.9424 86.8689 32.9361 86.9949 32.934C87.123 32.9298 72.3117 32.7785 72.4482 32.7764L73.2714 32.7701L74.9199 32.7575L78.9078 32.8794L78.1875 32.831C101.813 32.6357 84.6282 32.5621 78.5865 32.6125C80.5836 32.5978 83.7546 32.5831 85.7244 32.5705C77.5449 32.5642 84.0465 32.4108 75.9552 32.4045C71.9085 32.4045 85.3086 32.5516 81.3123 32.5516C79.3131 32.5537 76.6314 32.4108 74.649 32.4129C74.1534 32.4129 73.6578 32.4129 73.1643 32.415L87.354 32.5621C87.1146 32.5705 86.8815 32.5684 86.6463 32.5873C86.1759 32.6146 84.5232 32.6861 84.0633 32.7722C83.6076 32.8752 83.1519 32.9865 82.713 33.1483C80.9511 33.7681 79.3719 34.8732 78.1959 36.2976C77.0178 37.72 76.2303 39.449 75.951 41.2496C75.9132 41.4744 75.8901 41.7013 75.8649 41.9261C75.8502 42.153 75.8271 42.3799 75.8271 42.6068L75.8208 42.9492V43.3085L75.825 44.0249C75.8292 44.9788 75.8355 45.9305 75.8397 46.8801C75.8523 48.7773 75.8628 50.6597 75.8754 52.5296C75.9279 60.0069 76.0014 61.3893 76.1001 68.333C76.1064 68.8414 76.1148 69.4108 76.1232 69.9507C76.1064 63.3411 76.0917 56.7672 76.0749 50.2143C76.0644 46.939 76.0518 49.5336 76.0413 46.2687H76.0434ZM77.3244 37.9469C77.3811 37.846 77.4399 37.7452 77.4987 37.6443C77.4399 37.7452 77.3811 37.8439 77.3244 37.9469Z" fill="#D80000"/>
<path d="M79.3379 32.0032C80.2976 32.0032 81.2447 32.0053 82.1939 32.0074C83.3006 31.9969 85.577 31.9864 86.6648 31.9759C85.997 31.9738 84.1406 31.9696 83.4812 31.9675C82.0952 31.9801 80.7092 31.9927 79.3379 32.0053V32.0032Z" fill="#D80000"/>
<path d="M73.6895 52.7439V56.7084C73.7084 57.3114 73.7273 57.908 73.7462 58.511C73.7462 57.5845 73.7504 56.6454 73.7525 55.7125L73.6895 52.7439Z" fill="#D80000"/>
<path d="M74.202 104.908C74.0676 87.3486 73.9437 77.1989 73.8198 60.8829C73.7967 60.0908 73.7715 59.2987 73.7484 58.5088C73.7295 69.459 73.7694 70.0199 73.9437 80.0583C73.9752 82.0374 74.0697 79.1486 74.0697 81.1256C74.0991 90.5042 74.1999 96.6894 74.2923 105.597C74.2629 101.339 74.2335 109.669 74.2041 105.274C74.2041 105.15 74.2041 105.032 74.202 104.908Z" fill="#D80000"/>
<path d="M99.3066 120.825C99.3171 121.378 99.3276 121.872 99.3381 122.336V120.8C99.3381 120.8 99.3171 120.817 99.3066 120.825Z" fill="#D80000"/>
<path d="M99.6934 123.447C99.7018 123.571 99.7102 123.691 99.7186 123.838V123.355C99.7102 123.409 99.7018 123.418 99.6934 123.447Z" fill="#D80000"/>
<path d="M99.5602 123.132C99.4867 122.668 99.4153 122.038 99.3418 122.489C99.3943 124.802 99.4573 126.216 99.5602 127.601V123.132Z" fill="#D80000"/>
<path d="M90.9035 119.222C92.384 119.207 93.9884 119.191 95.6411 119.172C96.0548 119.168 96.4706 119.165 96.8906 119.161C97.0985 119.161 97.3064 119.161 97.5143 119.159C97.6865 119.163 97.8608 119.178 98.0288 119.222C98.705 119.378 99.2909 119.886 99.5555 120.527C99.6353 120.689 99.7067 120.857 99.7445 121.029C99.755 121.071 99.7676 121.115 99.776 121.157C99.7823 121.201 99.7886 121.243 99.7949 121.285C99.8096 121.365 99.818 121.468 99.8264 121.565V121.371L99.8159 121.203C99.8159 121.147 99.8054 121.092 99.797 121.035C99.7865 120.981 99.7844 120.924 99.7676 120.869C99.7214 120.649 99.6332 120.441 99.5282 120.243C99.419 120.048 99.2783 119.871 99.1208 119.712C98.9612 119.554 98.7764 119.426 98.5811 119.317C98.3837 119.214 98.1716 119.142 97.9532 119.092C97.8419 119.079 97.7348 119.052 97.6214 119.052C97.5647 119.052 97.5143 119.046 97.4492 119.046H97.256C96.7394 119.046 96.2249 119.048 95.7125 119.05C93.6587 119.058 99.3308 119.067 97.3484 119.073C85.6787 119.142 93.0791 119.331 97.3778 119.224C102.189 119.224 86.6195 119.17 91.25 119.161C91.2521 119.142 91.3277 119.132 92.0963 119.161C91.8002 119.161 91.5272 119.161 91.25 119.161C91.2395 119.18 91.2878 119.205 90.9035 119.218V119.222Z" fill="#D80000"/>
<path d="M78.5165 136.376C78.5438 141.509 78.653 133.694 78.7601 138.246C78.6698 128.582 78.6257 141.7 78.5039 134.326C78.5081 138.561 78.5123 132.099 78.5165 136.376Z" fill="#D80000"/>
<path d="M79.1789 138.213C79.2377 131.859 79.1579 139.337 79.0508 134.339C79.0781 139.423 79.1054 131.763 79.1306 136.79C79.1453 137.261 79.1621 137.759 79.1789 138.213Z" fill="#D80000"/>
<path d="M78.9787 139.786C78.9829 127.477 78.7204 136.616 78.7582 138.244C78.7477 137.215 78.7372 128.513 78.9787 139.786Z" fill="#D80000"/>
<path d="M82.7971 117.115C86.617 117.023 90.1156 116.983 91.4323 116.972C92.0161 116.928 92.7868 116.873 93.8326 116.806H93.1522C89.2084 116.859 91.3504 116.911 87.3016 116.964C85.6468 117.004 83.1394 117.048 81.8164 117.1C84.2755 117.107 80.3548 117.111 82.7971 117.117V117.115Z" fill="#D80000"/>
<path d="M92.0737 116.974C87.0967 117.352 97.2166 116.934 92.0737 116.974V116.974Z" fill="#D80000"/>
<path d="M93.1385 118.966C92.9453 118.966 92.7479 118.966 92.5526 118.966C91.9898 118.972 91.4123 118.981 90.8516 118.987C91.6307 118.978 92.3699 118.972 93.1364 118.966H93.1385Z" fill="#D80000"/>
<path d="M77.0182 127.107C77.0056 123.752 76.9825 128.074 76.9531 124.769C76.9867 131.582 77.0203 130.021 77.1148 135.713C77.1148 134.866 77.1463 134.759 77.1463 133.912C77.0833 132.212 77.0203 129.668 77.0203 127.109L77.0182 127.107Z" fill="#D80000"/>
<path d="M99.6792 138.559C99.6708 138.788 99.6603 139.013 99.6477 139.208C99.6876 142.444 99.7464 129.676 99.6792 130.584C99.5469 131.765 99.4776 141.238 99.3411 137.339C99.3159 137.231 99.2929 137.072 99.2677 136.855V130.733C99.2593 130.588 99.2509 130.471 99.2425 130.34C99.1984 130.494 99.1543 130.311 99.1102 130.029V139.404C99.0072 138.015 98.9442 131.706 98.8917 129.389C98.8917 129.393 98.8896 129.393 98.8875 129.399V129.233C98.877 128.765 98.8686 129.021 98.856 128.473C98.6292 137.587 98.4108 128.279 98.1273 125.365C98.1168 126.227 98.1168 127.279 98.1273 128.452H98.0329C97.9698 136.097 97.8417 134.639 97.6842 141.435C97.6527 143.137 97.5246 126.664 97.5246 129.214C97.5246 129.51 97.4637 126.418 97.5246 139.713C97.5477 143.337 97.5729 138.295 97.596 141.843C97.6065 143.618 97.617 129.767 97.6254 131.527L97.6296 137.093V137.175C97.6296 137.192 97.6296 137.194 97.6296 137.198V137.21C97.6275 137.227 97.6254 137.244 97.6275 137.259C97.6275 137.292 97.6171 137.322 97.6171 137.353C97.5898 137.475 97.5373 137.593 97.4575 137.698C97.3714 137.797 97.2663 137.881 97.1487 137.931C97.0878 137.95 97.029 137.979 96.9639 137.984C96.9324 137.994 96.8988 137.99 96.8652 137.994C96.8526 137.994 96.8568 137.996 96.8337 137.998H96.7519H96.588C89.5866 138.026 101.523 138.051 94.5279 138.078C94.6203 138.084 94.6645 138.093 94.6519 138.099C91.2814 138.105 86.9658 138.112 83.526 138.118C80.1282 138.118 83.9712 138.213 80.5692 138.213C69.1074 138.229 104.207 138.244 93.0306 138.261C87.4425 138.28 87.3312 138.299 81.7515 138.318L80.7057 138.322H80.4432H80.3781C80.3571 138.322 80.3298 138.322 80.3256 138.322L80.271 138.318H80.2164L80.1619 138.307L80.1073 138.301L80.0548 138.286C79.7755 138.221 79.5171 138.032 79.3617 137.782C79.284 137.656 79.2315 137.519 79.2063 137.374C79.2 137.339 79.1916 137.303 79.1937 137.263C79.1937 137.221 79.1854 137.208 79.1875 137.099V136.576L79.1769 134.479C79.1643 131.683 79.1518 139.597 79.1371 136.79C79.0804 135.04 79.0299 141.782 78.9858 139.788C78.9858 141.137 78.9795 133.916 78.9669 135.378C78.4608 121.779 78.5239 144.444 78.2698 130.847C78.1396 123.124 78.0556 134.675 78.003 126.216C77.9967 125.159 77.9905 124.096 77.9842 123.031C77.9821 122.497 77.9778 121.964 77.9757 121.428C77.9694 120.949 78.0975 120.489 78.3537 120.09C78.4839 119.894 78.6394 119.714 78.8179 119.56C79.0006 119.411 79.2021 119.285 79.4184 119.191C79.6368 119.1 79.8679 119.044 80.1052 119.016C80.3278 118.997 80.6175 119.004 80.8842 119.001C81.9657 118.997 83.0535 118.995 84.1434 118.991C88.503 118.983 87.4593 118.976 91.9155 118.968C100.696 118.854 83.9859 118.754 93.2196 118.672C84.7986 118.787 101.916 118.878 92.4994 118.968C101.981 118.974 65.3022 118.98 74.9706 118.987C85.8297 118.909 81.615 118.926 92.6379 118.871C95.1894 118.84 88.0011 118.84 89.7042 118.777C90.9075 118.693 92.115 118.607 93.1902 118.531C89.8302 118.541 96.105 118.575 93.144 118.611C93.5304 118.598 93.4863 118.573 93.4905 118.554C88.8621 118.56 94.6896 118.617 89.8932 118.617C96.693 118.447 86.1216 118.447 94.4334 118.428C94.8639 118.39 95.2524 118.352 95.5884 118.312C78.3495 118.264 105.673 118.34 88.6396 118.489C85.5547 118.527 87.6337 118.567 84.4648 118.607C86.0293 118.617 81.2118 118.63 82.7994 118.64H84.0888C83.2761 118.64 82.4718 118.64 81.6486 118.64C77.2701 118.684 91.4326 118.741 84.7 118.808C90.2608 118.741 75.3465 118.684 79.1979 118.636C75.3213 118.628 90.0381 118.619 84.2148 118.607C81.7683 118.611 85.7205 118.615 83.3034 118.619C82.6986 118.621 82.096 118.625 81.4954 118.628C81.1951 118.628 80.8947 118.632 80.5944 118.634C80.2962 118.63 79.9875 118.644 79.6935 118.718C79.1013 118.854 78.5763 119.214 78.2025 119.68C77.8308 120.151 77.6271 120.743 77.6229 121.334C77.7111 126.334 77.7468 120.941 77.8371 126.807C77.8497 126.933 77.8603 127.048 77.875 127.155C77.8729 127.603 77.8707 128.044 77.8686 128.487C77.8938 129.239 77.9211 122.363 77.9379 122.863C78.0072 128.996 78.0912 134.389 78.1332 140.839C78.1416 141.389 78.15 131.981 78.1606 132.546C78.192 134.25 78.1606 136.049 78.1606 137.75C78.1606 135.145 78.15 143.328 78.1332 140.839C78.0114 133.603 77.835 136.467 77.8686 128.487C77.8539 127.975 77.8434 127.494 77.8434 127.155C77.8434 127.04 77.8392 126.924 77.8392 126.807C77.6544 124.752 77.6544 131.231 77.6544 126.435C77.5914 127.288 77.623 124.731 77.56 124.731C77.5432 124.094 77.5285 123.456 77.5117 122.821C77.5033 122.504 77.4948 122.187 77.4885 121.869L77.4759 121.394C77.478 121.229 77.4802 121.06 77.5096 120.897C77.6083 120.237 77.94 119.609 78.4461 119.165C78.9459 118.722 79.6011 118.449 80.2689 118.426C82.7112 118.367 85.9809 118.31 88.1082 118.26C94.9017 118.134 74.7439 118.197 80.6869 118.006C82.39 117.943 79.3975 117.974 81.9427 117.943C83.0158 117.917 85.1116 117.888 86.3044 117.861C85.0507 117.848 82.8645 117.835 81.6087 117.825C80.7624 117.793 83.7886 117.627 82.9444 117.499C82.9444 117.499 82.9255 117.499 82.8919 117.497C82.8562 117.497 82.8036 117.497 82.7364 117.497C82.5978 117.497 82.3963 117.497 82.1317 117.497C81.6046 117.499 80.836 117.504 79.8742 117.506C77.9485 117.516 95.8089 117.531 92.6988 117.55C86.4765 117.585 83.8305 117.623 77.2932 117.627C74.748 117.533 79.5025 117.159 81.2098 117.127C81.3967 117.119 81.615 117.111 81.8208 117.102C79.872 117.096 77.919 117.09 75.9933 117.081C72.9252 117.111 90.3993 117.142 87.306 117.172C84.8133 117.195 88.7004 117.218 86.1888 117.241C84.933 117.251 82.7427 117.264 81.4827 117.275L80.5377 117.283H80.4202C80.3782 117.283 80.3508 117.283 80.2836 117.287C80.1639 117.291 80.0464 117.3 79.9267 117.308C79.8091 117.325 79.6893 117.344 79.5717 117.363C79.4541 117.384 79.3386 117.417 79.2231 117.449C78.3012 117.716 77.4906 118.31 76.9614 119.1C77.5179 118.249 78.4062 117.615 79.4121 117.373C79.662 117.314 79.9182 117.272 80.1744 117.262L80.3571 117.254H80.4831L80.7373 117.245C81.0754 117.237 81.4134 117.23 81.7494 117.222C82.3899 117.207 83.0598 117.19 83.7339 117.174C89.1456 117.06 69.4308 117.062 75.9933 117.081C79.4814 117.043 83.8746 117.003 87.306 116.966C87.3984 116.964 87.4803 116.961 87.5685 116.959C83.1921 116.947 98.3625 116.934 94.005 116.924C90.0108 116.961 92.3712 117.001 88.3161 117.041C86.2875 117.06 83.3223 117.077 81.2832 117.096L80.5188 117.102H80.3214L80.0211 117.121C79.9203 117.125 79.8216 117.14 79.7208 117.157C79.6221 117.174 79.5214 117.186 79.4227 117.211C79.0279 117.3 78.6478 117.449 78.2929 117.64C77.9422 117.84 77.6187 118.083 77.3331 118.365C77.0538 118.653 76.8103 118.976 76.615 119.329C76.4281 119.684 76.279 120.062 76.195 120.457C76.1677 120.554 76.1593 120.655 76.1425 120.754C76.1278 120.852 76.1109 120.953 76.1088 121.052L76.0962 121.352V121.388V121.411V121.46V121.556L76.1025 122.325L76.0921 121.817L76.0879 121.563V121.437C76.0858 121.411 76.0836 121.401 76.0836 121.365V121.266C76.092 120.739 76.1992 120.203 76.4029 119.71C76.8082 118.718 77.5935 117.892 78.5784 117.438C79.1055 117.19 79.6957 117.05 80.29 117.035C80.668 117.027 81.0522 117.018 81.4407 117.008C82.2051 116.995 82.9864 116.98 83.7844 116.968C85.3804 116.945 80.649 116.93 82.3563 116.922C85.773 116.905 90.3132 116.909 94.0029 116.922C101.611 116.842 82.5831 116.756 89.8533 116.648C84.9141 116.648 85.2375 116.648 80.3571 116.68C75.4452 116.722 91.1953 116.762 86.4577 116.802C84.0889 116.823 87.1989 116.844 84.8637 116.865C83.6961 116.875 82.5307 116.886 81.3694 116.896L80.5 116.905H80.3907H80.3361L80.2479 116.909C80.1282 116.913 80.0106 116.922 79.8909 116.93C79.6536 116.961 79.4164 116.997 79.1854 117.064C78.7234 117.193 78.2802 117.388 77.8854 117.655C77.4906 117.922 77.1399 118.247 76.8459 118.621C76.26 119.365 75.922 120.312 75.9052 121.254V121.342L75.9009 121.386V121.413V121.521V121.737L75.9073 122.17L75.9156 123.033C75.9261 124.185 75.9366 125.332 75.9471 126.479C75.9681 128.771 75.9892 124.563 76.0102 126.844C76.0522 131.408 76.0941 122.739 76.1382 127.3C76.2117 129.506 76.2726 131.706 76.2936 133.914C76.3566 139.009 76.3566 133.5 76.3881 138.599C76.4196 138.175 76.4364 138.599 76.4469 139.133C76.4532 139.4 76.4595 139.692 76.4637 139.919C76.47 140.146 76.4743 140.305 76.4827 140.305C76.6087 145.402 76.5771 128.319 76.5771 134.271C76.5771 135.118 76.5456 135.118 76.5183 135.992C76.6674 140.026 76.7325 132.767 76.7577 137.776C76.7619 140.28 76.7683 132.145 76.7725 134.752C76.7725 135.404 76.7725 136.057 76.7725 136.713V137.206L76.7871 137.528C76.7955 137.635 76.8165 137.742 76.8312 137.847C76.9089 138.271 77.0664 138.683 77.2911 139.051C77.7384 139.79 78.4608 140.356 79.2882 140.61L79.6032 140.692C79.7103 140.711 79.8175 140.727 79.9225 140.742C80.0296 140.757 80.1366 140.757 80.2437 140.763L80.3235 140.767H80.3865H80.5083H81.4911C84.1455 140.759 80.4327 140.757 83.1606 140.767C80.5293 140.767 84.2106 140.767 81.4911 140.767C81.1131 140.767 80.7351 140.769 80.3571 140.772C79.8804 140.776 79.3638 140.683 78.9102 140.484C77.9925 140.093 77.2597 139.307 76.9342 138.364C76.8502 138.129 76.7955 137.885 76.7619 137.639C76.7409 137.517 76.743 137.391 76.7325 137.269C76.7283 137.202 76.7283 137.158 76.7283 137.112V136.971C76.7241 136.597 76.7221 136.223 76.7179 135.851C76.7116 135.105 76.7052 135.11 76.6989 134.366C76.6674 131.393 76.6338 138.406 76.6023 135.45C76.6275 139.066 76.6506 131.922 76.6737 135.465C76.6758 135.908 76.68 136.349 76.6821 136.792V137.124L76.6842 137.21L76.6884 137.322L76.701 137.545C76.7346 137.839 76.7934 138.133 76.8984 138.412C77.0979 138.971 77.434 139.48 77.8729 139.874C78.0871 140.078 78.3348 140.24 78.591 140.387C78.8535 140.522 79.1265 140.637 79.4142 140.706C79.6998 140.784 79.9938 140.814 80.2857 140.82H80.9535L82.2702 140.812C83.148 140.807 84.0258 140.803 84.9015 140.799C92.8458 140.774 73.8115 140.751 80.0002 140.73C93.5893 140.698 75.0924 140.572 87.831 140.444C93.0285 140.396 89.0826 140.402 94.2696 140.423C93.8286 140.444 93.3981 140.465 92.9865 140.484C96.2121 140.488 89.6454 140.492 92.829 140.496C93.6249 140.496 94.4229 140.494 95.2209 140.492C95.6199 140.492 96.021 140.49 96.4221 140.488C96.6279 140.486 96.8044 140.492 97.0648 140.475C97.3084 140.461 97.5477 140.41 97.7829 140.343C98.7195 140.055 99.5112 139.332 99.8682 138.412C99.9081 138.297 99.9564 138.181 99.9837 138.061C100.015 137.942 100.045 137.822 100.059 137.7C100.068 137.639 100.078 137.578 100.085 137.517L100.093 137.332C100.101 137.2 100.097 137.108 100.097 137.002C100.095 136.593 100.093 131.279 100.091 130.866C100.087 130.269 100.082 130.424 100.08 129.824M98.7804 129.521C98.7741 129.651 98.7657 141.625 98.7573 141.763C98.7426 140.864 98.7258 140.902 98.7111 140.03C98.7489 140.662 98.7783 128.697 98.7783 129.521H98.7804ZM98.5894 138.902C98.5894 138.902 98.6041 138.927 98.6146 138.969C98.6314 141.488 98.7825 126.141 98.6817 136.879C98.6082 124.855 98.5831 140.223 98.5894 138.9V138.902ZM98.0265 137.276C98.0202 137.297 98.0224 137.318 98.0119 137.337C98.0161 137.318 98.0119 137.297 98.0119 137.28C98.0161 137.28 98.0223 137.276 98.0265 137.276ZM76.7494 121.239C76.7536 121.159 76.7556 121.081 76.764 121.004C76.7871 120.848 76.8018 120.693 76.8438 120.542C76.9089 120.237 77.0329 119.953 77.1673 119.684C77.3185 119.424 77.4822 119.172 77.688 118.959C78.0849 118.522 78.5847 118.205 79.1202 118.018C79.3869 117.92 79.6641 117.867 79.9413 117.833C80.0757 117.825 80.227 117.817 80.3467 117.817C80.4517 117.817 80.5567 117.817 80.6596 117.819C80.9137 117.819 81.1635 117.814 81.4134 117.814C81.2706 117.817 81.1195 117.821 80.9767 117.823C83.4757 117.85 79.4878 117.901 82.4698 117.92L83.316 117.888V117.983C81.405 118.037 85.7793 118.071 83.6961 118.088C82.6545 118.094 81.5962 118.1 80.5252 118.104H80.3235L80.0821 118.117C80.0002 118.117 79.9203 118.13 79.8405 118.144C79.7607 118.159 79.6788 118.165 79.599 118.188C79.2798 118.258 78.9733 118.384 78.6877 118.543C78.1207 118.869 77.6481 119.367 77.3646 119.964C77.2869 120.111 77.2365 120.268 77.1798 120.424C77.1378 120.584 77.0916 120.743 77.0727 120.907C77.0412 121.069 77.0413 121.237 77.0329 121.399V121.808C77.0329 122.355 77.0329 122.903 77.0329 123.451C77.0329 124.548 77.0329 125.647 77.0329 126.744C77.0329 128.935 77.0433 124.617 77.0664 126.744C77.1924 137.79 77.2239 125.008 77.4465 136.053C77.478 137.755 77.4465 132.433 77.4465 134.128C77.352 128.178 77.1924 141.669 77.0979 135.721C76.8984 126.101 76.8501 135.597 76.7934 124.975C76.7787 124.04 76.7641 123.109 76.7494 122.193C76.7473 121.943 76.743 121.697 76.7409 121.455C76.7409 121.403 76.741 121.317 76.7452 121.239H76.7494ZM84.8511 140.608C83.6667 140.608 87.8541 140.608 84.6642 140.604C83.5344 140.608 82.3921 140.61 81.2392 140.614C80.9515 140.614 80.6637 140.616 80.3739 140.618H80.3194L80.2521 140.616L80.1156 140.61C80.0253 140.608 79.933 140.599 79.8427 140.585C79.66 140.564 79.4835 140.517 79.305 140.469C78.6057 140.248 77.9694 139.811 77.5389 139.208C77.3226 138.91 77.1505 138.578 77.035 138.223C76.9846 138.045 76.9362 137.866 76.9131 137.681L76.8921 137.542L76.8837 137.404L76.8754 137.265L76.8711 137.196V137.141L76.8564 135.389C76.8459 134.221 76.8355 133.803 76.8229 132.641C76.7935 130.317 76.764 137.982 76.7346 135.742C76.9152 134.265 77.0098 136.145 77.0602 139.925C77.0854 141.816 77.0979 133.469 77.1063 136.126C77.1063 136.458 77.1063 136.797 77.1084 137.137C77.1084 137.177 77.1085 137.225 77.1127 137.278L77.121 137.429C77.121 137.53 77.1441 137.631 77.1588 137.732C77.1714 137.832 77.1987 137.931 77.226 138.032C77.2491 138.133 77.2849 138.229 77.3227 138.326C77.6125 139.101 78.2256 139.767 79.0131 140.116C79.4058 140.293 79.8384 140.387 80.2731 140.391C80.6448 140.391 81.0187 140.391 81.3946 140.391C82.1443 140.391 82.9023 140.391 83.6688 140.391C96.8526 140.383 78.4734 140.303 81.7557 140.034C86.0733 140.517 92.5791 140.606 84.8469 140.606L84.8511 140.608ZM78.19 137.164C78.19 137.236 78.1983 137.282 78.2025 137.339C78.2025 137.393 78.213 137.446 78.2235 137.496C78.234 137.547 78.2403 137.595 78.2508 137.639C78.2634 137.683 78.2781 137.725 78.2886 137.765C78.4461 138.232 78.7947 138.692 79.3008 138.961C79.5528 139.095 79.8363 139.183 80.1387 139.196H80.2521L80.3088 139.2H80.3823C80.4852 139.196 80.5881 139.194 80.6931 139.194C80.901 139.19 81.1131 139.185 81.3273 139.181C83.0388 139.152 85.8528 139.131 87.8184 139.112C91.7475 139.076 89.6034 139.053 93.4275 138.99C95.9727 138.948 77.9631 138.906 80.5083 138.864C92.3964 138.738 72.123 138.61 84.87 138.547C89.9646 138.515 87.6945 138.452 92.7954 138.387C94.5069 138.366 94.1898 138.362 95.8761 138.364C95.9517 138.372 96.0378 138.381 96.1302 138.389C94.0596 138.4 94.0134 138.408 91.9429 138.419C90.2397 138.45 97.6905 138.545 96.8379 138.545C93.438 138.608 88.2637 138.608 84.0175 138.639C80.6218 138.702 82.7595 138.639 78.5154 138.671C78.0912 138.671 77.665 138.687 77.3479 138.706C77.0308 138.725 76.8165 138.75 76.8165 138.765C70.8735 138.702 94.1793 138.891 88.23 138.86L83.4609 138.923C80.061 138.954 83.9061 139.017 79.6557 139.049C76.2558 139.049 94.2759 139.175 91.7265 139.175C87.4803 139.2 88.6941 139.225 84.6579 139.251C83.6499 139.259 82.6524 139.267 81.6738 139.274C81.4281 139.276 81.1845 139.278 80.943 139.28C80.8212 139.28 80.7016 139.282 80.5798 139.284H80.3992L80.3109 139.286L80.2417 139.282C80.0548 139.286 79.872 139.242 79.6935 139.2C79.5192 139.139 79.345 139.076 79.1917 138.973C78.8746 138.786 78.6204 138.505 78.4398 138.192C78.2676 137.87 78.1711 137.526 78.1669 137.15C78.148 136.25 78.1312 135.374 78.1144 134.523C78.1459 134.95 78.1626 135.589 78.1731 136.225C78.1794 136.544 78.1837 136.864 78.19 137.156V137.164Z" fill="#D80000"/>
<path d="M77.5592 121.285C77.5718 120.897 77.6683 120.51 77.8384 120.159C78.1765 119.457 78.8233 118.913 79.573 118.705C79.7599 118.653 79.951 118.617 80.1442 118.607C80.3395 118.592 80.5243 118.598 80.7154 118.596C81.0913 118.596 81.4693 118.596 81.8452 118.596C84.8545 118.59 81.4504 118.586 84.4303 118.579C91.3246 118.569 77.6326 118.571 82.7503 118.596C86.4211 118.56 84.9071 118.525 88.6367 118.489C91.5137 118.447 73.8086 118.405 76.6646 118.363C90.2999 118.193 81.8915 118.249 96.539 118.174C96.7553 118.128 96.8749 118.079 96.8854 118.035C96.877 117.985 96.7573 117.936 96.4948 117.888C80.5894 117.785 109.586 117.955 93.6892 117.901C93.5653 117.905 93.4393 117.907 93.3154 117.911C86.5156 118.102 101.247 118.037 92.7548 118.197C88.5086 118.291 90.6527 118.354 86.4065 118.415L82.2904 118.46L80.6986 118.483C80.5642 118.485 80.4361 118.485 80.2975 118.489C80.1568 118.497 80.014 118.504 79.8754 118.533C79.7347 118.55 79.6003 118.596 79.4638 118.634C79.3315 118.684 79.1971 118.731 79.0732 118.8C78.8212 118.926 78.586 119.088 78.3865 119.285C78.1849 119.481 78.0044 119.699 77.8721 119.947C77.5907 120.43 77.4773 121.01 77.5046 121.548L77.5592 124.733C77.5592 123.966 77.5592 123.201 77.5592 122.437C77.5592 122.054 77.5529 121.676 77.5634 121.292L77.5592 121.285Z" fill="#D80000"/>
<path d="M79.0495 134.339C79.0306 131.011 79.0117 137.631 78.9907 134.257C78.9151 124.874 78.8206 140.32 78.7051 131.803C78.7135 138.053 78.7219 132.878 78.7324 139.211C78.766 145.553 78.9256 128.645 79.0495 134.336V134.339Z" fill="#D80000"/>
<path d="M78.4368 126.937L78.4914 126.332C78.5313 130.258 78.5712 120.968 78.6111 124.895C78.6426 127.231 78.6762 129.519 78.7077 131.803C78.672 122.537 78.6384 133.053 78.6048 123.878L78.5922 122.464L78.5859 121.756V121.403V121.281C78.588 121.243 78.5859 121.203 78.5943 121.166C78.6531 120.558 79.0689 119.995 79.6338 119.745C79.7766 119.691 79.9215 119.634 80.0769 119.619C80.1525 119.6 80.2323 119.607 80.31 119.596C80.3247 119.594 80.3604 119.596 80.3877 119.594H80.4759L80.6523 119.592L82.0656 119.579L84.8943 119.556L90.7449 119.462C98.286 119.388 79.8039 119.317 87.3429 119.243C89.0565 119.228 91.0053 119.214 92.6958 119.201C78.6636 119.182 95.8899 119.165 82.41 119.201C81.9879 119.201 81.5679 119.203 81.1479 119.205H80.5179L80.3604 119.207C80.3058 119.207 80.2722 119.212 80.2281 119.214L80.1021 119.22L79.9782 119.241C79.3125 119.342 78.7203 119.789 78.4137 120.38C78.2625 120.676 78.1806 121.004 78.1743 121.338C78.1701 121.376 78.1722 121.43 78.1743 121.483V121.638V121.949V122.571C78.1806 123.401 78.1848 124.227 78.189 125.052C78.21 128.349 78.231 125.109 78.252 128.317C78.3045 134.731 78.378 127.731 78.4767 133.687C78.483 134.124 78.4914 133.864 78.4998 134.326C78.4683 124.002 78.4389 134.24 78.4074 124.05L78.4326 126.935L78.4368 126.937Z" fill="#D80000"/>
<path d="M79.1973 118.632C80.0205 118.632 80.8311 118.634 81.6459 118.636C82.5951 118.626 83.5296 118.615 84.462 118.605C83.8887 118.603 83.3175 118.598 82.7505 118.596C81.5598 118.609 80.3733 118.621 79.1973 118.634V118.632Z" fill="#D80000"/>
<path d="M79.7897 117.859L79.6259 117.886C79.5713 117.899 79.5188 117.913 79.4642 117.926C79.0337 118.035 78.6242 118.228 78.263 118.489C77.5406 119.008 77.024 119.808 76.856 120.689L76.8077 121.021L76.793 121.355V121.874C76.7972 122.216 76.7993 122.559 76.8014 122.901C76.8056 123.588 76.8098 124.275 76.8119 124.964C76.8686 128.765 76.919 120.71 76.9547 124.769C76.9337 121.092 76.9106 129.462 76.8896 126.012C76.8812 125.149 76.8749 124.3 76.8665 123.466C76.8623 123.05 76.8581 122.636 76.8539 122.229C76.8518 122.025 76.8497 121.821 76.8476 121.619V121.468L76.8455 121.392V121.298C76.8539 121.17 76.8539 121.04 76.8749 120.911C77.0009 119.884 77.5973 118.953 78.4268 118.415C78.8384 118.142 79.3046 117.962 79.7792 117.88L79.9577 117.85C80.0165 117.844 80.0774 117.84 80.1362 117.836L80.3147 117.825L80.4554 117.821C80.636 117.817 80.8166 117.815 80.993 117.81C80.8901 117.81 80.783 117.808 80.6759 117.806C80.4995 117.808 80.3651 117.802 80.1215 117.819C80.0102 117.823 79.901 117.836 79.7918 117.854L79.7897 117.859Z" fill="#D80000"/>
<path d="M76.0039 127.996C76.0039 128.847 76.0039 122.859 76.0039 123.714C76.0228 124.231 76.0417 124.743 76.0606 125.26C76.0606 124.464 76.0648 123.661 76.0669 122.859L76.0039 127.996Z" fill="#D80000"/>
<path d="M76.5165 135.984C76.3821 120.922 76.2582 141.291 76.1343 127.296C76.1112 126.617 76.086 125.937 76.0629 125.26C76.044 134.654 76.0839 132.534 76.2582 141.146C76.2897 142.843 76.3842 133.08 76.3842 134.778C76.4136 142.822 76.5144 127.805 76.6068 135.446C76.5774 131.794 76.548 140.07 76.5186 136.301C76.5186 136.196 76.5186 136.093 76.5165 135.988V135.984Z" fill="#D80000"/>
</svg>
