<svg fill="none" height="20" viewBox="0 0 20 20" width="20" xmlns="http://www.w3.org/2000/svg"><path d="m9.10855 18.2134c2.20025 0 4.22115-.7871 5.79905-2.0904l3.6609 3.661c.1428.1428.3295.216.5162.216.1868 0 .3735-.0732.5163-.216.2855-.2856.2855-.7505 0-1.0361l-3.6464-3.6463c1.4058-1.6035 2.2588-3.7013 2.2588-5.99305 0-5.02288-4.0856-9.10855-9.10851-9.10855-5.02288 0-9.10489 4.08201-9.10489 9.10489 0 5.02291 4.08567 9.10851 9.10855 9.10851zm0-16.75266c4.21375 0 7.64415 3.42668 7.64415 7.64415 0 4.21741-3.4304 7.64411-7.64415 7.64411-4.2138 0-7.64415-3.4303-7.64415-7.64411 0-4.2138 3.43035-7.64415 7.64415-7.64415z" fill="#242424"/></svg>