<svg width="190" height="173" viewBox="0 0 190 173" fill="none" xmlns="http://www.w3.org/2000/svg">
<path d="M182.225 26.724C183.033 26.214 183.798 25.7331 183.798 25.7331C183.79 25.7206 183.765 25.7185 183.748 25.7102C183.192 26.0807 182.694 26.4117 182.225 26.724Z" fill="#028093"/>
<path d="M181.004 28.175C181.164 28.0688 181.327 27.9606 181.49 27.8523C181.427 27.8794 181.412 27.8731 181.375 27.8836C181.258 27.9752 181.144 28.0647 181.004 28.175Z" fill="#028093"/>
<path d="M188.458 21.8443C188.289 21.9192 188.07 22.0275 187.812 22.1586C186.397 20.3725 184.981 18.5863 183.581 16.8209C182.132 15.0014 180.7 13.2048 179.302 11.4478L179.191 11.3104L179.135 11.2417L179.108 11.2063C179.1 11.1897 179.083 11.2146 179.07 11.2146L178.754 11.3791C178.543 11.4874 178.333 11.5977 178.124 11.7059C177.668 11.9433 177.213 12.1785 176.763 12.4138C176.253 12.6802 175.744 12.9446 175.242 13.2048C174.741 13.4713 174.235 13.717 173.756 14.0001C172.791 14.5559 171.842 15.0993 170.917 15.6322C169.998 16.1735 169.083 16.6752 168.234 17.2352C168.545 17.0541 168.843 16.8667 169.145 16.7002C169.447 16.5336 169.745 16.3692 170.037 16.2068C170.621 15.882 171.186 15.5677 171.738 15.2596C172.29 14.9515 172.828 14.6496 173.36 14.3519C173.624 14.202 173.889 14.0542 174.152 13.9085C174.416 13.7648 174.685 13.6316 174.95 13.4942C175.957 12.9758 176.955 12.4575 177.995 11.9225C178.203 11.8142 178.414 11.7059 178.629 11.5956C178.735 11.5415 178.843 11.4853 178.952 11.4291L179.033 11.3874C179.045 11.3833 179.062 11.3687 179.073 11.3708L179.102 11.4062L179.216 11.5498C179.523 11.9349 179.838 12.3305 180.163 12.7385C180.169 12.7344 180.175 12.7344 180.19 12.7448C180.204 12.7552 180.223 12.7739 180.269 12.8322C180.356 12.9384 180.507 13.1424 180.775 13.515C180.559 13.2423 180.363 12.9925 180.161 12.7385C180.136 12.7489 180.131 12.8051 179.91 12.5532C180.998 13.8981 182.18 15.3574 183.397 16.8605C184.635 18.4072 185.911 20.0019 187.168 21.5737C187.37 21.7839 187.568 21.99 187.76 22.1878C187.399 22.371 186.964 22.6 186.468 22.8706C184.65 24.203 181.376 26.418 179.913 27.6234C179.171 28.2104 178.854 28.5081 179.356 28.2646C179.862 28.0272 181.165 27.2132 183.75 25.7144C183.541 25.6457 182.795 25.9163 183.51 25.2688C183.946 24.992 184.617 24.6048 185.28 24.2051C185.613 24.0073 185.946 23.8095 186.251 23.6263C186.561 23.4514 186.845 23.2932 187.07 23.1642C187.929 22.5792 186.98 23.0038 186.934 22.9247C187.283 22.7291 187.633 22.5334 187.929 22.3668C188.02 22.4626 188.116 22.5625 188.204 22.6541C188.122 22.5521 188.043 22.4501 187.962 22.3481C188.414 22.0899 188.735 21.8984 188.723 21.8734C188.985 21.6632 188.871 21.6653 188.46 21.8485L188.458 21.8443Z" fill="#028093"/>
<path d="M182.071 26.8281C181.485 27.2111 180.976 27.5879 180.503 27.9252C180.034 28.2666 179.607 28.5789 179.209 28.8682C178.427 29.4699 177.771 30.0049 177.129 30.5441L179.34 29.0036C180.089 28.506 180.837 28.0085 181.587 27.5109C182 27.1175 182.592 26.6262 182.071 26.8281Z" fill="#028093"/>
<path d="M188.898 23.085C189.113 23.3557 189.315 23.6117 189.528 23.8803C188.996 23.1392 188.926 23.0746 188.898 23.085Z" fill="#028093"/>
<path d="M60.0573 71.06C60.3157 71.2828 60.5721 71.5035 60.8264 71.7241C60.9952 71.8719 61.1619 72.0197 61.3287 72.1675C61.5892 72.4007 61.8497 72.6339 62.1103 72.867C62.6272 73.3354 63.1399 73.7997 63.6505 74.2597C67.7107 77.9633 71.4519 81.5148 74.5804 84.5979C71.0476 80.9944 67.3835 77.4824 63.6484 74.0058C63.0815 73.4916 62.5209 72.9857 61.9706 72.4861C61.7059 72.2508 61.4433 72.0177 61.1807 71.7845C61.0285 71.6533 60.8764 71.5243 60.7263 71.3952C60.5783 71.2703 60.4324 71.1475 60.2844 71.0226L60.0698 70.8435L60.0427 70.8206L60.0177 70.8477L59.9697 70.9039L59.8738 71.0142C59.6237 71.3015 59.3778 71.5846 59.1318 71.8657C57.3019 73.9163 55.5281 75.9044 53.7461 77.9029C55.6178 75.8731 57.5019 73.8309 59.3653 71.8116C59.5945 71.5638 59.8259 71.2911 60.0593 71.0559L60.0573 71.06Z" fill="#028093"/>
<path d="M41.4364 91.6927L41.0529 92.1174C40.9487 92.2381 40.8215 92.361 40.7402 92.4775C40.8674 92.5525 40.9924 92.6254 41.1175 92.6982L41.501 92.9314L41.5552 92.9564L41.5823 92.9688L41.6698 93.0209L42.045 93.2478C42.2951 93.3977 42.5431 93.5476 42.7786 93.6892C42.3076 93.3706 41.8449 93.0604 41.3905 92.7544C41.2196 92.6399 41.0758 92.5462 40.9237 92.4546C41.0091 92.3443 41.1258 92.2319 41.2217 92.1236L41.3718 91.9571L41.4468 91.8738L41.7198 91.5782C42.5973 90.6247 43.4498 89.6983 44.2856 88.7886C45.9509 86.9649 47.5308 85.2079 49.0773 83.4779C47.3724 85.312 45.6716 87.1398 43.9771 88.9635C43.1288 89.8753 42.2826 90.785 41.4385 91.6927H41.4364Z" fill="#028093"/>
<path d="M44.6039 88.037C45.7044 86.8442 46.7632 85.6846 47.7949 84.5459C49.8583 82.2705 51.8092 80.0825 53.7455 77.907C51.5341 80.3198 49.3435 82.7076 47.2238 85.0184C46.1691 86.1801 45.1333 87.3209 44.1182 88.4388C43.1261 89.5422 42.1569 90.6205 41.2148 91.6698C41.7943 91.0536 42.3612 90.4478 42.9177 89.8524C43.4888 89.2382 44.0495 88.6324 44.5997 88.0391L44.6039 88.037Z" fill="#028093"/>
<path d="M125.941 45.7641C126.469 45.2395 127.013 44.7336 127.557 44.2278C128.099 43.7198 128.638 43.2139 129.178 42.7081C129.589 42.3 129.979 41.9128 130.35 41.5443C130.725 41.18 131.087 40.8428 131.427 40.5201C132.111 39.8768 132.717 39.3043 133.255 38.7964C133.797 38.2926 134.26 37.8429 134.681 37.4744C135.102 37.1039 135.458 36.7916 135.756 36.5272C136.25 36.0193 136.911 35.351 137.809 34.4517C137.603 34.6265 137.386 34.8139 137.182 34.9888C136.286 35.7819 135.387 36.5772 134.487 37.3745C133.597 38.1843 132.717 39.0108 131.825 39.8331C131.381 40.2453 130.935 40.6575 130.489 41.0697C130.045 41.484 129.614 41.9128 129.174 42.3354C128.299 43.1827 127.421 44.0321 126.54 44.8835C125.147 46.3241 123.828 47.7044 122.744 48.8827C123.809 47.8438 124.876 46.803 125.941 45.7641Z" fill="#028093"/>
<path d="M135.755 36.5272C131.537 40.8594 140.449 32.4344 135.755 36.5272V36.5272Z" fill="#028093"/>
<path d="M114.711 61.4109C115.328 60.7135 115.914 60.0515 116.522 59.3645C116.368 59.5352 116.21 59.7101 116.053 59.8829C115.609 60.3887 115.153 60.9092 114.711 61.4109Z" fill="#028093"/>
<path d="M82.659 90.1105C83.6073 91.2201 84.5869 92.3026 85.4936 93.4476L85.975 94.0326C86.1355 94.2221 86.2856 94.4157 86.4315 94.6134L86.8713 95.1943L87.0901 95.4815L87.1985 95.6252L87.2527 95.696L87.2798 95.7314C87.2798 95.7314 87.2986 95.7668 87.3048 95.7418C87.5007 95.4024 87.6925 95.0652 87.8842 94.7321C88.0822 94.399 88.2782 94.068 88.4741 93.737L87.8759 94.73C87.6841 95.0569 87.4903 95.3858 87.3027 95.7168L87.2965 95.7293C87.2965 95.7293 87.2902 95.723 87.2881 95.7189L87.2715 95.696L87.2381 95.6523L87.1714 95.5648L87.038 95.3879L86.7712 95.034C86.592 94.7966 86.4148 94.5614 86.2377 94.3262C85.7937 93.7807 85.3498 93.2395 84.91 92.7003C84.3556 92.0237 83.7741 91.3825 83.2134 90.7288C82.6548 90.0751 82.0754 89.4506 81.5064 88.8302C80.3788 87.5791 79.2262 86.4049 78.1257 85.2516C77.0002 84.1233 75.9226 83.022 74.8555 82.0019C75.5745 82.7201 76.2561 83.4904 76.9627 84.2253C78.4571 85.6201 80.6101 87.8018 82.6569 90.1084L82.659 90.1105Z" fill="#028093"/>
<path d="M172.022 33.9145C171.537 34.1893 171.833 33.8729 172.533 33.2421C173.909 31.9514 177.002 29.524 178.694 28.0543C178.257 28.3437 177.779 28.6767 177.262 29.0348C176.748 29.397 176.187 29.778 175.62 30.2089C175.593 30.1715 175.539 30.0965 175.539 30.0965C171.743 32.7841 168.679 35.1532 165.761 37.4952C162.845 39.8393 160.092 42.1772 157.022 44.9293C156.251 45.6163 155.851 45.9432 155.348 46.3512C154.852 46.7655 154.254 47.2609 153.164 48.358C147.322 54.1642 141.746 60.243 136.488 66.5571C130.908 73.3104 125.731 80.0929 120.791 86.942C115.856 93.7953 111.158 100.715 106.597 107.804C106.666 107.714 106.704 107.677 106.704 107.695C104.505 111.11 102.335 114.559 100.176 118.096C98.0373 121.587 96.5825 124.294 94.5211 127.833C93.4477 129.681 92.3889 131.534 91.3593 133.381C91.0237 133.986 90.6902 134.588 90.3568 135.188C90.2713 135.348 90.1879 135.506 90.1046 135.662C89.9524 135.49 89.7919 135.281 89.6231 135.077C89.1937 134.542 88.7665 134.009 88.3371 133.476C87.8744 132.914 87.3825 132.377 86.9073 131.828C85.9485 130.735 84.9939 129.642 84.0373 128.553C83.8017 128.276 83.5516 128.016 83.3036 127.754L82.5574 126.967L81.0672 125.393L79.579 123.821L79.2059 123.43L78.8203 123.051L78.0513 122.293C77.0258 121.283 76.0024 120.276 74.979 119.268C73.9453 118.273 72.8781 117.313 71.8297 116.337L70.2519 114.88C69.7204 114.401 69.1764 113.937 68.6387 113.464C67.5591 112.525 66.4898 111.578 65.4039 110.65L62.1045 107.918L61.2792 107.235L60.4392 106.571L58.7593 105.245L57.0773 103.921L55.3682 102.633C54.2302 101.773 53.0922 100.909 51.9291 100.08C50.7724 99.2434 49.6198 98.3982 48.438 97.5904L46.6768 96.3642L44.8947 95.163C44.3007 94.7633 43.7067 94.3616 43.1002 93.9743L41.4932 92.9334C41.3598 92.8731 41.216 92.8044 41.0618 92.7294C40.9055 92.6545 40.745 92.5775 40.5845 92.5004C40.5657 92.4963 40.5845 92.4879 40.5866 92.4796L40.6032 92.4567L40.6366 92.4109L40.7074 92.3151C40.7575 92.2485 40.8096 92.1819 40.8596 92.1153C40.9742 91.9696 41.091 91.8218 41.2098 91.6719C41.0805 91.8072 40.9492 91.9446 40.8137 92.0862C40.745 92.1569 40.6762 92.2277 40.6053 92.3006L40.4969 92.4109L40.4428 92.4671L40.4157 92.4963C40.4157 92.4963 40.3844 92.5171 40.4032 92.5233C40.5345 92.6108 40.6804 92.7065 40.8283 92.8023C40.6533 92.719 40.474 92.6316 40.2802 92.54C40.2593 92.5358 40.2781 92.5254 40.2802 92.5171L40.2989 92.4921L40.3365 92.4401L40.4136 92.3339C40.4698 92.261 40.5261 92.1861 40.5824 92.1111C40.7074 91.9508 40.8367 91.7864 40.968 91.6198L41.0764 91.4845C41.1681 91.3804 41.2619 91.2743 41.3557 91.1702C41.5432 90.9599 41.7308 90.7476 41.9205 90.5331C42.2998 90.1064 42.6875 89.6734 43.0773 89.2341C44.6446 87.4791 46.3037 85.6409 48.0253 83.7465C51.4685 79.9576 55.1577 75.9501 58.8385 71.9635L59.6534 71.0704L59.8514 70.8539L59.9515 70.7457L60.0015 70.6915L60.0265 70.6645C60.0348 70.6541 60.0453 70.6749 60.0536 70.679L60.4892 71.0559C60.7998 71.3286 61.1124 71.6034 61.4209 71.874C61.9169 72.3216 62.413 72.765 62.9049 73.2084C64.8703 74.9863 66.7816 76.7537 68.6054 78.4775C72.2549 81.9228 75.5668 85.1871 78.3034 88.0058C79.0496 88.7594 79.7729 89.5443 80.5044 90.327C81.2464 91.1056 81.953 91.9196 82.6741 92.7315C83.0347 93.1375 83.3974 93.5434 83.7413 93.9681L84.2811 94.6197C84.5021 94.8903 84.7251 95.1526 84.9418 95.4274C85.3837 95.9708 85.7985 96.5266 86.2153 97.0783C86.4237 97.3531 86.6322 97.6279 86.8406 97.9048L87.1532 98.317L87.3096 98.5231L87.3867 98.6251L87.4263 98.6771C87.4388 98.6959 87.4534 98.7167 87.4638 98.7021C88.0432 97.6695 88.6393 96.6474 89.2313 95.6439C89.521 95.1672 89.8086 94.6905 90.1004 94.2117L90.5068 93.5497L90.882 92.9501C91.8783 91.345 92.9204 89.7504 93.9792 88.1474C96.1093 84.9498 98.3583 81.7625 100.716 78.594C101.297 77.7967 101.899 77.0098 102.502 76.2187C103.104 75.4297 103.702 74.6324 104.323 73.8496C104.94 73.0648 105.559 72.2779 106.181 71.4889C106.814 70.7103 107.448 69.9275 108.086 69.1448C108.717 68.3578 109.369 67.5834 110.024 66.809C110.678 66.0346 111.324 65.2518 111.994 64.4815C113.336 62.9493 114.663 61.3942 116.052 59.8849C117.771 57.8989 119.566 55.9524 121.373 53.9893C122.292 53.0233 123.215 52.0532 124.141 51.0789C124.599 50.5876 125.076 50.113 125.552 49.6342C126.027 49.1554 126.502 48.6765 126.977 48.1957C127.455 47.7168 127.934 47.236 128.411 46.7571C128.899 46.2867 129.389 45.8141 129.879 45.3415C130.368 44.8689 130.86 44.3964 131.352 43.9238L132.09 43.2139L132.845 42.5186C133.853 41.5922 134.864 40.6637 135.877 39.7311C136.905 38.8151 137.949 37.9137 138.989 36.9998C138.043 37.8346 137.094 38.6735 136.142 39.5146C135.208 40.3785 134.27 41.2445 133.328 42.1168C132.859 42.554 132.38 42.9849 131.915 43.4325C131.45 43.8801 130.985 44.3298 130.518 44.7815C130.052 45.2333 129.583 45.685 129.114 46.1388C128.643 46.5906 128.172 47.0465 127.711 47.517C126.783 48.4496 125.852 49.3906 124.91 50.3378C123.978 51.2934 123.057 52.2739 122.117 53.2544C121.171 54.2266 120.258 55.2467 119.32 56.2605C118.853 56.7685 118.384 57.2806 117.911 57.7927C117.448 58.3153 116.983 58.8378 116.516 59.3666C120.328 55.1676 124.318 51.0581 128.459 47.0673C132.619 43.0953 136.942 39.2543 141.398 35.5737C146.359 31.3831 151.442 27.5526 156.711 23.9573C157.368 23.5056 158.027 23.0538 158.685 22.6021C159.356 22.169 160.03 21.7381 160.703 21.3051C161.376 20.8721 162.049 20.4391 162.725 20.004C163.062 19.7875 163.398 19.5668 163.74 19.3545L164.775 18.7341C166.159 17.9076 167.541 17.0666 168.944 16.2401C170.365 15.4469 171.797 14.6517 173.238 13.8481C173.896 13.4609 174.576 13.1153 175.238 12.7718C175.901 12.4283 176.549 12.0911 177.171 11.7684C177.75 11.4624 178.302 11.1709 178.815 10.9003C178.946 10.8295 179.074 10.7608 179.199 10.6942C179.29 10.7816 179.374 10.8961 179.459 10.9919C179.63 11.1917 179.795 11.3833 179.947 11.5623C180.924 12.6032 181.902 13.6462 182.775 14.5767C182.148 13.7898 181.514 12.9967 180.885 12.2056C180.549 11.7871 180.216 11.3687 179.882 10.9544C179.718 10.7483 179.551 10.5422 179.386 10.3361C179.32 10.1613 179.182 10.3153 179.067 10.3569L178.715 10.5401C177.804 11.0127 176.906 11.479 176.035 11.9329C175.193 12.3763 174.367 12.7947 173.59 13.2194C173.988 12.98 173.928 12.9821 173.917 12.9529C172.754 13.5879 171.672 14.1854 170.634 14.7703C170.622 14.7266 170.611 14.6829 170.599 14.6413C171.12 14.3498 171.643 14.0542 172.168 13.7586C172.687 13.4692 173.211 13.1778 173.738 12.8842C174.273 12.6094 174.813 12.3346 175.353 12.0578C176.499 11.4749 177.654 10.8857 178.817 10.2924L179.278 10.0592L179.336 10.0301L179.351 10.0218C179.351 10.0218 179.357 10.0301 179.361 10.0322L179.382 10.0572L179.461 10.1571L179.622 10.359L180.264 11.1688C180.674 11.6872 181.085 12.2056 181.498 12.726C182.269 13.6982 183.042 14.6746 183.815 15.6509C184.178 16.0215 184.509 16.3525 184.803 16.6356C183.138 14.5122 181.468 12.3846 179.797 10.2528L179.44 9.79902C179.417 9.73448 179.365 9.79069 179.326 9.80526L179.197 9.8698L178.94 9.99887L177.911 10.5172L176.006 11.479C174.847 12.0744 173.667 12.6323 172.535 13.2819C171.868 13.6503 171.201 14.0167 170.536 14.3852C170.526 14.3457 170.516 14.3061 170.505 14.2686L172.412 13.2132L173.158 12.801C173.404 12.6615 173.657 12.5282 173.911 12.4013L175.428 11.631C176.562 11.0543 177.696 10.4798 178.826 9.90519L179.288 9.66995L179.405 9.61166C179.424 9.60541 179.447 9.58251 179.461 9.59084L179.501 9.6408L179.661 9.84273L180.305 10.6546C180.716 11.173 181.127 11.6914 181.537 12.2077C182.929 13.9543 184.309 15.6905 185.677 17.4059C186.104 17.7286 186.25 17.6911 185.97 17.1061L181.533 11.4124L179.984 9.44095L179.597 8.94965L179.036 9.23068L177.917 9.79485L174.326 11.606C173.246 12.1306 172.208 12.7323 171.155 13.3068L170.361 13.7461C170.357 13.7315 170.353 13.717 170.349 13.7045C170.295 13.5192 170.257 13.4942 170.247 13.4942C170.278 13.5837 170.307 13.6732 170.336 13.7628L168.008 15.0493L164.921 16.8979C163.896 17.5183 162.856 18.1158 161.858 18.7799C160.553 19.6251 159.24 20.4578 157.943 21.3155C157.939 21.2968 157.933 21.2905 157.929 21.2884C157.929 21.3009 157.929 21.3134 157.929 21.3259C157.23 21.7881 156.536 22.2544 155.855 22.7374C154.869 23.4181 153.877 24.0905 152.897 24.7796L149.996 26.8989L148.545 27.9585C148.066 28.3166 147.597 28.6871 147.12 29.0515L144.275 31.2436C143.328 31.9785 142.411 32.7467 141.478 33.494C140.552 34.2518 139.606 34.9867 138.701 35.7715C138.593 35.8714 138.478 35.9755 138.37 36.0754C137.615 36.7666 136.794 37.5056 135.925 38.2842C135.485 38.6694 135.048 39.0774 134.599 39.4958C134.149 39.9122 133.689 40.339 133.22 40.772C132.28 41.638 131.296 42.5269 130.325 43.4741C129.345 44.4151 128.334 45.3665 127.327 46.3449C123.307 50.2691 119.259 54.5306 115.908 58.3777L114.659 59.8287C114.242 60.3117 113.826 60.7926 113.419 61.286L110.964 64.2192L108.55 67.1858C107.748 68.1746 106.968 69.1843 106.174 70.1815C103.033 74.1952 100.001 78.288 97.1202 82.4849C99.2607 79.4934 101.458 76.5997 103.669 73.7518C104.786 72.3362 105.893 70.9205 107.033 69.5361C107.602 68.8429 108.158 68.1413 108.736 67.4564C109.311 66.7715 109.888 66.0887 110.464 65.4038C115.08 59.9474 119.914 54.7033 125.089 49.6238C126.64 48.0645 128.186 46.4844 129.799 44.9626C130.602 44.1965 131.394 43.4158 132.211 42.6602C133.032 41.9065 133.853 41.1529 134.679 40.3952C135.931 39.2065 137.238 38.0885 138.52 36.9415L139.483 36.0858L139.964 35.6591L140.456 35.2427L142.422 33.5814C147.143 29.6427 152.366 25.679 157.937 21.9442C157.937 21.9921 157.937 22.0421 157.937 22.0899L157.493 22.396L155.886 23.5056L154.279 24.6152L153.477 25.171L152.691 25.7477C151.645 26.5179 150.598 27.2903 149.554 28.0605L148.772 28.6393L148.005 29.2388L146.476 30.4359C144.418 32.0076 142.447 33.6772 140.463 35.3177C139.962 35.7215 139.485 36.1545 138.999 36.5751C138.516 36.9977 138.032 37.4203 137.549 37.8408C137.065 38.2634 136.584 38.6839 136.1 39.1045C135.619 39.525 135.154 39.9663 134.681 40.3952C133.328 41.6588 131.942 42.9058 130.606 44.2257C129.931 44.8773 129.255 45.533 128.576 46.1888C128.234 46.5136 127.899 46.8487 127.567 47.186C127.234 47.5232 126.9 47.8584 126.565 48.1977C127.244 47.5503 127.905 46.882 128.605 46.2471C129.299 45.608 129.995 44.9647 130.696 44.3194L128.468 46.4136C127.728 47.1131 127.009 47.8376 126.279 48.5475C125.587 49.2324 124.889 49.8986 124.195 50.6001C119.764 55.1676 115.37 60.0369 110.924 65.3726C114.457 61.0986 118.198 56.8601 122.14 52.6944C118.115 56.8164 114.128 61.159 110.328 65.6265C106.529 70.092 102.914 74.6803 99.6067 79.2561C97.8747 81.698 95.8717 84.548 93.8771 87.5583C93.3748 88.3098 92.8829 89.0759 92.3827 89.8378C91.8929 90.6081 91.401 91.3804 90.9112 92.1507C89.9733 93.6496 88.9374 95.3567 87.9536 97.0887C87.8723 97.2573 87.7973 97.4218 87.7285 97.5779C87.6326 97.7403 87.5367 97.9006 87.4429 98.0609C87.4304 98.0901 87.4138 98.0443 87.3992 98.0297L87.3533 97.9672L87.2616 97.8423L87.0782 97.5925L86.7135 97.095C86.405 96.7077 86.0882 96.308 85.7943 95.9396C85.5004 95.5648 85.2003 95.2338 84.9794 94.9694L84.0352 93.8244L83.5996 93.2978L83.1473 92.7815C82.5387 92.0966 81.9426 91.4033 81.3235 90.7247C80.7003 90.0501 80.0751 89.3757 79.4477 88.6991C78.8078 88.0329 78.168 87.3667 77.526 86.6964C74.9374 84.0359 72.2507 81.4045 69.462 78.7439C68.9805 78.2963 68.4928 77.8425 67.9967 77.3845C66.6691 76.1729 64.812 74.3784 63.3613 73.0315C65.4539 74.9613 67.4861 76.8557 69.4599 78.7439C72.6259 81.6897 75.3959 84.3315 78.1471 87.146C78.8328 87.8518 79.529 88.5575 80.2085 89.3007C80.89 90.0418 81.5987 90.783 82.2802 91.5803C82.968 92.3734 83.6871 93.1728 84.3707 94.0451C84.5583 94.2783 84.748 94.5135 84.9397 94.7509C85.1377 95.0007 85.3358 95.2505 85.5359 95.5045C85.9256 96.0187 86.3112 96.5537 86.7093 97.095C86.8427 97.2657 86.974 97.4322 87.097 97.5883C87.1574 97.6674 87.2179 97.7424 87.2741 97.8152C87.3033 97.8527 87.3304 97.8881 87.3575 97.9235L87.3971 97.9755C87.4096 97.9922 87.4242 98.0193 87.4346 97.9943C87.5451 97.8007 87.6347 97.6404 87.7139 97.503C87.791 97.3677 87.8681 97.2303 87.9473 97.0908C88.2767 96.3996 88.7435 95.5211 89.3 94.5572C89.8628 93.5788 90.4922 92.5441 91.2134 91.4033C92.6474 89.1321 94.3877 86.5694 96.051 84.2295C95.3882 85.0122 97.1848 82.5349 97.1202 82.487C100.538 77.4241 104.146 72.4881 107.294 68.4619C112.329 62.0354 117.911 56.0628 122.73 50.7812C123.073 50.4024 123.503 49.9277 124.009 49.4156C124.52 48.9076 125.085 48.3456 125.675 47.7585C126.267 47.1756 126.879 46.5698 127.484 45.9744C128.097 45.3894 128.697 44.8169 129.249 44.286C130.164 43.3742 131.146 42.3687 132.198 41.3923C131.054 42.377 129.958 43.4221 128.837 44.4359C128.645 44.6046 129.71 43.5532 131.429 41.919C132.303 41.1155 133.334 40.162 134.449 39.1357C135.002 38.6173 135.592 38.0989 136.194 37.5743C136.794 37.0476 137.405 36.5105 138.016 35.9734C139.224 34.8867 140.483 33.8562 141.642 32.8799C142.224 32.3907 142.782 31.9202 143.31 31.4768C143.835 31.0292 144.352 30.6357 144.812 30.2589C146.665 28.7704 147.824 27.8149 147.595 27.9335C147.595 27.9335 147.576 27.9439 147.543 27.9689C147.509 27.9939 147.457 28.0335 147.393 28.0834C147.261 28.1854 147.065 28.3353 146.813 28.5289C146.311 28.9203 145.577 29.4907 144.66 30.2048C144.206 30.567 143.689 30.948 143.16 31.3914C142.626 31.8307 142.053 32.3032 141.444 32.8049C140.836 33.3067 140.194 33.8354 139.523 34.3892C138.849 34.9429 138.174 35.5487 137.461 36.1608C136.753 36.7749 136.019 37.412 135.269 38.0615C134.522 38.7172 133.778 39.4105 133.009 40.1016C132.246 40.799 131.461 41.4964 130.687 42.223C129.918 42.9537 129.143 43.6906 128.363 44.4297L127.194 45.5393C126.811 45.9161 126.429 46.2929 126.048 46.6697C125.285 47.4233 124.526 48.1748 123.774 48.918C123.021 49.6612 122.304 50.4211 121.583 51.1539C120.868 51.8929 120.153 52.607 119.48 53.3252C118.378 54.3952 118.711 53.7936 119.493 52.7319C120.291 51.6847 121.554 50.1879 122.259 49.4343C122.409 49.2657 122.584 49.0679 122.75 48.8826C121.102 50.5647 119.418 52.2218 117.829 53.9289C117.202 54.6117 116.575 55.2967 115.945 55.9816C115.328 56.6769 114.711 57.3743 114.094 58.0738C112.848 59.4603 111.643 60.8884 110.428 62.3081C106.539 66.9047 102.754 71.6617 99.1336 76.5726C99.6026 75.9064 100.094 75.2527 100.572 74.5907C101.055 73.9329 101.528 73.2667 102.018 72.6172C102.481 71.9968 102.964 71.3494 103.452 70.6957C107.387 65.4746 112.362 59.6788 117.829 53.9289C119.243 52.3634 120.708 50.8562 122.15 49.3386C122.865 48.5745 123.613 47.8438 124.345 47.1006C125.081 46.3595 125.814 45.6226 126.546 44.8835C126.625 44.8044 126.694 44.7357 126.771 44.6587C122.953 48.331 119.145 52.1636 115.551 56.0232C109.107 63.2283 102.894 70.8622 97.1077 78.9001C98.0623 77.5698 98.9835 76.227 99.9569 74.9093C101.989 72.0364 104.388 68.9636 107.006 65.7681C107.669 64.977 108.342 64.1734 109.023 63.3615C109.703 62.5476 110.42 61.7502 111.131 60.9321C112.544 59.2895 114.051 57.6741 115.551 56.0232C116.329 55.1738 117.104 54.3265 117.877 53.4813C118.265 53.0587 118.653 52.6361 119.038 52.2156C119.432 51.8013 119.826 51.387 120.22 50.9748C121.008 50.1484 121.794 49.324 122.577 48.4996C123.378 47.6919 124.176 46.8862 124.97 46.0847C125.368 45.6829 125.764 45.2811 126.162 44.8814C126.567 44.488 126.971 44.0966 127.373 43.7052C128.182 42.9225 128.987 42.1418 129.789 41.3653C130.596 40.5909 131.423 39.8435 132.234 39.0836C132.64 38.7048 133.047 38.3279 133.453 37.9511C133.857 37.5723 134.264 37.1975 134.679 36.8353C134.103 37.3162 133.543 37.8346 132.968 38.3488C132.392 38.865 131.811 39.3876 131.225 39.9143C130.041 40.9573 128.889 42.0668 127.723 43.1619C127.144 43.7115 126.558 44.2548 125.987 44.8086C125.422 45.3665 124.86 45.9223 124.303 46.4719C123.747 47.0236 123.196 47.569 122.652 48.1061C122.111 48.6474 121.594 49.1949 121.079 49.7258C117.481 53.4334 114.088 57.2036 110.839 60.9945C107.592 64.7876 104.486 68.6056 101.535 72.4715C98.5813 76.3353 95.7613 80.2324 93.0705 84.1816C91.7345 86.1634 90.413 88.1432 89.1437 90.1542C88.8207 90.6539 88.5122 91.1618 88.1954 91.6656L87.9598 92.0445L87.8431 92.2319L87.7994 92.3068L87.6243 92.6045L87.5368 92.7544L87.4805 92.8543L87.3825 93.0334L87.1824 93.4102C87.0782 93.2957 86.9677 93.152 86.8573 93.0188C86.8031 92.9501 86.7447 92.8835 86.6843 92.8169L86.5947 92.7149L86.5488 92.6628L86.3883 92.4671C86.1486 92.1757 85.9089 91.8863 85.6713 91.5969C85.4275 91.3159 85.1836 91.0369 84.9397 90.758C84.452 90.2021 83.9643 89.6484 83.4787 89.0946C81.6112 87.1648 79.7458 85.262 77.8637 83.3697C73.5305 78.9958 68.3573 74.0411 63.7928 69.9338C63.9658 70.1232 63.9554 70.1357 63.8386 70.0483C63.7803 70.0045 63.6969 69.9359 63.5969 69.8526C63.4947 69.7651 63.3738 69.6611 63.2467 69.5528C62.8695 69.2239 62.4568 68.8616 62.1358 68.5827C61.9753 68.4453 61.8398 68.3287 61.7419 68.2475C61.646 68.1663 61.5876 68.1226 61.5856 68.1288C61.1416 67.7479 60.6935 67.3607 60.2391 66.9714L59.9015 66.6799C59.8723 66.632 59.8473 66.6841 59.8202 66.7091L59.7431 66.7944L59.5867 66.963C59.3783 67.1879 59.1699 67.4127 58.9615 67.6396C58.1799 68.4869 57.3837 69.3488 56.5771 70.2231C55.4703 71.4306 54.3219 72.6651 53.1484 73.9183C50.7932 76.4186 48.3504 79.0104 45.9056 81.6043C45.2095 82.3413 45.1761 82.31 44.432 83.047C43.2461 84.4231 41.9705 85.872 40.622 87.3751C40.2843 87.7498 39.9425 88.1307 39.5986 88.5138C39.2109 88.9406 38.817 89.3715 38.421 89.8066C37.9062 90.3666 37.3851 90.9308 36.862 91.4991C36.6015 91.7822 36.3388 92.0653 36.0762 92.3485L35.6823 92.7752L35.4843 92.9876L35.3863 93.0937C35.3592 93.1291 35.305 93.1666 35.3134 93.1957C35.8803 93.5351 36.4514 93.8765 37.0266 94.2221C37.5998 94.5656 38.1501 94.9174 38.7149 95.2651C38.9963 95.4399 39.2756 95.6148 39.559 95.7897L39.8946 96.0041L40.1864 96.1935C40.5761 96.4454 40.9659 96.6994 41.3598 96.9555C42.1477 97.4613 42.9251 98.0026 43.715 98.5314C44.5071 99.0581 45.2887 99.6139 46.0765 100.168C47.6606 101.263 49.2196 102.426 50.7953 103.58C51.5811 104.156 52.3502 104.76 53.1276 105.351C53.8988 105.949 54.6866 106.528 55.4453 107.138C56.6854 108.12 57.9297 109.109 59.1824 110.104C60.4079 111.132 61.6418 112.167 62.8882 113.212C61.6835 112.209 60.46 111.191 59.2282 110.162C57.9756 109.161 56.7104 108.149 55.4453 107.138C54.0197 106.03 52.5753 104.966 51.1496 103.892C50.4243 103.372 49.7011 102.853 48.9799 102.335C48.2587 101.816 47.5397 101.298 46.806 100.803C46.0765 100.301 45.3491 99.8013 44.6217 99.3017C43.886 98.8145 43.1523 98.3295 42.4186 97.8423C41.6871 97.351 40.9409 96.8909 40.2031 96.4142L39.6486 96.0603L38.8274 95.5544L37.1329 94.5094C37.8207 94.9382 38.5085 95.365 39.1964 95.7917L39.6716 96.0894L40.0092 96.3059L40.6824 96.7411C41.5828 97.3135 42.4686 97.9069 43.3524 98.4981C43.7942 98.7937 44.2382 99.0852 44.6738 99.3849C45.1094 99.6868 45.545 99.9886 45.9806 100.291C46.8498 100.894 47.7231 101.49 48.5735 102.114C49.4301 102.73 50.2826 103.347 51.1371 103.961C51.9771 104.591 52.817 105.222 53.6549 105.853L54.9117 106.798L56.1477 107.768C56.971 108.416 57.7922 109.061 58.6134 109.709C59.4346 110.354 60.2287 111.033 61.0374 111.695C61.8419 112.361 62.6506 113.021 63.4489 113.695L65.8124 115.754L66.9942 116.785C67.3881 117.128 67.7841 117.469 68.1656 117.83C68.9347 118.54 69.7038 119.252 70.4729 119.961L71.6296 121.029L72.207 121.564L72.7676 122.118C73.5159 122.855 74.2662 123.594 75.0186 124.335C75.3938 124.706 75.7711 125.076 76.1462 125.447L76.709 126.005L77.2551 126.582C78.3618 127.747 79.4623 128.907 80.5545 130.058C81.111 130.624 81.6216 131.23 82.1468 131.819C82.6679 132.411 83.189 133.002 83.708 133.589C84.2269 134.176 84.7459 134.763 85.2628 135.348C85.7735 135.937 86.2487 136.553 86.7426 137.151C87.4013 137.965 88.0578 138.777 88.7144 139.584C89.0479 139.997 89.3813 140.407 89.7127 140.817L90.2088 141.431L90.4568 141.737L90.5798 141.889L90.6423 141.966L90.6736 142.003C90.684 142.018 90.6923 142.008 90.7007 142.01C91.4552 140.557 92.2097 139.11 92.9642 137.709C93.5728 136.591 94.1793 135.475 94.7838 134.361C95.9051 132.321 97.0389 130.3 98.1811 128.295C100.472 124.283 102.798 120.328 105.184 116.406C108.419 111.097 111.823 105.888 115.339 100.776C115.068 101.229 114.805 101.671 114.551 102.095C118.903 95.7272 123.203 89.6609 127.907 83.3426C128.334 82.7722 128.759 82.2039 129.191 81.6314C134.076 75.1424 138.824 69.2697 143.81 63.5593C146.303 60.7031 148.862 57.8927 151.547 55.0843C152.947 53.6187 154.381 52.1552 155.861 50.6876C156.363 56.1252 156.547 69.126 156.899 54.9969C156.73 55.1655 156.561 56.094 156.393 54.9594V50.1609C157.581 48.9888 158.796 47.8168 160.048 46.6385C162.987 43.8759 165.972 41.1654 169.08 38.5965C169.075 38.8442 169.073 39.1045 169.069 39.3772C169.586 45.5622 169.769 61.3214 170.128 44.6399C169.959 44.8377 169.79 45.9182 169.621 44.5983V38.8505C169.53 37.414 169.438 38.8505 169.344 38.8505C169.344 38.6902 169.344 38.5299 169.344 38.3696C170.24 37.5931 169.838 37.8283 169.607 37.9199C169.484 37.9699 169.409 37.9782 169.607 37.7721C169.707 37.668 169.876 37.5098 170.14 37.2766C170.409 37.0456 170.776 36.7437 171.27 36.344C171.047 36.5043 170.826 36.6604 170.632 36.7916C170.184 37.1538 169.757 37.5202 169.34 37.8783C169.34 37.7242 169.34 37.5764 169.34 37.4328C170.297 36.6042 171.262 35.7777 172.11 35.0512C172.189 34.9409 172.318 34.7972 172.504 34.6119C172.504 34.6119 173.035 34.2081 173.667 33.7251C173.796 33.6085 173.905 33.5128 174.019 33.4107C173.834 33.4711 173.969 33.2858 174.201 33.0298C173.486 33.5752 172.773 34.1186 172.06 34.6619C171.358 35.2198 170.657 35.7757 169.957 36.3315C170.563 35.7528 171.185 35.1844 171.922 34.5349C172.673 33.902 173.531 33.1797 174.63 32.3157C174.626 32.3157 174.624 32.3157 174.617 32.3199C174.672 32.2803 174.722 32.2449 174.778 32.2033C175.226 31.8577 175.697 31.4955 176.22 31.0937C173.755 32.7612 172.514 33.6564 172.025 33.9229L172.022 33.9145ZM170.645 14.7703C167.335 16.6356 164.465 18.3698 160.786 20.743C161.63 20.1705 162.499 19.5835 163.387 18.9839C164.298 18.4176 165.232 17.8389 166.182 17.2498C166.66 16.9562 167.141 16.6606 167.627 16.3629C167.871 16.2151 168.115 16.0652 168.358 15.9153C168.604 15.7675 168.859 15.6301 169.109 15.4865C169.605 15.2075 170.103 14.9286 170.605 14.6454C170.618 14.6871 170.63 14.7287 170.645 14.7724V14.7703ZM157.947 21.9359C159.788 20.7035 161.664 19.4939 163.575 18.3198C164.544 17.739 165.517 17.1582 166.491 16.5753L167.952 15.7009C168.435 15.4053 168.942 15.1451 169.436 14.8661L170.495 14.2811C170.505 14.3186 170.518 14.3582 170.53 14.3956C170.059 14.6558 169.588 14.9161 169.117 15.1763L168.262 15.6509L167.423 16.1527L165.743 17.1582L164.063 18.1637L163.223 18.6675L162.399 19.1962L159.11 21.3176L158.289 21.8484L157.943 22.0858C157.943 22.0337 157.945 21.9838 157.947 21.938V21.9359ZM60.039 68.6368C60.2183 68.7909 60.3975 68.9428 60.5747 69.0969C60.9332 69.4071 61.2896 69.7131 61.6439 70.0191C62.3171 70.6041 62.9799 71.1808 63.6365 71.7533C64.9079 72.8649 66.1501 73.96 67.384 75.0654C69.8538 77.2742 72.2966 79.5163 74.8581 82.0082C75.4251 82.5494 75.9941 83.099 76.5589 83.6632C77.1237 84.2274 77.6948 84.7936 78.2701 85.3661C79.4018 86.5298 80.5565 87.7081 81.6841 88.9426C81.9676 89.2487 82.2531 89.5568 82.5387 89.8649C82.8221 90.1751 83.0973 90.4957 83.3786 90.8121C83.6579 91.1306 83.9393 91.4491 84.2186 91.7676C84.5 92.0862 84.7813 92.4067 85.0502 92.7419C85.465 93.2457 85.8839 93.7516 86.3029 94.2616L86.801 94.9153L87.049 95.2401L87.172 95.4025L87.2324 95.4837L87.2637 95.5232L87.2783 95.544C87.2783 95.544 87.2825 95.5523 87.2866 95.5523L87.2929 95.5398C87.5242 95.1256 87.7598 94.7196 87.9995 94.3178L88.3684 93.6995L88.7748 93.0334C89.1521 92.4338 89.5293 91.8322 89.9066 91.2305C90.3047 90.6122 90.7048 89.9939 91.1029 89.3757C92.712 86.9108 94.3815 84.4814 96.0656 82.0873C96.7096 81.165 97.3516 80.2449 97.981 79.3435C98.6855 78.3713 99.3504 77.4678 99.9923 76.608C100.645 75.7586 101.276 74.9509 101.897 74.1619C102.083 73.9183 102.264 73.6789 102.448 73.4395C102.345 73.5769 102.237 73.7247 102.135 73.8621C103.077 72.688 104.019 71.5534 105.001 70.3585C105.999 69.176 107.045 67.9394 108.204 66.5675L108.825 65.7598L108.932 65.8493C106.093 69.4674 102.912 73.4582 99.7714 77.6427C96.6325 81.8271 93.5061 86.1884 90.7715 90.5061C90.4339 91.0348 90.0962 91.5678 89.7648 92.107C89.5981 92.3755 89.4292 92.6441 89.2625 92.9147C89.1249 93.1416 88.9853 93.3706 88.8457 93.5996C88.7143 93.8182 88.581 94.0389 88.4476 94.2575C88.3246 94.4677 88.1995 94.6759 88.0766 94.8862C87.8285 95.3088 87.5784 95.7397 87.3325 96.179C87.3242 96.206 87.3137 96.179 87.3054 96.1686L87.2762 96.1311L87.2179 96.0541L87.1011 95.9L86.8656 95.5919L86.3925 94.9694C86.0819 94.5448 85.7339 94.143 85.3941 93.7266L84.7522 92.9459L84.4208 92.5421L84.0769 92.1486C83.6183 91.624 83.1598 91.0994 82.7012 90.5727C82.2469 90.0418 81.7633 89.5401 81.2944 89.0217C80.8191 88.5096 80.3564 87.9871 79.8708 87.4854C78.9037 86.4778 77.9491 85.4598 76.9612 84.4772C75.0124 82.4849 73.0073 80.5613 71.0127 78.6648C69.0055 76.7829 66.9963 74.9384 64.985 73.1585C64.2201 72.484 63.2863 71.6159 62.3463 70.7561C61.8419 70.296 61.3375 69.8338 60.8602 69.3967C60.6184 69.1781 60.3808 68.9657 60.1557 68.7596C60.0995 68.7097 60.0432 68.6576 59.9869 68.6097L59.9661 68.591C59.9661 68.591 59.9619 68.5868 59.9577 68.5848C59.9848 68.5806 60.0119 68.5931 60.0411 68.6389L60.039 68.6368ZM59.7847 68.7409C59.8389 68.6951 59.889 68.6035 59.9452 68.5848L59.9077 68.6243L59.8327 68.7034C59.7326 68.8096 59.6368 68.9116 59.543 69.0094L59.7889 68.7388L59.7847 68.7409ZM83.3307 132.254C83.0243 131.944 82.6762 131.582 82.2948 131.18C81.9092 130.78 81.5028 130.325 81.0297 129.869C80.098 128.944 79.0496 127.887 77.9387 126.758C73.4575 122.283 67.6612 116.984 64.566 114.361C60.7643 111.049 56.5187 107.571 52.0396 104.279C49.8053 102.626 47.5251 101.007 45.2345 99.4516C44.6655 99.056 44.0881 98.6792 43.5129 98.3003C42.9376 97.9235 42.3644 97.5467 41.7954 97.172C41.2202 96.8077 40.647 96.4434 40.078 96.0811L39.6236 95.7959L39.0109 95.4191C38.6003 95.1672 38.1897 94.9153 37.7811 94.6655C37.3163 94.2928 37.1559 94.1326 37.258 94.1326C37.358 94.1326 37.7103 94.297 38.2501 94.5947C38.5211 94.7446 38.8441 94.9257 39.2089 95.1381C39.3902 95.2442 39.584 95.3587 39.7925 95.4795C39.9571 95.5794 40.1322 95.6856 40.3156 95.7959C41.0097 96.2269 41.8538 96.7348 42.7938 97.3593C46.5747 99.8179 52.1105 103.759 57.8234 108.337C59.2678 109.461 60.6893 110.666 62.1254 111.863C63.576 113.044 64.9725 114.297 66.371 115.515C66.7191 115.821 67.0692 116.125 67.4152 116.427C67.7612 116.73 68.1114 117.028 68.4428 117.343C69.1139 117.961 69.7788 118.575 70.4353 119.181C71.0919 119.784 71.7422 120.382 72.3779 120.967C73.0073 121.56 73.6097 122.162 74.2079 122.739C74.806 123.317 75.3896 123.881 75.9566 124.433C76.5235 124.985 77.0883 125.507 77.599 126.046C78.6348 127.11 79.6061 128.097 80.4919 128.986C80.9338 129.431 81.3611 129.846 81.7529 130.248C82.1385 130.654 82.4991 131.032 82.8326 131.384C83.5058 132.082 84.081 132.658 84.5438 133.091C85.1086 133.947 84.5562 133.499 83.3328 132.254H83.3307ZM111.364 101.458C110.259 103.184 109.253 104.962 108.69 105.82C106.522 109.29 103.773 113.589 101.137 117.963C99.0773 121.489 96.3657 125.828 93.8667 130.283C93.356 131.17 92.935 132.104 92.9746 132.125C92.5807 132.802 92.2097 133.447 91.8595 134.072C91.6844 134.384 91.5135 134.692 91.3447 134.994C91.2342 135.196 91.1259 135.396 91.0196 135.592C90.7465 136.104 90.4964 136.603 90.24 137.132C90.2359 137.151 90.2275 137.14 90.2213 137.132L90.2004 137.109L90.1588 137.061L90.0754 136.965L89.9066 136.772C89.7919 136.639 89.6752 136.507 89.5585 136.372C89.4376 136.233 89.3167 136.091 89.1937 135.95C89.1312 135.877 89.0687 135.804 89.0041 135.729L88.9082 135.616L88.7102 135.375C88.4455 135.05 88.1745 134.721 87.8994 134.386C87.7619 134.218 87.6243 134.049 87.4846 133.876C87.3387 133.71 87.1908 133.541 87.0407 133.372C86.4446 132.687 85.8214 131.971 85.1565 131.209L87.1157 133.595C85.7401 132.069 84.5375 130.735 83.2494 129.304C82.9326 128.942 82.5824 128.601 82.2344 128.239C81.8842 127.878 81.5236 127.508 81.1485 127.123C80.4023 126.35 79.6019 125.52 78.712 124.598C75.819 121.689 73.5201 119.657 71.2503 117.59L69.8351 116.295C69.5995 116.081 69.3661 115.862 69.1264 115.65L68.4032 115.023C67.4402 114.189 66.4815 113.356 65.5269 112.529C65.2893 112.323 65.0496 112.115 64.8141 111.909C64.5723 111.709 64.3305 111.509 64.0887 111.309C63.6052 110.912 63.1237 110.514 62.6443 110.119C62.165 109.723 61.6877 109.332 61.2125 108.94C60.9749 108.745 60.7393 108.551 60.5017 108.357C60.262 108.168 60.0223 107.981 59.7847 107.793C58.8281 107.046 57.8839 106.309 56.9543 105.585C56.7209 105.403 56.4895 105.224 56.2602 105.045C56.0268 104.87 55.7934 104.698 55.5599 104.525C55.0951 104.181 54.6345 103.84 54.1781 103.503C52.3647 102.139 50.5723 100.915 48.8924 99.7492C49.774 100.28 51.4227 101.485 52.2772 102.054C53.5465 102.914 55.0576 103.986 56.7146 105.212C57.5317 105.841 58.3904 106.498 59.2783 107.181C59.7201 107.525 60.1703 107.874 60.6268 108.228C61.0749 108.593 61.5272 108.963 61.9857 109.338C62.9007 110.087 63.8365 110.851 64.7786 111.622C65.702 112.415 66.6336 113.216 67.5611 114.014C69.437 115.588 71.2107 117.253 72.9365 118.783L73.7931 119.553C74.0786 119.809 74.3517 120.08 74.631 120.344L76.3046 121.933C77.4176 122.997 78.5577 124.033 79.6124 125.153C80.6774 126.257 81.7446 127.358 82.8117 128.463C83.0827 128.736 83.3369 129.023 83.5933 129.311L84.3624 130.171C84.8751 130.745 85.3899 131.318 85.9048 131.892C86.4196 132.467 86.9344 133.043 87.4492 133.62C87.9536 134.207 88.4351 134.815 88.9311 135.412C89.1583 135.683 89.3876 135.954 89.6168 136.226L89.9211 136.585L90.0712 136.761L90.1463 136.849L90.1838 136.893L90.2025 136.913C90.2025 136.913 90.215 136.93 90.2192 136.913C90.411 136.532 90.6048 136.149 90.7966 135.766L90.9383 135.49C90.9945 135.381 90.9966 135.371 91.155 135.079C91.4052 134.621 91.6532 134.161 91.9033 133.701C92.9079 131.863 93.9334 130.023 94.9818 128.176C97.0806 124.487 99.2649 120.771 101.553 117.022C104.73 111.782 108.532 105.724 111.893 100.586C113.021 98.8624 114.182 97.1574 115.343 95.4899C115.405 95.4212 115.472 95.3442 115.547 95.2588C114.132 97.3115 112.733 99.3828 111.358 101.463L111.364 101.458ZM124.249 83.2052C124.28 83.1615 124.309 83.1199 124.337 83.0782C124.343 83.0824 124.353 83.0782 124.362 83.0782C124.324 83.1199 124.284 83.1636 124.249 83.2031V83.2052ZM150.703 53.2856C147.732 56.4042 145 59.4124 142.649 62.0188C145.459 58.7878 148.443 55.4903 151.432 52.3759C152.937 50.8062 154.442 49.2844 155.919 47.8376C155.917 47.8792 155.913 47.925 155.911 47.9708C154.121 49.7445 152.374 51.5328 150.703 53.2877V53.2856ZM157.389 46.8029C157.27 46.9049 157.147 47.009 157.018 47.1173C157.774 46.3429 158.56 45.5913 159.308 44.8544C158.794 45.4185 158.106 46.118 157.389 46.8029ZM160.146 43.8801C158.781 45.1583 157.426 46.4678 156.095 47.7835C156.095 47.7397 156.09 47.7023 156.088 47.669C157.487 46.3033 158.858 45.0043 160.182 43.7968C160.188 43.8051 160.173 43.8343 160.146 43.878V43.8801ZM169.086 38.0906C168.89 38.2592 168.694 38.4258 168.504 38.5861C167.829 39.1523 167.216 39.7019 166.662 40.187C165.549 41.1509 164.707 41.8961 164.269 42.2209C163.973 42.4187 164.09 42.2584 164.486 41.8566C164.684 41.6547 164.951 41.3923 165.272 41.0842C165.599 40.7824 165.976 40.4347 166.391 40.0538C167.185 39.3147 168.131 38.4778 169.096 37.6389C169.092 37.7825 169.09 37.9345 169.086 38.0906Z" fill="#028093"/>
<path d="M69.1727 79.6703C67.8262 78.3671 66.4652 77.0722 65.0938 75.7857C64.4059 75.1445 63.7161 74.5033 63.0262 73.8621C62.3488 73.2417 61.6714 72.6193 60.994 71.9968C60.6689 71.7158 60.3541 71.4264 60.0519 71.1974C59.781 71.5034 59.5163 71.8053 59.2536 72.103C58.0844 73.402 56.9464 74.6636 55.8229 75.9085C53.5532 78.4545 51.3459 80.9298 49.0762 83.4737C51.7899 80.553 54.5161 77.6176 57.2652 74.6594C57.7425 74.1431 58.2157 73.631 58.6846 73.121C58.9202 72.867 59.1536 72.613 59.387 72.359L59.633 72.0842L59.8706 71.8178L59.9894 71.6824L60.0498 71.6137C60.0498 71.6137 60.0686 71.5763 60.0811 71.5929L60.1145 71.62C60.2937 71.7699 60.4729 71.9198 60.6501 72.0697L60.7856 72.1842L61.0482 72.4173C61.2962 72.638 61.5422 72.8566 61.7881 73.0752C62.2779 73.5165 62.7656 73.9537 63.2513 74.3909C64.2163 75.2694 65.1792 76.1396 66.1213 77.016C69.9022 80.5093 73.533 83.9796 77.0595 87.6082C74.5042 84.9143 71.8655 82.2746 69.1747 79.6661L69.1727 79.6703Z" fill="#028093"/>
<path d="M82.2653 92.9147L82.9969 93.7641L83.6993 94.6301L84.1391 95.1734C84.3058 95.3837 84.4767 95.5836 84.6393 95.8001C84.9707 96.2268 85.2979 96.6557 85.6126 97.0845L86.5672 98.369L87.0424 99.0081L87.2801 99.3266L87.3988 99.4869L87.4572 99.566C87.476 99.5889 87.4968 99.6327 87.5156 99.6243C88.1825 98.4585 88.8641 97.2927 89.5415 96.1561L89.6686 95.9416L89.7895 95.7439L90.0313 95.3525L90.5148 94.5697L90.9525 93.8661L91.3235 93.2811C92.3073 91.7198 93.3223 90.1813 94.3436 88.6491C96.3924 85.593 98.5142 82.5973 100.688 79.6453C98.5142 82.6265 96.4008 85.6471 94.3686 88.7199C93.3578 90.2583 92.3531 91.803 91.3861 93.3644C90.9671 94.0305 90.246 95.2088 89.5936 96.2997C88.9079 97.4697 88.2117 98.675 87.5302 99.8825C87.5239 99.8804 87.5177 99.8825 87.5114 99.8741L87.4905 99.8471L87.4489 99.7929L87.3676 99.6847L87.2029 99.4661L86.8736 99.0289L86.215 98.1546C85.7731 97.5696 85.3396 96.9825 84.8832 96.3934C84.6539 96.1019 84.4288 95.8001 84.1932 95.519L83.5617 94.7488C83.2449 94.372 82.9448 93.9868 82.6134 93.6184C81.6942 92.5879 80.8021 91.5553 79.86 90.5644C79.3932 90.0668 78.9367 89.5651 78.4678 89.0738C77.9946 88.5846 77.5236 88.0974 77.0525 87.6103C77.8654 88.4742 78.6845 89.3319 79.4703 90.2146L80.6604 91.5261L81.8151 92.8585C82.1944 93.3061 82.5905 93.7412 82.9552 94.195C83.4033 94.7488 83.8535 95.3025 84.3016 95.8563L85.1312 96.943L85.9399 98.0297L86.7444 99.1122L87.1467 99.6535L87.3467 99.9241L87.4468 100.059L87.4968 100.126C87.5135 100.149 87.5301 100.174 87.5468 100.176C88.1533 99.1226 88.7682 98.0505 89.381 97.0158L89.8416 96.2352L90.2772 95.5274L91.1193 94.1617C91.9509 92.8418 92.7908 91.5303 93.6496 90.2313C95.3607 87.6311 97.1303 85.0726 98.9436 82.5494C101.543 78.8876 104.242 75.2923 107.024 71.7595C109.811 68.2309 112.7 64.7834 115.653 61.388L117.892 58.8649C118.634 58.0176 119.409 57.2057 120.168 56.3729C121.677 54.7033 123.25 53.0941 124.801 51.4641C127.952 48.2519 131.15 45.0792 134.472 42.0419C135.227 41.3507 135.973 40.6554 136.727 39.9788C137.492 39.3105 138.255 38.6465 139.016 37.9824C128.621 46.7967 119.055 56.5561 110.509 66.7007C106.234 71.7741 102.205 76.939 98.4767 82.156C96.6071 84.7603 94.8063 87.375 93.0951 90.0002C92.2364 91.3117 91.4027 92.6253 90.5857 93.9389C90.3335 94.3511 90.0813 94.7654 89.8291 95.1755L89.4477 95.8042L89.0537 96.4746C88.5285 97.3635 88.0054 98.2816 87.4885 99.1892C86.3546 97.7445 85.2437 96.1665 84.0286 94.7217C83.8056 94.4511 83.5826 94.1825 83.3595 93.914C83.1449 93.6454 82.9135 93.3893 82.6842 93.1312C82.2299 92.6149 81.7755 92.1028 81.3232 91.5907C80.873 91.0786 80.3978 90.5873 79.9393 90.0897C79.4745 89.5963 79.0243 89.0946 78.5511 88.6137C77.6111 87.6498 76.692 86.6818 75.7436 85.7554C75.3747 85.389 74.962 84.9789 74.5723 84.5896C76.7003 86.7609 78.7804 88.9655 80.7834 91.2076C81.2836 91.7676 81.7651 92.3401 82.257 92.9064L82.2653 92.9147Z" fill="#028093"/>
<path d="M123.594 51.1581C123.104 51.6723 122.615 52.1844 122.129 52.6944C122.821 51.9908 123.502 51.2955 124.186 50.6001C124.978 49.782 125.772 48.9951 126.558 48.1978C126.066 48.6745 125.572 49.1533 125.084 49.6259L124.332 50.3857L123.596 51.1581H123.594Z" fill="#028093"/>
<path d="M92.1617 87.8976C91.8386 88.3951 91.5114 88.8968 91.1862 89.3986C90.8653 89.9044 90.5422 90.4124 90.2171 90.9204C89.8919 91.4283 89.5772 91.9467 89.2541 92.4609L88.8248 93.1583L88.4746 93.737L88.7956 93.2145L88.9561 92.9543L89.1728 92.6087C89.4688 92.1424 89.7627 91.676 90.0566 91.2097C90.6547 90.2875 91.2425 89.3632 91.8469 88.4597C92.443 87.552 93.0433 86.6589 93.6436 85.7783C94.2355 84.8936 94.842 84.0317 95.4298 83.1782C97.7996 79.7723 100.099 76.6184 102.135 73.86C102.058 73.9579 101.979 74.0578 101.897 74.1598C99.9381 76.7287 97.9872 79.3789 96.0655 82.0831C95.4215 83.0283 94.7712 83.9838 94.1125 84.9498C93.4706 85.924 92.8057 86.8983 92.1617 87.8976Z" fill="#028093"/>
<path d="M86.1096 92.0403L86.5723 92.6191L86.6786 92.7565C86.8495 92.9147 86.9828 93.0604 87.1079 93.1728C87.0475 93.0896 86.9558 92.9667 86.8641 92.8418C86.7077 92.6461 86.5514 92.4505 86.4472 92.3193C86.2367 92.0799 86.0283 91.8426 85.8178 91.6032C85.6093 91.3658 85.3905 91.141 85.1758 90.9078C85.3342 91.0931 85.4905 91.2784 85.6489 91.4637L86.1116 92.0383L86.1096 92.0403Z" fill="#028093"/>
<path d="M44.1734 83.3176C44.2588 83.2239 44.3422 83.1344 44.4298 83.0407C47.4895 79.7265 50.5012 76.4643 53.4755 73.2438C54.2195 72.4381 54.9595 71.6346 55.6994 70.8352C56.6936 69.763 57.6878 68.6951 58.6757 67.6292L59.574 66.6736L59.7991 66.4342L59.8554 66.3739C59.8742 66.3739 59.895 66.4051 59.9158 66.4197L60.0388 66.5258L60.5286 66.9547C61.1831 67.5313 61.8354 68.108 62.4878 68.6826C63.407 69.507 64.3262 70.3293 65.2411 71.1495C68.4405 74.0411 71.5627 76.9598 74.6078 79.9326C77.6509 82.9075 80.6272 85.9282 83.4764 89.0925C84.0433 89.6983 84.6102 90.3062 85.1751 90.9099C81.4692 86.5236 77.5279 82.4537 73.5574 78.5982C71.5773 76.6642 69.5764 74.801 67.588 72.9836C66.5938 72.0759 65.5996 71.1849 64.6075 70.3085C64.026 69.7963 63.4445 69.2863 62.8692 68.7804C62.0501 68.0685 61.2373 67.3627 60.4265 66.657C60.2681 66.5196 60.1055 66.3801 59.9367 66.2365C59.8491 66.0949 59.7762 66.2615 59.697 66.3322C59.6178 66.4176 59.5386 66.505 59.4573 66.5904C59.1384 66.938 58.8049 67.3003 58.4631 67.6729C57.8212 68.3807 57.1459 69.1281 56.4705 69.8734C55.6264 70.8268 54.7802 71.7782 54.082 72.5173C50.9869 75.8315 47.9792 79.0874 45.0175 82.31C41.6431 85.9865 38.3145 89.615 34.9922 93.2353C35.705 93.66 36.4137 94.0826 37.1223 94.5052C36.4262 94.0867 35.73 93.6683 35.0068 93.2332C38.0123 89.9814 41.0637 86.6818 44.1755 83.3176H44.1734Z" fill="#028093"/>
<path d="M170.127 44.6379C170.144 45.5705 170.158 46.4074 170.173 47.1923V44.5942C170.158 44.5942 170.144 44.6233 170.127 44.6358V44.6379Z" fill="#028093"/>
<path d="M170.689 49.0742C170.702 49.2823 170.712 49.4864 170.727 49.7341V48.916C170.714 49.0096 170.702 49.0242 170.689 49.0742Z" fill="#028093"/>
<path d="M170.495 48.5391C170.388 47.7543 170.284 46.6863 170.178 47.4524C170.255 51.3662 170.344 53.7561 170.495 56.1002V48.5412V48.5391Z" fill="#028093"/>
<path d="M158.094 3.71393C157.683 3.66605 157.275 3.60776 156.866 3.56613C156.456 3.54947 156.045 3.5349 155.637 3.51825C154.788 3.52241 153.942 3.52449 153.104 3.52866C146.382 3.56196 139.982 3.62442 134.221 3.74724C142.368 3.75141 147.985 3.65773 155.812 3.66606C155.812 3.65148 155.845 3.64315 156.033 3.6494C156.126 3.65356 156.258 3.66189 156.445 3.67022C156.631 3.68687 156.873 3.68479 157.179 3.74516C156.941 3.70561 156.712 3.70145 156.485 3.69312C156.26 3.68479 156.037 3.67438 155.814 3.66606C155.805 3.67855 155.82 3.6952 155.76 3.70769C155.73 3.71393 155.68 3.7181 155.601 3.72226C155.518 3.72851 155.401 3.73476 155.238 3.73892C155.557 3.73059 155.855 3.74308 156.16 3.75349C156.312 3.75765 156.464 3.7639 156.618 3.76806C156.772 3.77222 156.927 3.77431 157.079 3.79721C157.387 3.8326 157.696 3.87007 158.008 3.90754C158.167 3.92004 158.319 3.9575 158.475 3.98873C158.632 4.01996 158.786 4.05326 158.942 4.08449C160.186 4.36345 161.45 4.77149 162.629 5.40643C163.813 6.02681 164.937 6.80748 165.943 7.72972C166.948 8.65404 167.811 9.73449 168.526 10.8899C168.953 11.4603 169.28 12.064 169.599 12.6094C168.238 9.493 165.783 6.88035 162.815 5.30651C161.335 4.51543 159.73 3.9804 158.098 3.71602L158.094 3.71393Z" fill="#028093"/>
<path d="M3.73945 88.0433C3.77906 96.7265 3.93955 104.34 4.09378 112.04C3.96247 95.6939 3.89787 78.9271 3.7207 66.4551C3.72696 73.6206 3.7332 80.8112 3.73945 88.0454V88.0433Z" fill="#028093"/>
<path d="M4.69916 150.345C4.78462 139.599 4.66999 130.741 4.51367 122.287C4.55327 130.887 4.59079 139.434 4.63039 147.939C4.65332 148.736 4.67623 149.577 4.69916 150.345Z" fill="#028093"/>
<path d="M4.41265 138.421C4.41473 128.586 4.25632 120.265 4.09375 112.038C4.1667 121.285 4.26467 130.333 4.41265 138.421Z" fill="#028093"/>
<path d="M68.5124 0.680745C74.9861 0.547511 78.9128 0.489216 81.143 0.474643C82.1309 0.416353 83.4378 0.337244 85.2094 0.233154H84.0568C77.3746 0.308099 70.5966 0.385131 63.7394 0.460076C60.9381 0.518366 58.264 0.580816 56.0234 0.657842C60.1899 0.66617 64.3751 0.6745 68.5144 0.680745H68.5124Z" fill="#028093"/>
<path d="M81.1424 0.474666C72.7116 1.02426 89.8568 0.416376 81.1424 0.474666V0.474666Z" fill="#028093"/>
<path d="M35.4062 3.39539C36.7256 3.38498 37.9782 3.37458 39.2788 3.36417C38.9516 3.36417 38.6181 3.36417 38.2888 3.36417C37.3363 3.37458 36.3567 3.38498 35.4083 3.39539H35.4062Z" fill="#028093"/>
<path d="M1.74608 64.4836C1.65437 61.6086 1.56266 57.3035 1.56266 52.9775C1.5314 47.3005 1.49806 41.6151 1.4668 36.0234C1.51474 47.5482 1.56267 59.1688 1.70023 68.7971C1.71482 67.3648 1.73149 65.92 1.74608 64.4836Z" fill="#028093"/>
<path d="M172.014 89.155C172 83.4072 171.983 77.6635 171.969 71.9156C171.923 67.6063 171.646 74.7927 171.6 67.6063C171.587 67.9935 171.571 68.3745 171.554 68.7034C171.612 74.1765 171.698 78.9979 171.6 80.5343C171.408 82.5328 171.306 72.1384 171.108 65.5433C171.072 65.3601 171.037 65.0915 171.002 64.7251V62.6662C170.989 62.4226 170.977 62.2207 170.964 62.0021C170.899 62.2603 170.835 61.9522 170.77 61.4754V69.0344C170.62 66.6841 170.531 64.3088 170.453 60.3908C170.453 60.3991 170.449 60.3991 170.449 60.4075V60.1285C170.435 59.3353 170.42 58.5026 170.403 57.5762C170.047 74.2577 169.861 58.5026 169.345 52.3197C169.33 53.777 169.328 55.5569 169.345 57.5408H169.207C169.115 70.473 168.93 79.0978 168.701 90.5935C168.655 93.4705 168.469 93.4706 168.469 97.784C168.469 109.271 168.423 120.786 168.469 132.286C168.505 138.417 168.538 144.47 168.571 150.474C168.58 151.975 168.586 153.472 168.594 154.967V155.527C168.596 155.708 168.6 155.918 168.594 156.058L168.586 156.52C168.582 156.674 168.565 156.826 168.557 156.98C168.544 157.288 168.492 157.59 168.461 157.896C168.402 158.196 168.367 158.502 168.29 158.799C167.769 161.191 166.541 163.419 164.809 165.157C163.081 166.9 160.86 168.13 158.477 168.669C158.181 168.748 157.877 168.786 157.579 168.846C157.275 168.882 156.974 168.936 156.668 168.95C156.516 168.961 156.364 168.979 156.21 168.984L155.749 168.996C155.609 169.002 155.405 169 155.226 169.002H154.671L150.242 169.019C144.338 169.036 138.435 169.052 132.507 169.069C132.666 169.079 132.737 169.09 132.716 169.1C127.003 169.108 121.271 169.117 115.439 169.125C109.68 169.125 105.364 169.262 99.6008 169.262C80.1817 169.285 61.142 169.308 42.2064 169.331C37.473 169.344 32.7438 169.356 28.0188 169.369L20.9323 169.389L19.1607 169.396H18.2749L17.5141 169.381C16.5053 169.329 15.5049 169.165 14.5336 168.892C12.589 168.355 10.7757 167.353 9.25415 166.015C7.73264 164.676 6.5196 162.988 5.72758 161.125C5.33574 160.19 5.0481 159.212 4.87094 158.212C4.77923 157.713 4.72712 157.207 4.68961 156.699C4.67293 156.445 4.67293 156.189 4.66251 155.935L4.65835 155.05C4.64793 152.681 4.63959 150.312 4.62917 147.937C4.5458 144.976 4.47285 141.793 4.41032 138.421C4.41032 140.702 4.40198 143.074 4.38114 145.547C3.64331 122.543 3.7371 82.2996 3.36819 59.3C3.2744 52.7673 3.19728 46.0514 3.13267 39.1794C3.10557 35.7424 3.07638 32.2678 3.0472 28.7579C3.0347 27.003 3.02428 25.2376 3.01177 23.466C3.00552 22.5792 3.00135 21.6923 2.9951 20.8013C2.99301 20.3558 2.99093 19.9103 2.98676 19.4648L2.98259 18.7945L2.99302 18.1449C3.0889 14.6892 4.43324 11.2459 6.77179 8.60198C7.93689 7.28004 9.33335 6.14755 10.8903 5.28777C12.4493 4.43215 14.1647 3.84716 15.9363 3.57028C16.8284 3.4308 17.7121 3.39125 18.6334 3.39125C19.5588 3.39125 20.4883 3.38708 21.4158 3.385C23.275 3.38084 25.1383 3.37876 27.0079 3.3746C30.745 3.37043 34.505 3.36626 38.2796 3.36418C53.1551 3.19972 68.5119 3.05191 84.1606 2.93533C69.8917 3.10188 55.2247 3.23511 39.2718 3.36418C55.3373 3.37251 71.7009 3.38292 88.0811 3.39125C106.481 3.27883 124.083 3.30381 142.764 3.22471C147.085 3.17891 151.401 3.17891 154.286 3.08731C155.307 3.02485 156.324 2.96448 157.32 3.01444C157.816 3.054 158.315 3.06441 158.79 3.15393C159.03 3.18932 159.267 3.22679 159.501 3.26218C159.736 3.2934 159.959 3.36419 160.186 3.41207L159.667 3.25593L159.138 3.14143L158.606 3.02902L158.342 2.9728L158.073 2.93949L156.995 2.80626L155.911 2.76462C154.475 2.74589 153.058 2.77504 151.655 2.7792C148.852 2.80418 146.134 2.82916 143.627 2.85206C144.281 2.83541 144.206 2.79793 144.212 2.77087C136.371 2.78128 130.752 2.86039 122.624 2.86039C128.385 2.73757 134.783 2.67719 141.501 2.6418C144.861 2.63139 148.3 2.6189 151.78 2.60641C152.65 2.60641 153.523 2.60225 154.396 2.60017C154.834 2.60017 155.27 2.59392 155.711 2.60224C156.157 2.62306 156.606 2.63347 157.054 2.66262C158.842 2.81459 160.609 3.27466 162.25 4.0137C162.598 4.15318 162.927 4.2885 163.24 4.41341C163.398 4.4717 163.546 4.54248 163.688 4.61534C163.83 4.68404 163.969 4.75066 164.101 4.81519C162.494 3.82842 160.712 3.12269 158.859 2.74589C158.4 2.62931 157.927 2.58767 157.458 2.52314C156.989 2.44403 156.516 2.45028 156.043 2.42321C155.563 2.39407 155.115 2.40656 154.655 2.40239H153.281C149.615 2.40239 145.942 2.40031 142.268 2.39823C134.917 2.41281 127.555 2.42529 120.202 2.43986C105.497 2.48566 90.8365 2.56686 76.4092 2.67511C71.1819 2.73132 65.8774 2.78753 60.5063 2.84373C63.1574 2.86039 65.8232 2.87705 68.514 2.8937H59.8706C58.4949 2.8937 57.1298 2.8937 55.7354 2.89162C46.7397 2.97073 37.4709 3.04983 27.6436 3.13518C35.4888 3.05399 43.482 2.97073 51.5856 2.88537C43.4424 2.8708 35.1136 2.85831 26.8245 2.84373C24.7528 2.84373 22.6831 2.84374 20.6197 2.84582C20.1028 2.84582 19.5879 2.84582 19.0731 2.8479H18.2999L17.5245 2.86871C16.4907 2.91868 15.4653 3.06857 14.4669 3.31631C12.4681 3.81177 10.5818 4.70278 8.94569 5.90605C7.30745 7.10933 5.91932 8.62072 4.87302 10.3174C4.32278 11.2209 3.83923 12.2139 3.45781 13.2819C3.07847 14.3498 2.80752 15.4906 2.66579 16.6752C2.51156 17.8576 2.55532 19.0797 2.56365 20.3267C2.57407 21.5716 2.58659 22.8352 2.59909 24.1114C2.6512 29.2138 2.70539 34.5016 2.75541 39.4646C2.77209 39.6769 2.79085 39.8747 2.80961 40.0538C2.80544 40.8115 2.80334 41.5568 2.79918 42.3083C2.83669 43.5824 2.8763 44.9439 2.90132 45.7912C3.00136 56.1648 3.12433 66.5508 3.18477 77.4615C3.19728 78.3921 3.20978 79.3352 3.22437 80.2886C3.27023 83.1698 3.22437 87.4791 3.22437 90.3562C3.22437 85.9511 3.20978 81.6689 3.18477 77.4615C3.00761 65.2227 2.75124 55.8046 2.79918 42.3063C2.77833 41.4382 2.76375 40.6242 2.76375 40.0517C2.76166 39.8581 2.75958 39.6603 2.75541 39.4625C2.48863 35.9859 2.48029 26.5991 2.49279 18.4884C2.4386 19.2087 2.41567 18.4884 2.46361 17.587C2.48237 17.1353 2.54699 16.644 2.58868 16.2609C2.64703 15.882 2.68037 15.6114 2.65745 15.6072C3.03261 13.4692 3.86841 11.4062 5.06894 9.60541C6.2674 7.80049 7.82643 6.25788 9.58972 5.08999C11.3509 3.91794 13.3143 3.1227 15.2923 2.72091C16.2802 2.51897 17.2723 2.4128 18.2478 2.3899C19.1898 2.37117 20.1132 2.35243 21.0136 2.33578C32.5229 2.15258 44.0406 2.24418 54.1097 1.9673C56.9943 1.8757 62.7531 1.9215 67.0675 1.8757C68.885 1.83823 70.8609 1.79867 72.8806 1.75704C70.7588 1.74038 68.6266 1.72165 66.5006 1.70499C65.0666 1.65919 103.034 1.41771 101.604 1.23243C101.604 1.23243 101.573 1.23035 101.514 1.22826C101.454 1.22826 101.366 1.22826 101.249 1.22618C101.016 1.22618 100.672 1.22618 100.224 1.22618C99.3299 1.23034 98.0293 1.23451 96.3994 1.23867C93.1375 1.25533 88.5584 1.27614 83.2873 1.30112C72.7451 1.35109 59.4329 1.40938 48.355 1.41562C44.0406 1.27823 52.0983 0.736957 54.9913 0.691158C55.3081 0.680749 55.677 0.668262 56.0251 0.655771C52.7236 0.645362 49.4159 0.637032 46.1498 0.626623C40.9517 0.67034 35.7181 0.714059 30.4762 0.757777C28.3648 0.774431 26.2493 0.791083 24.1275 0.807738C23.0666 0.816065 22.0057 0.824391 20.9427 0.832718L19.3483 0.845209C18.8063 0.851454 18.3207 0.845214 17.6871 0.870195C15.2839 0.957631 12.8891 1.54053 10.7111 2.57518C8.53091 3.60775 6.56753 5.08375 4.97932 6.89283C6.66133 4.94427 8.78936 3.36627 11.1487 2.29414C12.2659 1.77994 13.4977 1.36566 14.7712 1.09711C15.4111 0.965957 16.0614 0.857703 16.7242 0.797331C17.0556 0.766104 17.389 0.734874 17.7246 0.728629L18.229 0.709893L18.6771 0.703648C19.8693 0.691157 21.0824 0.676584 22.3142 0.664093C24.7798 0.649521 27.3227 0.634948 29.9259 0.618294C35.1345 0.601639 40.5869 0.609966 46.1457 0.624539C52.0546 0.56833 57.9218 0.512124 63.7369 0.457998C63.8953 0.453834 64.0307 0.451755 64.1829 0.447591C56.7692 0.430937 49.2075 0.412201 41.825 0.395546C35.0574 0.451755 28.2272 0.507958 21.3554 0.566249C20.4967 0.572494 19.6359 0.578741 18.7751 0.587068H18.452C18.3436 0.591232 18.2415 0.591233 18.1123 0.595397L17.3724 0.618294C16.8805 0.653684 16.3865 0.689075 15.8967 0.761938C13.9354 1.02216 12.0179 1.6238 10.2484 2.50648C8.47673 3.39125 6.8635 4.57787 5.46705 5.97892C4.25817 7.21342 3.21812 8.61448 2.399 10.1404C3.50158 8.04823 5.00016 6.16836 6.82807 4.64032C7.9098 3.73266 9.12909 2.91452 10.4714 2.25875C11.8157 1.60923 13.2705 1.0867 14.8087 0.789002C15.0005 0.753612 15.1943 0.716142 15.3861 0.680751C15.5799 0.645361 15.7758 0.624542 15.9717 0.595397C16.3636 0.535025 16.7575 0.507958 17.1556 0.474649C17.3536 0.453831 17.5537 0.455916 17.7538 0.445507L18.0539 0.435095L18.3416 0.428849C18.6896 0.426768 19.0377 0.422609 19.3899 0.420527C20.7927 0.4122 22.2183 0.403873 23.6668 0.395546C29.4549 0.370565 35.5743 0.378892 41.8229 0.395546C54.712 0.281048 67.4031 0.154053 79.7211 0C71.3507 0 61.8089 2.54374e-07 53.5406 0.0457998C45.2182 0.106172 37.0666 0.164463 29.038 0.222754C27.0309 0.237326 25.0321 0.251899 23.0395 0.268553C22.0432 0.276881 21.049 0.283129 20.0569 0.291456C19.5609 0.29562 19.0648 0.299781 18.5687 0.301863L18.1873 0.306024L17.7559 0.318514L17.3244 0.333089L16.893 0.366398C14.594 0.545433 12.3326 1.16373 10.2754 2.17132C8.21827 3.17891 6.36536 4.56954 4.83134 6.23914C3.29523 7.90666 2.07594 9.85523 1.25265 11.9558C0.431453 14.0542 -0.00207679 16.3046 7.48005e-06 18.5384C0.0291872 22.4251 0.0583761 26.2993 0.0875558 30.1673C0.150084 37.8866 0.210518 45.5788 0.273046 53.294C0.381428 57.0246 0.468973 60.7468 0.500237 64.4815C0.591944 73.1002 0.591939 83.1677 0.637792 91.7947C0.683646 91.0744 0.70658 91.7947 0.723255 92.6961C0.731592 93.1458 0.739926 93.6413 0.746178 94.0243C0.750347 94.2158 0.756599 94.3782 0.758683 94.4948C0.762852 94.6093 0.769106 94.678 0.773275 94.678C0.95669 103.301 0.910831 113.358 0.910831 123.426C0.910831 124.858 0.864985 124.858 0.827468 126.336C1.04423 133.16 1.13802 141.123 1.17554 149.592C1.18179 151.713 1.19012 153.863 1.19637 156.039C1.21305 158.377 1.71953 160.742 2.70122 162.911C3.68083 165.078 5.11689 167.056 6.91144 168.642C8.69974 170.235 10.8278 171.45 13.11 172.173C14.2689 172.537 15.4694 172.77 16.6825 172.879C16.9868 172.897 17.289 172.935 17.5954 172.935C17.8955 172.941 18.2186 172.954 18.4916 172.949C19.0585 172.949 19.6255 172.949 20.1945 172.949C22.4684 172.954 24.759 172.956 27.0705 172.96C24.8403 172.962 22.5789 172.964 20.2987 172.966C19.7276 172.966 19.1565 172.966 18.5854 172.966C18.3082 172.968 17.9956 172.96 17.685 172.951C17.3765 172.951 17.0681 172.918 16.7596 172.897C15.5257 172.789 14.2981 172.554 13.1121 172.175C11.7907 171.756 10.5214 171.188 9.34378 170.476C8.17033 169.758 7.07817 168.909 6.1069 167.941C5.14189 166.968 4.28318 165.892 3.57036 164.726C2.86171 163.558 2.28854 162.309 1.8696 161.01C1.459 159.709 1.20263 158.36 1.10467 157.003C1.0734 156.663 1.07549 156.324 1.0609 155.983L1.05049 155.038L1.03381 153.16C1.0088 150.657 0.983789 148.159 0.958778 145.659C0.977536 148.717 0.996296 151.755 1.01297 154.777L1.01922 155.91C1.03589 156.318 1.03172 156.73 1.07341 157.138C1.12552 157.956 1.26099 158.768 1.4319 159.57C1.60281 160.371 1.85293 161.152 2.13222 161.92C2.42193 162.684 2.77209 163.423 3.15976 164.139C4.73338 166.993 7.1282 169.362 9.96697 170.907C11.3864 171.679 12.91 172.256 14.4857 172.598C14.8775 172.695 15.2777 172.747 15.6737 172.818C16.0739 172.864 16.472 172.926 16.8742 172.947C17.2744 172.983 17.6767 172.991 18.0789 172.997C18.4749 173.003 18.8293 172.997 19.2065 172.997C31.091 172.964 42.9317 172.931 54.9934 172.897C78.0162 172.852 99.5988 172.668 121.186 172.483C129.989 172.412 138.798 172.423 147.589 172.452C146.843 172.483 146.113 172.512 145.415 172.541C148.148 172.548 150.855 172.554 153.554 172.56C154.229 172.56 154.903 172.56 155.578 172.56C156.285 172.55 156.997 172.523 157.7 172.425C158.406 172.346 159.102 172.196 159.792 172.029C160.476 171.84 161.16 171.634 161.814 171.359C163.138 170.836 164.38 170.118 165.528 169.275C166.664 168.415 167.713 167.424 168.6 166.296C170.401 164.06 171.593 161.312 172.025 158.416L172.121 157.627L172.177 156.836C172.19 156.572 172.19 156.307 172.196 156.041C172.2 155.777 172.196 155.531 172.196 155.275C172.058 132.284 172.012 112.556 172.012 89.1508L172.014 89.155ZM1.2735 18.5238C1.28393 18.222 1.27558 17.9201 1.30476 17.6182C1.34228 17.0145 1.40689 16.4129 1.5111 15.8196C1.64032 14.9785 1.84459 14.15 2.10304 13.3464C2.35523 12.5387 2.6762 11.758 3.0472 11.0106C3.45155 10.1946 3.90802 9.43678 4.41241 8.74354C4.9168 8.0503 5.44411 7.40287 6.01937 6.82621C6.59046 6.24747 7.18239 5.71037 7.80767 5.23988C8.42878 4.76315 9.07074 4.3343 9.73771 3.96374C8.6789 4.58203 7.68054 5.31483 6.76971 6.14963C5.86306 6.98859 5.04185 7.9254 4.33112 8.9434C2.89923 10.9752 1.92795 13.3464 1.5111 15.8196C1.37562 16.6731 1.29434 17.5391 1.29643 18.4114L1.29226 18.7382L1.29643 19.0443L1.30476 19.6563C1.30893 20.0644 1.31518 20.4745 1.31935 20.8846C1.33811 22.5271 1.35687 24.1842 1.37354 25.8538C1.40481 29.1951 1.43608 32.5926 1.46734 36.0234C1.45275 32.9132 1.44024 29.8113 1.42565 26.7573C1.41731 25.2314 1.40898 23.7158 1.40064 22.2169C1.39647 21.4675 1.3923 20.7222 1.38605 19.9832C1.38397 19.6126 1.38187 19.2441 1.37979 18.8777C1.38187 18.5051 1.38396 18.1012 1.4048 17.7161C1.55904 14.5996 2.61577 11.6435 4.21649 9.23068C5.82762 6.8158 7.96816 4.93802 10.2463 3.6827C10.1817 3.71392 10.117 3.74932 10.0524 3.78471C10.3505 3.61817 10.6527 3.46203 10.9549 3.31214C10.7215 3.42455 10.4755 3.56195 10.2463 3.6827C12.2743 2.62931 14.4732 2.00061 16.8054 1.8299C17.0972 1.81116 17.3911 1.78618 17.6871 1.78826C17.9831 1.7841 18.2874 1.77786 18.5583 1.7841C19.119 1.79035 19.6859 1.79659 20.2653 1.80284C21.4242 1.81116 22.6268 1.82157 23.8899 1.8299L25.3238 1.7841V1.9215C23.7044 1.96105 22.0411 1.99436 20.3404 2.01726C19.9152 2.02351 19.4879 2.02975 19.0585 2.03392C18.6292 2.04016 18.204 2.04016 17.7371 2.06098C16.8221 2.10054 15.9009 2.20046 14.9901 2.39199C13.1684 2.77296 11.3739 3.44746 9.73979 4.43423C8.10364 5.41684 6.61756 6.68673 5.38367 8.18354C4.15187 9.68243 3.17852 11.4082 2.5324 13.2527C2.21142 14.1749 1.9613 15.1263 1.81332 16.0923C1.74246 16.5753 1.67785 17.0603 1.64867 17.5475C1.62574 17.791 1.6174 18.0346 1.61323 18.2782C1.60697 18.5217 1.60072 18.7695 1.60281 18.9964C1.60489 22.702 1.61741 26.3868 1.65076 29.982C1.83417 48.6682 1.8821 68.7909 2.20308 87.4729C2.24893 90.3499 2.20308 94.6697 2.20308 97.5363C2.02592 87.4729 1.87377 78.8501 1.6966 68.7888C1.55279 60.651 1.46108 51.9471 1.39647 43.0307C1.36937 38.5715 1.34227 34.0623 1.31518 29.5428C1.30476 27.2819 1.29434 25.0211 1.28392 22.7624C1.27975 21.634 1.2735 20.5057 1.26933 19.3774V18.9548C1.26516 18.8153 1.26516 18.6737 1.26933 18.5176L1.2735 18.5238ZM29.9572 172.727C26.3764 172.727 22.6393 172.722 18.8105 172.72C18.5667 172.72 18.3416 172.725 18.081 172.718C17.8267 172.71 17.5704 172.71 17.314 172.697L16.547 172.641L15.7821 172.548C14.7629 172.398 13.752 172.156 12.7682 171.821C10.8007 171.153 8.94359 170.108 7.33454 168.752C5.7234 167.401 4.36238 165.74 3.34942 163.885C2.3323 162.032 1.67576 159.982 1.41939 157.892C1.37771 157.632 1.3652 157.369 1.34019 157.107C1.31309 156.845 1.30476 156.582 1.29643 156.32L1.28392 155.926L1.27975 155.558L1.2735 154.825C1.26308 153.849 1.25266 152.875 1.24223 151.907C1.21931 149.968 1.19638 148.049 1.17345 146.155C1.43815 143.656 1.57363 146.835 1.64658 153.231C1.65492 154.03 1.66117 154.879 1.67159 155.775C1.67993 156.699 1.75079 157.694 1.92795 158.704C2.27811 160.727 3.05346 162.861 4.33528 164.837C4.97515 165.823 5.73383 166.775 6.61339 167.641C7.49504 168.507 8.49131 169.296 9.58555 169.972C11.774 171.319 14.3731 172.194 17.0806 172.373C17.4182 172.406 17.758 172.404 18.0977 172.414C18.4353 172.421 18.7542 172.414 19.0835 172.418C19.738 172.418 20.3946 172.418 21.0532 172.418C22.3704 172.418 23.694 172.418 25.0195 172.416C27.6707 172.412 30.3303 172.41 32.9627 172.406C38.2234 172.385 43.3673 172.364 48.084 172.346C57.5174 172.281 65.248 172.154 68.8121 171.902C74.5709 172.454 41.4832 172.731 29.9572 172.731V172.727ZM143.654 169.552C140.769 169.598 137.899 169.735 136.455 169.735C130.692 169.827 123.505 169.827 116.308 169.872C110.554 169.964 103.348 169.872 96.1555 169.918C95.4344 169.918 94.7153 169.941 94.1776 169.97C93.6378 169.999 93.2793 170.033 93.2793 170.058C83.2102 169.966 77.4513 170.241 67.3718 170.195L71.6967 170.287C65.9337 170.333 61.6213 170.424 54.4223 170.47C48.6593 170.47 44.3532 170.653 40.0346 170.653C32.8397 170.691 25.6427 170.728 18.8043 170.763H18.1686L17.5683 170.753C17.1702 170.73 16.7721 170.711 16.3782 170.657C15.5903 170.566 14.815 170.416 14.0646 170.197C12.5598 169.777 11.1529 169.111 9.88985 168.288C7.36372 166.623 5.47538 164.275 4.35613 161.774C4.66877 162.388 5.14399 163.3 5.72758 164.143C6.30075 164.993 6.97605 165.767 7.46794 166.238C8.92484 167.651 10.9904 169.09 13.5811 169.9C13.9 170.01 14.2356 170.085 14.569 170.178C14.9088 170.247 15.2464 170.335 15.5987 170.385C16.2948 170.509 17.016 170.57 17.7496 170.589C17.9351 170.591 18.1206 170.593 18.3061 170.595C18.5041 170.595 18.7042 170.591 18.9043 170.589C19.3045 170.584 19.7088 170.58 20.1153 170.578C20.9281 170.572 21.7514 170.566 22.583 170.557C29.2402 170.505 36.4372 170.472 42.9171 170.378C47.2274 170.318 51.5543 170.256 55.8667 170.195C76.009 170.012 96.1576 169.827 117.755 169.735C126.388 169.689 136.457 169.598 145.1 169.504C148 169.473 150.903 169.469 153.761 169.471C153.89 169.481 154.034 169.494 154.192 169.508C150.682 169.523 147.166 169.537 143.656 169.552H143.654ZM168.442 160.421C168.461 160.359 168.48 160.3 168.496 160.244C168.503 160.246 168.513 160.236 168.521 160.234C168.494 160.296 168.467 160.361 168.442 160.421ZM170.168 121.825C170.105 109.779 169.993 96.8243 170.034 86.2884C170.045 86.2884 170.057 86.3321 170.07 86.4029C170.141 98.9603 170.247 111.953 170.168 121.825ZM170.278 92.7169C170.255 91.1951 170.235 89.6713 170.212 88.1953C170.266 89.2653 170.31 90.6414 170.31 92.0341C170.299 92.2527 170.289 92.4796 170.278 92.7169Z" fill="#028093"/>
<path d="M5.96216 8.63738C6.78753 7.64228 7.72753 6.74711 8.75715 5.97268C9.79304 5.20866 10.9144 4.56122 12.0962 4.06159C13.28 3.5682 14.5222 3.21638 15.7853 3.01236C16.1021 2.97073 16.4189 2.92285 16.7378 2.89371C17.0567 2.87289 17.3756 2.83333 17.6945 2.83333C18.3364 2.80835 18.9659 2.82084 19.5995 2.81667C22.134 2.81251 24.6622 2.80835 27.1883 2.80418C37.2908 2.78961 47.3578 2.78545 57.604 2.82709C63.8214 2.77504 70.0867 2.723 76.4062 2.67095C81.2813 2.6085 86.123 2.54813 90.9627 2.48775C102.514 2.36493 115.038 2.32329 127.775 2.30039C134.145 2.28998 140.566 2.27958 146.948 2.26917C148.543 2.265 150.137 2.26292 151.725 2.25875C152.519 2.25875 153.314 2.25459 154.106 2.25251H155.294L155.59 2.24835L155.898 2.25875L156.515 2.28373C159.802 2.45652 163.03 3.60776 165.604 5.58547C165.692 5.62918 165.771 5.66457 165.842 5.6958C165.909 5.73119 165.967 5.75825 166.017 5.77699C166.117 5.81654 166.18 5.82487 166.203 5.79989C166.226 5.77491 166.207 5.71246 166.142 5.61253C166.08 5.50844 165.965 5.37521 165.79 5.20866C162.924 3.01445 159.32 1.77578 155.698 1.76329L145.585 1.74872C138.849 1.75913 132.112 1.76953 125.376 1.77994C111.903 1.81325 98.4348 1.85489 84.9663 1.81741C84.7578 1.82158 84.5432 1.82783 84.3347 1.83199C72.8129 2.10887 54.1045 2.01518 39.7148 2.24626C32.5178 2.38574 25.3271 2.47318 18.1259 2.56478C16.2855 2.60017 14.4535 2.952 12.7339 3.59527C11.0186 4.24687 9.41995 5.18992 8.02349 6.36614C6.6312 7.5486 5.44733 8.9663 4.53026 10.5339C3.61318 12.1036 2.98583 13.8315 2.65234 15.6072C2.90871 14.3248 3.32972 13.0841 3.88205 11.9079C4.44064 10.7358 5.14721 9.63872 5.96216 8.6353V8.63738Z" fill="#028093"/>
<path d="M4.51377 122.287C4.48459 116.658 4.45749 110.999 4.42831 105.293C4.31992 89.4193 4.18028 75.3297 4.01562 60.9196C4.02813 71.493 4.04064 82.1247 4.05523 92.8376C4.10525 103.567 4.33661 112.654 4.51585 122.285L4.51377 122.287Z" fill="#028093"/>
<path d="M3.60236 23.5805L3.58985 20.0269L3.58568 19.138V18.6966L3.59401 18.2844C3.60235 17.7348 3.65446 17.1873 3.72741 16.6419C3.9671 14.8557 4.56529 13.1257 5.44068 11.5477C4.88627 12.5533 4.44231 13.6191 4.14426 14.7266C3.94 15.4678 3.78785 16.2255 3.71073 16.9916C3.68363 17.1832 3.67113 17.3747 3.65862 17.5662C3.6482 17.7577 3.62528 17.9493 3.62737 18.1429L3.61695 18.7195L3.62111 19.342L3.70031 29.3075C3.75867 35.9506 3.81703 42.5915 3.87539 49.2303C3.92333 53.1816 3.96918 57.0516 4.01504 60.9175C3.99211 53.0816 3.97127 45.2749 3.94834 37.4869C3.93375 33.594 3.92124 29.7031 3.90665 25.8185C3.9004 23.8761 3.89207 21.9338 3.88581 19.9915V19.2629C3.88581 19.0256 3.87748 18.7632 3.88581 18.553C3.89415 18.3323 3.88999 18.1116 3.90458 17.891L3.95251 17.231C4.04005 16.3525 4.21096 15.4844 4.45899 14.6371C4.85708 13.2423 5.48027 11.9121 6.28063 10.6963C6.68706 10.0926 7.13518 9.51591 7.6229 8.97256C8.11062 8.4313 8.64836 7.93375 9.21111 7.46951C11.4725 5.61879 14.3092 4.48005 17.2376 4.26354C17.421 4.24481 17.6045 4.2344 17.7879 4.23232C17.9755 4.22815 18.1484 4.21774 18.3465 4.21566L19.5449 4.20734L21.9397 4.19068L26.7315 4.15737L36.3149 4.08659C49.0936 3.98042 61.8701 3.87425 74.6446 3.77016C77.548 3.74934 80.4284 3.72852 83.2922 3.7077C71.4056 3.69729 59.5274 3.68897 47.7659 3.67856C41.8862 3.67856 36.0335 3.68064 30.2268 3.68272C27.3234 3.68688 24.4283 3.68897 21.5479 3.69313C20.8267 3.69313 20.1077 3.69521 19.3886 3.69729H18.311C17.963 3.70978 17.6253 3.7077 17.2835 3.73476C16.6019 3.77432 15.9266 3.87633 15.2576 4.00332C14.5948 4.15113 13.932 4.3135 13.2942 4.54875C10.7326 5.44808 8.43785 7.05107 6.72875 9.11829C5.01549 11.1834 3.87331 13.6899 3.46687 16.3026C3.41268 16.6294 3.37934 16.9562 3.34391 17.2852C3.32307 17.6141 3.28763 17.943 3.28972 18.2719L3.2793 18.7674V19.2879L3.28763 20.3267C3.29597 21.7111 3.30222 23.0934 3.31055 24.4694C3.32723 27.2216 3.34599 29.955 3.36266 32.6655C3.43769 43.5137 3.54399 54.0309 3.68989 64.1068C3.70031 64.8459 3.71283 65.6703 3.72325 66.453C3.70032 56.8622 3.67739 47.3234 3.65238 37.8179C3.6357 33.0652 3.62112 28.3208 3.60444 23.5805H3.60236Z" fill="#028093"/>
<path d="M51.584 2.88122C52.9784 2.88122 54.354 2.88539 55.7338 2.88539C57.3428 2.86873 58.9248 2.85416 60.5047 2.8375C59.5355 2.83334 58.5642 2.82918 57.6054 2.82501C55.5899 2.84375 53.5786 2.8604 51.584 2.87914V2.88122Z" fill="#028093"/>
<path d="M0.0878906 41.4839V47.2359C0.114986 48.1103 0.144158 48.9763 0.171254 49.8507C0.173338 48.5058 0.177515 47.1443 0.179599 45.7891L0.0878906 41.4839Z" fill="#028093"/>
<path d="M0.831501 126.334C0.637664 100.855 0.454252 76.9702 0.275005 53.296C0.239573 52.1469 0.20414 50.9957 0.170792 49.8507C0.141612 65.7389 0.202055 81.5398 0.456336 96.1082C0.502189 98.979 0.639752 103.299 0.639752 106.169C0.683522 119.778 0.829418 132.735 0.962811 145.659C0.921125 139.48 0.879443 133.241 0.835674 126.865C0.835674 126.686 0.833585 126.513 0.831501 126.334Z" fill="#028093"/>
<path d="M156.898 54.9927C156.915 55.7942 156.93 56.5104 156.944 57.1849V54.9573C156.93 54.9573 156.915 54.9823 156.898 54.9948V54.9927Z" fill="#028093"/>
<path d="M157.459 58.7982C157.471 58.9773 157.482 59.1522 157.496 59.3645V58.6629C157.484 58.742 157.471 58.7545 157.459 58.7982Z" fill="#028093"/>
<path d="M157.266 58.3382C157.16 57.6637 157.056 56.7498 156.949 57.4055C157.026 60.7635 157.116 62.812 157.266 64.823V58.3382Z" fill="#028093"/>
<path d="M144.681 16.95C146.832 16.9271 149.165 16.9021 151.568 16.8771C152.168 16.873 152.775 16.8667 153.383 16.8625C153.683 16.8625 153.986 16.8605 154.288 16.8584C154.538 16.8667 154.792 16.8854 155.034 16.9521C156.018 17.1769 156.868 17.9159 157.254 18.8465C157.368 19.0817 157.475 19.3232 157.529 19.5751C157.543 19.6376 157.562 19.7 157.575 19.7604C157.583 19.8229 157.593 19.8853 157.602 19.9478C157.625 20.0643 157.635 20.2142 157.646 20.3516V20.0706L157.631 19.827C157.631 19.7458 157.614 19.6646 157.602 19.5855C157.587 19.5064 157.583 19.4232 157.56 19.3461C157.491 19.0276 157.364 18.7258 157.212 18.4385C157.054 18.1533 156.847 17.8993 156.62 17.6661C156.387 17.4392 156.12 17.2518 155.836 17.0936C155.549 16.9437 155.24 16.8396 154.926 16.7668C154.765 16.748 154.607 16.7085 154.444 16.7106C154.361 16.7085 154.29 16.7002 154.194 16.7002H153.913C153.162 16.7022 152.414 16.7043 151.668 16.7064C148.683 16.7189 145.732 16.7293 142.849 16.7418C137.084 16.7751 131.594 16.8376 126.65 16.9604C133.641 16.9604 138.449 16.8792 145.18 16.8709C145.184 16.8417 145.292 16.8272 146.409 16.8709C145.978 16.8709 145.584 16.8709 145.18 16.8709C145.163 16.8979 145.236 16.9354 144.677 16.9521L144.681 16.95Z" fill="#028093"/>
<path d="M16.966 87.069C17.0056 94.5177 17.1661 101.048 17.3204 107.652C17.189 93.6308 17.1244 79.2477 16.9473 68.5494C16.9535 74.6948 16.9598 80.8632 16.966 87.0669V87.069Z" fill="#028093"/>
<path d="M17.9277 140.509C18.0131 131.291 17.8985 123.692 17.7422 116.441C17.7818 123.819 17.8193 131.149 17.8589 138.444C17.8818 139.126 17.9048 139.849 17.9277 140.509Z" fill="#028093"/>
<path d="M17.6392 130.281C17.6413 121.845 17.4829 114.707 17.3203 107.652C17.3933 115.583 17.4912 123.344 17.6392 130.281Z" fill="#028093"/>
<path d="M70.2953 13.8939C75.8478 13.7607 79.216 13.7024 81.1293 13.6878C81.9776 13.6233 83.0989 13.5442 84.6163 13.4463H83.6283C77.8966 13.5213 72.0815 13.5983 66.1997 13.6732C63.7965 13.7315 61.5039 13.794 59.5801 13.871C63.1546 13.8793 66.7437 13.8877 70.2932 13.8939H70.2953Z" fill="#028093"/>
<path d="M81.1309 13.6878C73.8985 14.2374 88.6051 13.6295 81.1309 13.6878V13.6878Z" fill="#028093"/>
<path d="M45.2208 16.5774C44.9415 16.5774 44.6538 16.5774 44.3704 16.5774C43.5533 16.5878 42.7134 16.5982 41.8984 16.6086C43.0302 16.5982 44.1036 16.5878 45.2187 16.5774H45.2208Z" fill="#028093"/>
<path d="M14.7892 56.9913C14.7705 52.1219 14.7371 47.2443 14.6934 42.4499C14.7413 52.3343 14.7892 62.304 14.9268 70.5604C14.9268 69.3321 14.9727 68.0914 14.9727 66.861C14.8809 64.3962 14.7892 60.7031 14.7892 56.9913Z" fill="#028093"/>
<path d="M45.2201 16.5773C58.9992 16.5857 73.0346 16.5961 87.0867 16.6044C102.869 16.492 117.967 16.517 133.991 16.4379C137.697 16.3921 141.399 16.3921 143.873 16.3005C145.621 16.1776 147.374 16.0548 148.937 15.9445C144.054 15.959 139.029 16.009 134.727 16.061C135.287 16.0444 135.223 16.0069 135.229 15.9799C128.503 15.9903 123.684 16.0694 116.71 16.0694C126.592 15.8237 138.664 15.8237 150.742 15.7967C151.368 15.7404 151.932 15.6863 152.422 15.6301C127.367 15.5593 101.82 15.6717 77.0697 15.8862C72.5865 15.9424 68.0365 15.9986 63.4282 16.0548C65.7022 16.0714 67.9886 16.0881 70.2959 16.1048H62.8821C61.7025 16.1048 60.5311 16.1048 59.3347 16.1027C51.6188 16.1818 43.6694 16.2609 35.2385 16.3463C41.9686 16.2651 48.8238 16.1818 55.7748 16.0964C48.7883 16.0819 41.6456 16.0694 34.5361 16.0548C30.9804 16.061 27.435 16.0673 23.921 16.0715C23.0435 16.0756 22.166 16.0798 21.2927 16.0839C20.855 16.086 20.4194 16.0902 19.9838 16.0923C19.5523 16.0881 19.1021 16.1068 18.6749 16.2151C17.8141 16.415 17.0491 16.9354 16.5093 17.6099C15.9695 18.2927 15.6735 19.1525 15.6673 20.0081C15.7944 27.2632 15.8486 36.8894 15.9778 45.4019C15.9945 45.583 16.0133 45.7537 16.032 45.9077C16.0278 46.5573 16.0258 47.1964 16.0216 47.8417C16.0591 48.9347 16.0987 50.1026 16.1237 50.8291C16.2238 59.7267 16.3467 68.6368 16.4072 77.9945C16.4197 78.7918 16.4322 79.6016 16.4468 80.4198C16.4926 82.8908 16.4468 86.5881 16.4468 89.055C16.4468 85.2766 16.4322 81.6043 16.4072 77.9945C16.23 67.496 15.9736 59.4186 16.0216 47.8396C16.0007 47.0944 15.9862 46.397 15.9862 45.9057C15.9841 45.7391 15.982 45.5705 15.9778 45.3998C15.709 42.4187 15.7089 34.3663 15.7089 27.4068C15.6172 28.6434 15.6631 24.9357 15.5714 24.9357C15.5485 24.0114 15.5255 23.0871 15.5026 22.1649C15.4901 21.7048 15.4797 21.2426 15.4693 20.7846L15.4526 20.0956C15.4568 19.8562 15.4609 19.6126 15.5005 19.3732C15.6422 18.4156 16.1279 17.5037 16.8595 16.8625C17.5869 16.2172 18.5394 15.8237 19.5107 15.7904C23.0602 15.7051 26.4596 15.6239 29.5506 15.551C39.4237 15.3678 49.3011 15.4594 57.9383 15.1825C60.4123 15.0909 65.352 15.1367 69.0516 15.0909C70.6106 15.0535 72.3051 15.0139 74.0371 14.9723C72.2176 14.9556 70.3897 14.9369 68.5659 14.9202C67.3362 14.8744 99.9029 14.6329 98.6753 14.4477C98.6753 14.4477 98.6502 14.4456 98.5981 14.4435C98.5481 14.4435 98.471 14.4435 98.371 14.4414C98.1709 14.4414 97.8749 14.4414 97.4914 14.4414C96.7244 14.4456 95.6093 14.4497 94.2108 14.4539C91.4137 14.4685 87.4848 14.4914 82.9641 14.5164C73.9204 14.5663 62.5028 14.6246 53.0006 14.6308C49.3011 14.4934 56.2104 13.9522 58.6928 13.9064C58.9637 13.896 59.2826 13.8835 59.5807 13.871C56.7482 13.8606 53.9115 13.8523 51.1102 13.8419C46.652 13.8856 42.1625 13.9293 37.6667 13.973C34.0442 14.0063 30.4051 14.0396 26.7535 14.0729C24.9277 14.0896 23.0977 14.1042 21.2677 14.1208L19.8942 14.1333H19.7232C19.6607 14.1354 19.6232 14.1333 19.5252 14.1395C19.3522 14.1479 19.1793 14.1562 19.0083 14.1687C18.8374 14.1916 18.6644 14.2187 18.4935 14.2478C18.3226 14.2769 18.1559 14.329 17.987 14.3706C16.6489 14.7558 15.4693 15.6197 14.7023 16.7668C15.5109 15.5323 16.8032 14.6121 18.2643 14.2624C18.6269 14.1749 19 14.1166 19.3731 14.1L19.6378 14.0875L19.8212 14.0833L20.1901 14.075C20.682 14.0646 21.1718 14.0542 21.6616 14.0417C22.5912 14.0188 23.5645 13.9959 24.5462 13.9709C32.4102 13.8044 41.5789 13.8085 51.1165 13.8377C56.1854 13.7815 61.2168 13.7253 66.2066 13.6711C66.342 13.667 66.4588 13.6649 66.588 13.6607C60.2289 13.6441 53.7426 13.6253 47.4106 13.6087C41.606 13.6649 35.7471 13.7211 29.8528 13.7794C26.9056 13.8065 23.948 13.8314 20.9842 13.8585L19.8712 13.8689L19.5836 13.8731L19.1459 13.896C19 13.9022 18.8541 13.9251 18.7103 13.948C18.5665 13.973 18.4206 13.9897 18.2768 14.0271C17.7015 14.1541 17.1513 14.3727 16.6364 14.6496C16.1258 14.939 15.6568 15.2929 15.2421 15.703C14.8356 16.1214 14.4813 16.5898 14.1999 17.1019C13.9269 17.6182 13.7101 18.1657 13.5892 18.7403C13.5517 18.8819 13.5371 19.0276 13.5142 19.1712C13.4934 19.3149 13.4705 19.4606 13.4663 19.6043L13.4475 20.0394V20.0914V20.1268V20.1955V20.335L13.4579 21.4508L13.4433 20.7139L13.435 20.3454L13.4308 20.1622C13.4308 20.1268 13.4288 20.1122 13.4308 20.0602L13.435 19.9165C13.4434 19.1504 13.5997 18.376 13.8936 17.6578C14.4813 16.2193 15.6235 15.0222 17.0554 14.3644C17.8203 14.0063 18.679 13.8002 19.544 13.7794C20.0942 13.7669 20.6507 13.7544 21.2156 13.7398C22.3265 13.7211 23.4624 13.7024 24.6234 13.6815C26.9431 13.6482 29.3546 13.6274 31.837 13.6149C36.8017 13.59 42.0499 13.5983 47.4106 13.6149C58.4677 13.5004 69.3538 13.3734 79.9189 13.2194C72.7386 13.2194 64.5558 13.2194 57.4631 13.2652C50.3244 13.3256 43.3317 13.3839 36.4453 13.4421C33.0021 13.4734 29.586 13.5025 26.1907 13.5317C24.4941 13.5462 22.8017 13.5629 21.1134 13.5775L19.8483 13.5879H19.6899L19.6107 13.59L19.4815 13.5941C19.3085 13.6024 19.1355 13.6129 18.9625 13.6253C18.6186 13.6711 18.2726 13.7232 17.937 13.821C17.2659 14.0063 16.6219 14.2894 16.0466 14.6766C15.4734 15.0639 14.9628 15.5364 14.5355 16.0777C13.683 17.1582 13.1932 18.5321 13.1682 19.8978L13.1641 20.0248V20.0872V20.1268V20.2829L13.1682 20.5973L13.1745 21.2239L13.187 22.4771C13.2016 24.1467 13.2182 25.8122 13.2328 27.4755C13.2641 30.8022 13.2954 34.1185 13.3245 37.4286C13.3871 44.0487 13.4475 50.648 13.51 57.2639C13.6184 60.4637 13.706 63.6551 13.7372 66.8589C13.8289 74.2514 13.8289 82.8867 13.8748 90.2854C13.9206 89.6692 13.9436 90.2854 13.9603 91.0577C13.9686 91.4429 13.9769 91.8675 13.9832 92.1965C13.9915 92.5254 13.9999 92.7565 14.0103 92.7565C14.1937 100.153 14.1478 108.778 14.1478 117.415C14.1478 118.644 14.102 118.644 14.0645 119.911C14.2812 125.765 14.375 132.594 14.4125 139.859C14.4209 143.492 14.4271 147.233 14.4355 151.016C14.4355 151.961 14.4355 152.91 14.4355 153.859V154.573L14.4584 155.042C14.473 155.198 14.5001 155.352 14.523 155.506C14.6376 156.122 14.8648 156.718 15.192 157.253C15.8423 158.325 16.8907 159.145 18.0954 159.513L18.5519 159.632C18.7061 159.659 18.8624 159.682 19.0167 159.705C19.173 159.726 19.3293 159.726 19.4856 159.736L19.6024 159.74H19.6941H19.8733H21.301C25.159 159.728 29.0503 159.726 33.0167 159.74C29.1921 159.74 25.2549 159.74 21.301 159.742C20.7508 159.744 20.2005 159.747 19.6524 159.749C18.9583 159.755 18.2101 159.62 17.5494 159.33C16.2154 158.762 15.1525 157.623 14.6772 156.255C14.5564 155.914 14.4751 155.56 14.4271 155.204C14.3979 155.025 14.3979 154.846 14.3854 154.667C14.3792 154.569 14.3813 154.507 14.3792 154.438V154.234C14.3729 153.693 14.3688 153.149 14.3646 152.61C14.3542 151.528 14.3458 150.449 14.3354 149.371C14.2875 145.06 14.2416 140.773 14.1958 136.487C14.2312 141.733 14.2666 146.91 14.3 152.05C14.3042 152.693 14.3083 153.335 14.3125 153.976V154.457L14.3167 154.582L14.325 154.742L14.3438 155.065C14.3938 155.491 14.4792 155.918 14.6293 156.322C14.919 157.134 15.4088 157.871 16.0466 158.443C16.3571 158.739 16.7198 158.974 17.0908 159.189C17.4722 159.382 17.8703 159.553 18.2872 159.651C18.7019 159.765 19.1292 159.805 19.5544 159.817H20.5257L22.4411 159.805C23.7167 159.799 24.9923 159.792 26.2658 159.786C36.4599 159.753 46.6165 159.72 56.9628 159.686C76.7113 159.64 95.2237 159.457 113.74 159.272C121.294 159.201 128.847 159.212 136.388 159.241C135.748 159.272 135.123 159.301 134.525 159.33C139.212 159.336 143.814 159.343 148.441 159.349C149.598 159.349 150.757 159.345 151.918 159.343C152.499 159.343 153.081 159.341 153.662 159.339C153.963 159.334 154.217 159.345 154.596 159.32C154.948 159.297 155.299 159.224 155.64 159.126C157.001 158.71 158.154 157.661 158.671 156.324C158.731 156.155 158.8 155.991 158.838 155.814C158.883 155.641 158.925 155.466 158.946 155.289C158.958 155.2 158.973 155.113 158.981 155.023L158.994 154.754C159.004 154.563 159 154.428 159 154.278C158.996 153.684 158.994 153.089 158.99 152.492C158.984 151.628 158.979 150.766 158.973 149.893C158.836 130.173 158.79 113.25 158.79 93.1749C158.775 88.2452 158.758 83.3176 158.744 78.3879C158.698 74.6907 158.421 80.8569 158.375 74.6907C158.362 75.0237 158.346 75.3485 158.329 75.6316C158.387 80.3261 158.473 84.4626 158.375 85.7783C158.183 87.4937 158.081 78.5774 157.883 72.919C157.848 72.7629 157.812 72.5298 157.777 72.2175V70.4521C157.764 70.2439 157.752 70.0711 157.739 69.8817C157.675 70.1045 157.61 69.838 157.545 69.43V75.9148C157.395 73.8975 157.306 71.8615 157.229 68.5015C157.229 68.5077 157.224 68.5077 157.224 68.516V68.2766C157.21 67.5959 157.195 66.8818 157.179 66.0887C156.822 80.3969 156.637 66.8818 156.12 61.5795C156.105 62.8286 156.103 64.3545 156.12 66.0574H155.982C155.89 77.1493 155.705 84.548 155.476 94.4094C155.43 96.8784 155.244 96.8784 155.244 100.578C155.244 110.433 155.198 120.309 155.244 130.173C155.28 135.431 155.313 140.625 155.346 145.774C155.361 148.349 155.376 150.911 155.39 153.466L155.394 154.423V154.542C155.394 154.567 155.394 154.569 155.394 154.575V154.594C155.39 154.617 155.39 154.642 155.39 154.665C155.39 154.713 155.376 154.757 155.374 154.802C155.334 154.979 155.259 155.15 155.14 155.3C155.015 155.443 154.863 155.566 154.692 155.639C154.604 155.668 154.519 155.708 154.423 155.714C154.377 155.729 154.327 155.725 154.279 155.729C154.263 155.729 154.265 155.733 154.231 155.733H154.113H153.875C143.7 155.77 133.612 155.81 123.445 155.847C123.58 155.858 123.641 155.868 123.624 155.879C118.724 155.887 113.807 155.895 108.805 155.904C103.865 155.904 100.161 156.041 95.2195 156.041C78.5621 156.064 62.2319 156.087 45.9892 156.11C37.8689 156.137 29.7694 156.164 21.6616 156.191L20.1422 156.197H19.7628H19.667C19.6357 156.197 19.5961 156.197 19.5919 156.197L19.5107 156.191H19.4294L19.3523 156.176L19.273 156.168L19.198 156.147C18.7916 156.051 18.4164 155.779 18.1892 155.414C18.0767 155.233 17.9996 155.033 17.9641 154.823C17.9558 154.771 17.9412 154.719 17.9454 154.663C17.9454 154.602 17.9329 154.582 17.9349 154.423L17.9308 153.664L17.9183 150.622C17.8995 146.565 17.8808 142.503 17.862 138.431C17.7786 135.891 17.7057 133.162 17.6431 130.268C17.6431 132.225 17.6348 134.259 17.614 136.381C16.8761 116.649 16.9699 82.131 16.601 62.4018C16.4134 51.1955 16.2905 39.3563 16.2133 27.0821C16.205 25.5478 16.1946 24.0073 16.1862 22.4605C16.1821 21.6861 16.1779 20.9116 16.1737 20.1351C16.1654 19.4398 16.3509 18.7715 16.724 18.1928C16.9136 17.9097 17.1388 17.6474 17.3993 17.4246C17.664 17.2081 17.96 17.027 18.2726 16.8875C18.5915 16.7564 18.9271 16.6752 19.2689 16.6335C19.5919 16.6065 20.015 16.6148 20.4006 16.6127C21.9743 16.6086 23.552 16.6023 25.1361 16.5981C31.4723 16.5877 37.8918 16.5773 44.3676 16.5648C57.1275 16.4004 70.3 16.2526 83.7227 16.136C71.4839 16.3025 58.9033 16.4358 45.218 16.5648L45.2201 16.5773ZM157.083 95.6481C157.072 95.8355 157.062 96.0311 157.051 96.2331C157.028 94.9278 157.008 93.6204 156.985 92.3547C157.039 93.2728 157.083 94.4531 157.083 95.6481ZM156.805 90.7184C156.816 90.7184 156.828 90.7559 156.841 90.8162C156.912 101.587 157.018 112.733 156.939 121.198C156.876 110.866 156.764 99.7534 156.805 90.7163V90.7184ZM155.988 154.679C155.98 154.709 155.982 154.742 155.968 154.769C155.974 154.742 155.968 154.713 155.968 154.686C155.974 154.686 155.982 154.682 155.988 154.679ZM14.4167 19.8624C14.423 19.7479 14.425 19.6334 14.4375 19.521C14.473 19.2962 14.4917 19.0692 14.5543 18.8507C14.6481 18.4093 14.8294 17.9971 15.0253 17.6057C15.2442 17.2268 15.4839 16.8625 15.7819 16.5544C16.3572 15.9216 17.0846 15.4594 17.862 15.1867C18.2497 15.0451 18.654 14.9681 19.0542 14.9181C19.2501 14.9036 19.471 14.8952 19.644 14.8932C19.7962 14.8932 19.9483 14.8952 20.1005 14.8973C20.4694 14.8952 20.8342 14.8932 21.1968 14.889C20.9905 14.8932 20.7675 14.8973 20.5611 14.9015C24.194 14.939 27.6851 15.0139 32.0204 15.041L33.2501 14.9952V15.1326C30.4739 15.2138 27.5413 15.2596 24.5129 15.2845C22.9997 15.2929 21.4615 15.3012 19.9067 15.3095H19.6149L19.2647 15.3283C19.1459 15.3303 19.0292 15.3491 18.9125 15.3678C18.7957 15.3886 18.6769 15.3969 18.5623 15.4303C18.0975 15.5302 17.6536 15.7134 17.2388 15.9445C16.4155 16.4191 15.7277 17.1394 15.315 18.0054C15.2025 18.2178 15.1274 18.4468 15.0461 18.6716C14.9857 18.9027 14.919 19.1359 14.8898 19.3732C14.844 19.6084 14.8461 19.852 14.8315 20.0872V20.6826C14.8315 21.4758 14.8315 22.271 14.8315 23.0684C14.8315 24.6609 14.8315 26.2556 14.8315 27.844C14.8336 31.0229 14.8461 34.1831 14.8794 37.2683C15.0628 53.296 15.1108 70.5562 15.4317 86.5819C15.4776 89.0509 15.4317 92.7565 15.4317 95.2151C15.2942 86.5819 15.0628 79.1873 14.9253 70.5562C14.6356 56.5957 14.5647 40.6908 14.4834 25.2772C14.4626 23.9198 14.4396 22.5687 14.4188 21.2426C14.4146 20.8804 14.4104 20.5244 14.4063 20.1747C14.4042 20.0997 14.4084 19.9727 14.4146 19.8603L14.4167 19.8624ZM35.4803 159.513C32.4081 159.513 29.2025 159.509 25.9198 159.507C24.2774 159.511 22.6162 159.518 20.9425 159.522C20.5236 159.522 20.1047 159.526 19.6857 159.528H19.6065L19.5086 159.524L19.3106 159.515C19.1772 159.511 19.0459 159.501 18.9145 159.478C18.6498 159.449 18.3914 159.38 18.1329 159.311C17.1158 158.991 16.1925 158.356 15.5672 157.484C15.2525 157.051 15.0024 156.568 14.8356 156.056C14.7627 155.797 14.6918 155.535 14.6585 155.269L14.6293 155.069L14.6168 154.867L14.6064 154.665L14.6022 154.565V154.486L14.5814 151.944C14.5647 150.249 14.5501 148.557 14.5334 146.871C14.4897 143.5 14.448 140.163 14.4063 136.911C14.671 134.769 14.8065 137.496 14.8794 142.98C14.9148 145.722 14.9357 149.154 14.9461 153.012C14.9461 153.495 14.9482 153.984 14.9503 154.478C14.9503 154.536 14.9503 154.607 14.9565 154.682L14.969 154.902C14.9711 155.05 15.0024 155.196 15.0232 155.342C15.042 155.489 15.0816 155.633 15.1191 155.777C15.1525 155.922 15.2046 156.062 15.2587 156.203C15.6819 157.328 16.5718 158.294 17.7161 158.801C18.2851 159.055 18.9146 159.195 19.5461 159.201C20.0859 159.201 20.6299 159.201 21.176 159.201C22.264 159.201 23.3665 159.201 24.4795 159.199C42.2875 159.187 62.6946 159.182 68.8077 158.681C73.7474 159.232 45.366 159.509 35.4803 159.509V159.513ZM16.5114 154.519C16.5135 154.623 16.5239 154.69 16.5281 154.773C16.5301 154.852 16.5427 154.929 16.5572 155C16.5718 155.073 16.5802 155.142 16.5968 155.208C16.6156 155.273 16.6344 155.333 16.6531 155.391C16.8803 156.068 17.3889 156.736 18.1246 157.126C18.4894 157.319 18.9041 157.448 19.3418 157.467H19.5065L19.5898 157.473H19.6982C19.8483 157.469 19.9984 157.465 20.1484 157.463C20.4507 157.457 20.7591 157.452 21.0697 157.446C23.5562 157.402 26.2949 157.371 29.1504 157.346C34.8592 157.294 41.0349 157.261 46.5915 157.167C50.289 157.107 53.999 157.044 57.7007 156.984C74.9771 156.801 92.2599 156.616 110.785 156.524C118.188 156.478 126.825 156.387 134.239 156.293C136.726 156.262 139.216 156.257 141.667 156.26C141.778 156.27 141.901 156.282 142.036 156.297C139.027 156.312 136.009 156.326 132.999 156.341C130.525 156.387 128.063 156.524 126.823 156.524C121.881 156.616 115.714 156.616 109.543 156.661C104.607 156.753 98.4252 156.661 92.2557 156.707C91.6388 156.707 91.0218 156.73 90.5591 156.759C90.0964 156.788 89.7879 156.822 89.7879 156.847C81.1507 156.755 76.2131 157.03 67.5655 156.984L71.2755 157.076C66.3337 157.121 62.632 157.213 56.4584 157.259C51.5166 157.259 47.8212 157.442 44.1175 157.442C37.946 157.48 31.7724 157.517 25.9073 157.552C24.442 157.565 22.9935 157.575 21.572 157.586C21.2156 157.59 20.8613 157.592 20.509 157.596C20.3319 157.596 20.1568 157.6 19.9817 157.602H19.7191L19.5898 157.607L19.4877 157.602C19.2147 157.609 18.95 157.546 18.6915 157.484C18.4393 157.396 18.1851 157.303 17.962 157.155C17.5014 156.882 17.1304 156.476 16.8678 156.022C16.6177 155.554 16.476 155.056 16.4718 154.511C16.4447 153.206 16.4197 151.934 16.3947 150.701C16.4405 151.319 16.4635 152.246 16.4801 153.17C16.4885 153.632 16.4968 154.097 16.503 154.519H16.5114Z" fill="#028093"/>
<path d="M15.5779 19.9457C15.5966 19.3795 15.7363 18.8194 15.9843 18.3136C16.4762 17.2956 17.4141 16.5045 18.5042 16.2047C18.7751 16.1277 19.0544 16.0777 19.3358 16.0611C19.6193 16.0403 19.8902 16.0486 20.1653 16.0465C20.7135 16.0465 21.2596 16.0465 21.8057 16.0444C26.1784 16.0361 30.52 16.0278 34.8532 16.0194C43.5195 16.0049 52.1526 16.0007 60.9419 16.0423C66.2756 15.9903 71.6488 15.9382 77.07 15.8862C81.251 15.8237 85.405 15.7634 89.5547 15.703C109.372 15.4574 132.524 15.5406 153.811 15.4282C154.125 15.3595 154.298 15.2908 154.313 15.2263C154.3 15.1534 154.127 15.0847 153.744 15.0118C130.627 14.862 107.515 15.1076 84.4108 15.0306C84.2315 15.0347 84.0481 15.041 83.8689 15.0452C73.9874 15.322 57.9385 15.2284 45.5955 15.4594C39.424 15.5968 33.2504 15.6884 27.0789 15.7759L22.4497 15.8404L20.1362 15.8737C19.9423 15.8779 19.7527 15.8779 19.5546 15.8841C19.3483 15.8966 19.142 15.9049 18.9398 15.9466C18.7355 15.9716 18.5375 16.0382 18.3416 16.0923C18.1499 16.1652 17.956 16.2318 17.7747 16.3317C17.4079 16.5149 17.0681 16.7501 16.7763 17.0354C16.4824 17.3185 16.2219 17.637 16.0281 17.9951C15.6196 18.6966 15.4528 19.5356 15.4945 20.3183L15.5758 24.9399C15.5758 23.8262 15.5758 22.7166 15.5758 21.6091C15.5779 21.0532 15.5674 20.5057 15.582 19.9478L15.5779 19.9457Z" fill="#028093"/>
<path d="M17.7442 116.441C17.7151 111.611 17.688 106.759 17.6588 101.864C17.5504 88.2494 17.4108 76.1625 17.2461 63.8029C17.2586 72.8732 17.2711 81.9915 17.2857 91.1806C17.3357 100.382 17.5671 108.178 17.7463 116.439L17.7442 116.441Z" fill="#028093"/>
<path d="M16.8514 28.1438L16.9306 36.6917C16.989 42.3895 17.0473 48.0853 17.1057 53.7811C17.1536 57.1703 17.1995 60.4907 17.2453 63.805C17.1953 50.3607 17.1453 37.0206 17.0953 23.7054L17.0786 21.6528L17.0703 20.6264L17.0661 20.1143L17.0723 19.9374C17.0765 19.8812 17.0723 19.8249 17.0828 19.7708C17.1682 18.8902 17.7727 18.0742 18.5959 17.7119C18.8044 17.6328 19.0149 17.5516 19.24 17.5266C19.3504 17.4996 19.4651 17.5058 19.5776 17.4933C19.6005 17.4892 19.6506 17.4913 19.6902 17.4892H19.8194L20.0758 17.485L22.1308 17.4684L26.241 17.435L42.6817 17.2976C53.6408 17.1915 64.6019 17.0853 75.5589 16.9812C78.0475 16.9604 80.5195 16.9396 82.9748 16.9188C62.5823 16.8938 42.2211 16.8667 22.6332 16.9188C22.0204 16.9188 21.4097 16.9229 20.799 16.925H19.884L19.6547 16.9292C19.5735 16.9292 19.5276 16.9354 19.4609 16.9375L19.2775 16.9479L19.0962 16.9771C18.1291 17.1228 17.2662 17.7723 16.8222 18.63C16.6034 19.0609 16.4825 19.5377 16.4742 20.0186C16.47 20.0727 16.47 20.1539 16.4721 20.2288V20.4557L16.4742 20.9075L16.4783 21.811C16.4846 23.0143 16.4887 24.2134 16.495 25.4104C16.5263 30.1944 16.5575 34.918 16.5888 39.5708C16.6638 48.8764 16.7701 57.8968 16.916 66.5384C16.9264 67.1712 16.9389 67.879 16.9494 68.5515C16.9056 53.5709 16.8597 38.7401 16.816 23.9573L16.8535 28.1438H16.8514Z" fill="#028093"/>
<path d="M55.7773 16.0944C56.9737 16.0944 58.1534 16.0986 59.3373 16.0986C60.717 16.0819 62.0739 16.0673 63.4287 16.0507C62.5971 16.0465 61.7654 16.0423 60.9421 16.0382C59.2122 16.0569 57.4885 16.0736 55.7773 16.0923V16.0944Z" fill="#028093"/>
<path d="M18.8173 14.9723L18.5776 15.0118C18.4984 15.0285 18.4213 15.0514 18.3421 15.0701C17.7168 15.2304 17.1207 15.5094 16.5976 15.8862C15.5492 16.6377 14.7968 17.7993 14.5508 19.0776L14.48 19.5585L14.457 20.0435V20.7971C14.4633 21.2926 14.4654 21.7901 14.4675 22.2877C14.4737 23.2828 14.4779 24.2821 14.4841 25.2813C14.5675 30.796 14.6384 36.5605 14.6925 42.4499C14.6613 37.1143 14.6279 31.8078 14.5988 26.801C14.5883 25.5499 14.5758 24.3174 14.5654 23.1079C14.5592 22.5021 14.5529 21.9046 14.5467 21.3113C14.5425 21.0157 14.5404 20.7201 14.5362 20.4266V20.208L14.5321 20.0976L14.5362 19.9602C14.5466 19.7729 14.5425 19.5855 14.5758 19.4002C14.7592 17.9076 15.6242 16.5586 16.831 15.78C17.4292 15.3845 18.1066 15.1201 18.7985 15.0035L19.057 14.9619C19.1445 14.9514 19.23 14.9473 19.3175 14.941L19.5781 14.9265L19.7823 14.9223C20.0449 14.9181 20.3055 14.9119 20.5639 14.9077C20.4139 14.9077 20.2596 14.9056 20.1012 14.9036C19.8469 14.9077 19.651 14.8994 19.2946 14.9223C19.1341 14.9265 18.9736 14.9473 18.8152 14.9764L18.8173 14.9723Z" fill="#028093"/>
<path d="M13.3164 47.1319V52.0657C13.3435 52.8173 13.3727 53.5584 13.3998 54.3099C13.4019 53.1566 13.406 51.9887 13.4081 50.8271L13.3164 47.134V47.1319Z" fill="#028093"/>
<path d="M14.06 119.914C13.8662 98.0588 13.6828 77.5719 13.5035 57.2639C13.4681 56.2793 13.4327 55.2904 13.3993 54.3099C13.3701 67.9373 13.4306 81.4919 13.6849 93.9868C13.7307 96.4496 13.8683 100.155 13.8683 102.618C13.912 114.291 14.0579 125.405 14.1913 136.491C14.1496 131.191 14.108 125.84 14.0642 120.369C14.0642 120.215 14.0621 120.068 14.06 119.914Z" fill="#028093"/>
</svg>
